<svg width="12" height="5" viewBox="0 0 12 5" fill="none" xmlns="http://www.w3.org/2000/svg">
<path d="M9.26389 4.94784L11.9306 2.63685C11.9769 2.59341 12 2.54134 12 2.48053C12 2.42403 11.9769 2.37416 11.9306 2.3308L9.26386 0.0524273C9.1897 -0.00400354 9.10875 -0.0148793 9.02077 0.0198C8.93282 0.0545477 8.88884 0.117454 8.88884 0.208587V1.66676L0.221977 1.66676C0.157204 1.66676 0.103934 1.68625 0.0623169 1.72536C0.0207968 1.76441 0 1.81426 0 1.87509V3.12491C0 3.18576 0.0207968 3.2357 0.0623169 3.27455C0.103959 3.31356 0.157204 3.33321 0.221977 3.33321L8.88884 3.33321V4.79139C8.88884 4.87817 8.93284 4.94103 9.02077 4.98004C9.10885 5.01492 9.1898 5.00402 9.26389 4.94784Z" fill="#DBDBDB"/>
</svg>
