<svg width="22" height="18" viewBox="0 0 22 18" fill="none" xmlns="http://www.w3.org/2000/svg">
<path opacity="0.4" d="M16.5947 7.93189C18.1971 7.93189 19.4969 6.63298 19.4969 5.03064C19.4969 3.42831 18.1971 2.12939 16.5947 2.12939" stroke="white" stroke-linecap="round" stroke-linejoin="round"/>
<path d="M17.9287 11.085C18.4072 11.118 18.883 11.1858 19.3514 11.2912C20.0022 11.4186 20.785 11.6854 21.0637 12.2693C21.2415 12.6433 21.2415 13.0787 21.0637 13.4536C20.786 14.0375 20.0022 14.3034 19.3514 14.4372" stroke="white" stroke-linecap="round" stroke-linejoin="round"/>
<path opacity="0.4" d="M5.28986 7.93189C3.68753 7.93189 2.3877 6.63298 2.3877 5.03064C2.3877 3.42831 3.68753 2.12939 5.28986 2.12939" stroke="white" stroke-linecap="round" stroke-linejoin="round"/>
<path d="M3.95565 11.085C3.47715 11.118 3.0014 11.1858 2.53298 11.2912C1.88215 11.4186 1.09931 11.6854 0.821562 12.2693C0.642813 12.6433 0.642813 13.0787 0.821562 13.4536C1.0984 14.0375 1.88215 14.3034 2.53298 14.4372" stroke="white" stroke-linecap="round" stroke-linejoin="round"/>
<path fill-rule="evenodd" clip-rule="evenodd" d="M10.9377 11.7095C14.1845 11.7095 16.9583 12.2008 16.9583 14.1671C16.9583 16.1324 14.2028 16.6421 10.9377 16.6421C7.68991 16.6421 4.91699 16.1507 4.91699 14.1845C4.91699 12.2182 7.67249 11.7095 10.9377 11.7095Z" stroke="white" stroke-linecap="round" stroke-linejoin="round"/>
<path opacity="0.4" fill-rule="evenodd" clip-rule="evenodd" d="M10.9378 8.90492C8.79651 8.90492 7.07959 7.188 7.07959 5.04575C7.07959 2.90442 8.79651 1.1875 10.9378 1.1875C13.0792 1.1875 14.7961 2.90442 14.7961 5.04575C14.7961 7.188 13.0792 8.90492 10.9378 8.90492Z" stroke="white" stroke-linecap="round" stroke-linejoin="round"/>
</svg>
