<svg width="17" height="21" viewBox="0 0 17 21" fill="none" xmlns="http://www.w3.org/2000/svg">
<circle opacity="0.4" cx="8.57881" cy="5.77803" r="4.77803" stroke="white" stroke-linecap="round" stroke-linejoin="round"/>
<path fill-rule="evenodd" clip-rule="evenodd" d="M1.00002 17.2016C0.998732 16.8657 1.07385 16.5339 1.2197 16.2313C1.67736 15.316 2.96798 14.8308 4.03892 14.6112C4.81128 14.4463 5.59431 14.3362 6.38217 14.2816C7.84084 14.1535 9.30793 14.1535 10.7666 14.2816C11.5544 14.3369 12.3374 14.447 13.1099 14.6112C14.1808 14.8308 15.4714 15.2702 15.9291 16.2313C16.2224 16.8481 16.2224 17.5642 15.9291 18.181C15.4714 19.1421 14.1808 19.5814 13.1099 19.7919C12.3384 19.9636 11.5551 20.0768 10.7666 20.1306C9.57937 20.2313 8.38659 20.2496 7.19681 20.1855C6.92221 20.1855 6.65677 20.1855 6.38217 20.1306C5.59663 20.0775 4.81632 19.9642 4.04807 19.7919C2.96798 19.5814 1.68652 19.1421 1.2197 18.181C1.0746 17.8749 0.999552 17.5403 1.00002 17.2016Z" stroke="white" stroke-linecap="round" stroke-linejoin="round"/>
</svg>
