<svg width="12" height="12" viewBox="0 0 12 12" fill="none" xmlns="http://www.w3.org/2000/svg">
<circle cx="6" cy="6" r="6" fill="#D9513E"/>
<path d="M3.16039 3.16039C2.94654 3.37425 2.94654 3.72097 3.16039 3.93483L5.22556 6L3.16039 8.06517C2.94654 8.27903 2.94654 8.62575 3.16039 8.83961C3.37425 9.05346 3.72097 9.05346 3.93483 8.83961L6 6.77444L8.06517 8.83961C8.27903 9.05346 8.62575 9.05346 8.83961 8.83961C9.05346 8.62575 9.05346 8.27903 8.83961 8.06517L6.77444 6L8.83961 3.93483C9.05346 3.72098 9.05346 3.37425 8.83961 3.16039C8.62575 2.94654 8.27903 2.94654 8.06517 3.16039L6 5.22556L3.93483 3.16039C3.72097 2.94654 3.37425 2.94654 3.16039 3.16039Z" fill="white"/>
</svg>
