<svg width="98" height="32" viewBox="0 0 98 32" fill="none" xmlns="http://www.w3.org/2000/svg">
<path d="M9.67179 4.56919C9.67179 5.88093 9.24626 6.9376 8.3952 7.73921C7.54414 8.54082 6.26755 8.94163 4.56543 8.94163H1.5146V15.4566H0V0.174896H4.56543C6.25313 0.174896 7.5225 0.575703 8.37356 1.37732C9.23905 2.17893 9.67179 3.24289 9.67179 4.56919ZM4.56543 7.6299C6.93109 7.6299 8.11392 6.60966 8.11392 4.56919C8.11392 3.54896 7.83264 2.7765 7.27007 2.2518C6.70751 1.72711 5.80596 1.46477 4.56543 1.46477H1.5146V7.6299H4.56543Z" fill="white"/>
<path d="M20.8463 11.8274H13.9657L12.6459 15.4566H11.0447L16.5622 0.371656H18.2715L23.7674 15.4566H22.1662L20.8463 11.8274ZM20.392 10.5594L17.406 2.29553L14.4201 10.5594H20.392Z" fill="white"/>
<path d="M34.1173 15.4566L30.3741 9.0728H27.5829V15.4566H26.0683V0.174896H30.6121C32.2998 0.174896 33.5764 0.582991 34.4419 1.39918C35.3218 2.21537 35.7618 3.28661 35.7618 4.61292C35.7618 5.7206 35.4444 6.66796 34.8097 7.455C34.1895 8.22746 33.2663 8.7303 32.0402 8.96349L35.9349 15.4566H34.1173ZM27.5829 7.82666H30.6338C31.8166 7.82666 32.7037 7.53516 33.2951 6.95217C33.901 6.36918 34.2039 5.58943 34.2039 4.61292C34.2039 3.60726 33.9154 2.8348 33.3384 2.29553C32.7614 1.74169 31.8526 1.46477 30.6121 1.46477H27.5829V7.82666Z" fill="white"/>
<path d="M47.4872 0.174896V1.4429H43.2896V15.4566H41.775V1.4429H37.5558V0.174896H47.4872Z" fill="white"/>
<path d="M61.1517 15.4566H59.6371L51.2636 2.6016V15.4566H49.749V0.174896H51.2636L59.6371 13.008V0.174896H61.1517V15.4566Z" fill="white"/>
<path d="M65.967 1.42104V7.12707H71.7008V8.39508H65.967V14.1886H72.35V15.4566H64.4524V0.153035H72.35V1.42104H65.967Z" fill="white"/>
<path d="M83.2535 15.4566L79.5103 9.0728H76.7191V15.4566H75.2045V0.174896H79.7483C81.436 0.174896 82.7126 0.582991 83.5781 1.39918C84.458 2.21537 84.898 3.28661 84.898 4.61292C84.898 5.7206 84.5806 6.66796 83.9459 7.455C83.3257 8.22746 82.4025 8.7303 81.1764 8.96349L85.0711 15.4566H83.2535ZM76.7191 7.82666H79.77C80.9528 7.82666 81.8399 7.53516 82.4313 6.95217C83.0372 6.36918 83.3401 5.58943 83.3401 4.61292C83.3401 3.60726 83.0516 2.8348 82.4746 2.29553C81.8976 1.74169 80.9889 1.46477 79.7483 1.46477H76.7191V7.82666Z" fill="white"/>
<path d="M92.3609 15.6096C91.3656 15.6096 90.4857 15.4347 89.7212 15.0849C88.9711 14.7351 88.3797 14.2469 87.9469 13.6201C87.5142 12.9934 87.2834 12.2938 87.2545 11.5214H88.8557C88.9278 12.2647 89.2524 12.9205 89.8294 13.489C90.4063 14.0428 91.2502 14.3197 92.3609 14.3197C93.3851 14.3197 94.1928 14.0574 94.7843 13.5327C95.3901 12.9934 95.693 12.3157 95.693 11.4995C95.693 10.8436 95.5271 10.3189 95.1954 9.92543C94.8636 9.51733 94.4525 9.21855 93.9621 9.02908C93.4716 8.82503 92.7936 8.60641 91.9282 8.37321C90.9184 8.09629 90.1179 7.82666 89.5264 7.56431C88.935 7.30197 88.4302 6.89387 88.0118 6.34003C87.5935 5.78619 87.3844 5.03559 87.3844 4.08823C87.3844 3.30119 87.5863 2.6016 87.9902 1.98946C88.3941 1.36274 88.9639 0.874487 89.6995 0.524692C90.4352 0.174897 91.279 0 92.2311 0C93.6303 0 94.7554 0.349795 95.6065 1.04938C96.472 1.7344 96.9696 2.62346 97.0994 3.71657H95.455C95.354 3.08985 95.0151 2.53601 94.4381 2.05504C93.8611 1.5595 93.0821 1.31173 92.1013 1.31173C91.1925 1.31173 90.4352 1.5595 89.8294 2.05504C89.2235 2.53601 88.9206 3.19916 88.9206 4.0445C88.9206 4.68579 89.0865 5.2032 89.4183 5.59672C89.75 5.99024 90.1611 6.28902 90.6516 6.49307C91.1564 6.69711 91.8344 6.91574 92.6855 7.14893C93.6663 7.42585 94.4597 7.70277 95.0655 7.97969C95.6714 8.24204 96.1835 8.65013 96.6018 9.20398C97.0201 9.75782 97.2293 10.5011 97.2293 11.4339C97.2293 12.1481 97.0417 12.8258 96.6667 13.4671C96.2916 14.1084 95.7363 14.6258 95.0006 15.0193C94.265 15.4128 93.3851 15.6096 92.3609 15.6096Z" fill="white"/>
<path d="M18.6117 31.8926H17.5742L11.8383 22.8941V31.8926H10.8008V21.1954H11.8383L17.5742 30.1786V21.1954H18.6117V31.8926Z" fill="white"/>
<path d="M21.9101 22.0677V26.0619H25.8378V26.9496H21.9101V31.005H26.2824V31.8926H20.8726V21.1801H26.2824V22.0677H21.9101Z" fill="white"/>
<path d="M29.2753 22.0677V26.0619H33.203V26.9496H29.2753V31.005H33.6476V31.8926H28.2378V21.1801H33.6476V22.0677H29.2753Z" fill="white"/>
<path d="M38.671 21.1954C39.8172 21.1954 40.8003 21.4097 41.6205 21.8382C42.4406 22.2667 43.068 22.8839 43.5028 23.6899C43.9375 24.4959 44.1549 25.4549 44.1549 26.567C44.1549 27.6688 43.9375 28.6227 43.5028 29.4287C43.068 30.2245 42.4406 30.8366 41.6205 31.2651C40.8003 31.6834 39.8172 31.8926 38.671 31.8926H35.603V21.1954H38.671ZM38.671 31.005C40.1136 31.005 41.2104 30.6173 41.9614 29.8419C42.7222 29.0563 43.1026 27.9647 43.1026 26.567C43.1026 25.159 42.7222 24.0623 41.9614 23.2767C41.2104 22.4809 40.1136 22.083 38.671 22.083H36.6405V31.005H38.671Z" fill="white"/>
<path d="M58.1088 24.3173C57.8124 23.6134 57.3578 23.0625 56.7452 22.6646C56.1425 22.2565 55.4311 22.0524 54.6109 22.0524C53.8402 22.0524 53.1486 22.2361 52.5359 22.6033C51.9233 22.9706 51.4392 23.4961 51.0835 24.1796C50.7277 24.853 50.5499 25.6385 50.5499 26.5364C50.5499 27.4342 50.7277 28.2248 51.0835 28.9084C51.4392 29.592 51.9233 30.1174 52.5359 30.4847C53.1486 30.8519 53.8402 31.0356 54.6109 31.0356C55.3322 31.0356 55.9795 30.8775 56.5525 30.5612C57.1355 30.2347 57.5999 29.7756 57.9458 29.1839C58.3015 28.5819 58.504 27.8831 58.5534 27.0873H54.1959V26.215H59.6502V26.9955C59.6008 27.9341 59.3538 28.786 58.9091 29.5511C58.4645 30.3061 57.8667 30.903 57.1158 31.3417C56.3747 31.7804 55.5397 31.9997 54.6109 31.9997C53.6525 31.9997 52.783 31.7702 52.0024 31.3111C51.2218 30.8417 50.6042 30.1939 50.1497 29.3675C49.7051 28.5309 49.4827 27.5872 49.4827 26.5364C49.4827 25.4855 49.7051 24.5469 50.1497 23.7205C50.6042 22.8839 51.2218 22.2361 52.0024 21.777C52.783 21.3077 53.6525 21.073 54.6109 21.073C55.7176 21.073 56.6859 21.3587 57.5159 21.93C58.3459 22.5013 58.9487 23.2971 59.3241 24.3173H58.1088Z" fill="white"/>
<path d="M66.9753 31.8926L64.4112 27.424H62.4993V31.8926H61.4618V21.1954H64.5743C65.7303 21.1954 66.6048 21.4811 67.1977 22.0524C67.8004 22.6238 68.1018 23.3736 68.1018 24.302C68.1018 25.0774 67.8844 25.7406 67.4496 26.2915C67.0247 26.8322 66.3924 27.1842 65.5525 27.3474L68.2203 31.8926H66.9753ZM62.4993 26.5517H64.5891C65.3993 26.5517 66.007 26.3476 66.4121 25.9395C66.8271 25.5314 67.0346 24.9856 67.0346 24.302C67.0346 23.5981 66.837 23.0574 66.4418 22.6799C66.0465 22.2922 65.424 22.0983 64.5743 22.0983H62.4993V26.5517Z" fill="white"/>
<path d="M74.7256 31.9997C73.7672 31.9997 72.8977 31.7702 72.1171 31.3111C71.3365 30.8417 70.7189 30.1939 70.2644 29.3675C69.8198 28.5309 69.5974 27.5872 69.5974 26.5364C69.5974 25.4855 69.8198 24.5469 70.2644 23.7205C70.7189 22.8839 71.3365 22.2361 72.1171 21.777C72.8977 21.3077 73.7672 21.073 74.7256 21.073C75.694 21.073 76.5684 21.3077 77.349 21.777C78.1296 22.2361 78.7422 22.8839 79.1869 23.7205C79.6315 24.5469 79.8538 25.4855 79.8538 26.5364C79.8538 27.5872 79.6315 28.5309 79.1869 29.3675C78.7422 30.1939 78.1296 30.8417 77.349 31.3111C76.5684 31.7702 75.694 31.9997 74.7256 31.9997ZM74.7256 31.0662C75.4964 31.0662 76.188 30.8826 76.8006 30.5153C77.4133 30.148 77.8974 29.6226 78.2531 28.939C78.6088 28.2452 78.7867 27.4444 78.7867 26.5364C78.7867 25.6283 78.6088 24.8326 78.2531 24.149C77.8974 23.4654 77.4133 22.94 76.8006 22.5727C76.188 22.2055 75.4964 22.0218 74.7256 22.0218C73.9549 22.0218 73.2633 22.2055 72.6506 22.5727C72.038 22.94 71.5539 23.4654 71.1982 24.149C70.8424 24.8326 70.6646 25.6283 70.6646 26.5364C70.6646 27.4444 70.8424 28.2452 71.1982 28.939C71.5539 29.6226 72.038 30.148 72.6506 30.5153C73.2633 30.8826 73.9549 31.0662 74.7256 31.0662Z" fill="white"/>
<path d="M82.6564 21.1954V27.929C82.6564 28.99 82.8984 29.7756 83.3826 30.2857C83.8767 30.7958 84.5486 31.0509 85.3983 31.0509C86.2481 31.0509 86.9101 30.8009 87.3844 30.301C87.8685 29.7909 88.1106 29.0002 88.1106 27.929V21.1954H89.1481V27.9137C89.1481 29.2706 88.7973 30.2908 88.0958 30.9744C87.4041 31.6579 86.5 31.9997 85.3835 31.9997C84.267 31.9997 83.3579 31.6579 82.6564 30.9744C81.9647 30.2908 81.6189 29.2706 81.6189 27.9137V21.1954H82.6564Z" fill="white"/>
<path d="M97.9985 24.2714C97.9985 25.1896 97.707 25.9293 97.124 26.4904C96.541 27.0516 95.6666 27.3321 94.5006 27.3321H92.4108V31.8926H91.3733V21.1954H94.5006C95.6567 21.1954 96.5262 21.476 97.1092 22.0371C97.702 22.5982 97.9985 23.343 97.9985 24.2714ZM94.5006 26.4139C96.1211 26.4139 96.9313 25.6998 96.9313 24.2714C96.9313 23.5573 96.7386 23.0165 96.3533 22.6493C95.9679 22.282 95.3504 22.0983 94.5006 22.0983H92.4108V26.4139H94.5006Z" fill="white"/>
<path d="M0.612217 20.7217C0.933076 20.7217 1.19318 20.4507 1.19318 20.1165C1.19318 19.7822 0.933076 19.5112 0.612217 19.5112C0.291358 19.5112 0.03125 19.7822 0.03125 20.1165C0.03125 20.4507 0.291358 20.7217 0.612217 20.7217Z" fill="#3775EF"/>
<path d="M7.29581 20.7217C7.61667 20.7217 7.87678 20.4507 7.87678 20.1165C7.87678 19.7822 7.61667 19.5112 7.29581 19.5112C6.97495 19.5112 6.71484 19.7822 6.71484 20.1165C6.71484 20.4507 6.97495 20.7217 7.29581 20.7217Z" fill="#3775EF"/>
<path d="M7.8677 24.4648C7.8677 24.1272 7.61065 23.8595 7.28656 23.8595C6.96246 23.8595 6.70542 24.1272 6.70542 24.4648L6.6719 27.7936C6.66072 28.457 6.33662 29.1205 5.8896 29.586C5.44257 30.04 4.81673 30.4008 3.96737 30.4241H3.9562C3.09567 30.3892 2.46983 30.0283 2.0228 29.5744C1.5646 29.1088 1.25168 28.4454 1.2405 27.782L1.20698 24.4531C1.20698 24.1156 0.949935 23.8479 0.625839 23.8479C0.301744 23.8479 0.0447028 24.1156 0.0447028 24.4531L0 27.782C0 28.9808 0.402325 29.9003 1.06169 30.587C1.70988 31.2621 2.61511 31.716 3.94502 31.7277H3.9562C5.27493 31.716 6.19134 31.2621 6.83953 30.587C7.4989 29.9003 7.90122 28.9808 7.90122 27.782L7.8677 24.4648Z" fill="#3775EF"/>
</svg>
