<svg width="98" height="32" viewBox="0 0 98 32" fill="none" xmlns="http://www.w3.org/2000/svg">
<path d="M9.67179 4.56919C9.67179 5.88093 9.24626 6.9376 8.3952 7.73921C7.54414 8.54082 6.26755 8.94163 4.56543 8.94163H1.5146V15.4566H0V0.174896H4.56543C6.25313 0.174896 7.5225 0.575703 8.37356 1.37732C9.23905 2.17893 9.67179 3.24289 9.67179 4.56919ZM4.56543 7.6299C6.93109 7.6299 8.11392 6.60966 8.11392 4.56919C8.11392 3.54896 7.83264 2.7765 7.27007 2.2518C6.70751 1.72711 5.80596 1.46477 4.56543 1.46477H1.5146V7.6299H4.56543Z" fill="white"/>
<path d="M20.8463 11.8274H13.9657L12.6459 15.4566H11.0447L16.5622 0.371656H18.2715L23.7674 15.4566H22.1662L20.8463 11.8274ZM20.392 10.5594L17.406 2.29553L14.4201 10.5594H20.392Z" fill="white"/>
<path d="M34.1173 15.4566L30.3741 9.0728H27.5829V15.4566H26.0683V0.174896H30.6121C32.2998 0.174896 33.5764 0.582991 34.4419 1.39918C35.3218 2.21537 35.7618 3.28661 35.7618 4.61292C35.7618 5.7206 35.4444 6.66796 34.8097 7.455C34.1895 8.22746 33.2663 8.7303 32.0402 8.96349L35.9349 15.4566H34.1173ZM27.5829 7.82666H30.6338C31.8166 7.82666 32.7037 7.53516 33.2951 6.95217C33.901 6.36918 34.2039 5.58943 34.2039 4.61292C34.2039 3.60726 33.9154 2.8348 33.3384 2.29553C32.7614 1.74169 31.8526 1.46477 30.6121 1.46477H27.5829V7.82666Z" fill="white"/>
<path d="M47.4872 0.174896V1.4429H43.2896V15.4566H41.775V1.4429H37.5558V0.174896H47.4872Z" fill="white"/>
<path d="M61.1517 15.4566H59.6371L51.2636 2.6016V15.4566H49.749V0.174896H51.2636L59.6371 13.008V0.174896H61.1517V15.4566Z" fill="white"/>
<path d="M65.967 1.42104V7.12707H71.7008V8.39508H65.967V14.1886H72.35V15.4566H64.4524V0.153035H72.35V1.42104H65.967Z" fill="white"/>
<path d="M83.2535 15.4566L79.5103 9.0728H76.7191V15.4566H75.2045V0.174896H79.7483C81.436 0.174896 82.7126 0.582991 83.5781 1.39918C84.458 2.21537 84.898 3.28661 84.898 4.61292C84.898 5.7206 84.5806 6.66796 83.9459 7.455C83.3257 8.22746 82.4025 8.7303 81.1764 8.96349L85.0711 15.4566H83.2535ZM76.7191 7.82666H79.77C80.9528 7.82666 81.8399 7.53516 82.4313 6.95217C83.0372 6.36918 83.3401 5.58943 83.3401 4.61292C83.3401 3.60726 83.0516 2.8348 82.4746 2.29553C81.8976 1.74169 80.9889 1.46477 79.7483 1.46477H76.7191V7.82666Z" fill="white"/>
<path d="M92.3609 15.6096C91.3656 15.6096 90.4857 15.4347 89.7212 15.0849C88.9711 14.7351 88.3797 14.2469 87.9469 13.6201C87.5142 12.9934 87.2834 12.2938 87.2545 11.5214H88.8557C88.9278 12.2647 89.2524 12.9205 89.8294 13.489C90.4063 14.0428 91.2502 14.3197 92.3609 14.3197C93.3851 14.3197 94.1928 14.0574 94.7843 13.5327C95.3901 12.9934 95.693 12.3157 95.693 11.4995C95.693 10.8436 95.5271 10.3189 95.1954 9.92543C94.8636 9.51733 94.4525 9.21855 93.9621 9.02908C93.4716 8.82503 92.7936 8.60641 91.9282 8.37321C90.9184 8.09629 90.1179 7.82666 89.5264 7.56431C88.935 7.30197 88.4302 6.89387 88.0118 6.34003C87.5935 5.78619 87.3844 5.03559 87.3844 4.08823C87.3844 3.30119 87.5863 2.6016 87.9902 1.98946C88.3941 1.36274 88.9639 0.874487 89.6995 0.524692C90.4352 0.174897 91.279 0 92.2311 0C93.6303 0 94.7554 0.349795 95.6065 1.04938C96.472 1.7344 96.9696 2.62346 97.0994 3.71657H95.455C95.354 3.08985 95.0151 2.53601 94.4381 2.05504C93.8611 1.5595 93.0821 1.31173 92.1013 1.31173C91.1925 1.31173 90.4352 1.5595 89.8294 2.05504C89.2235 2.53601 88.9206 3.19916 88.9206 4.0445C88.9206 4.68579 89.0865 5.2032 89.4183 5.59672C89.75 5.99024 90.1611 6.28902 90.6516 6.49307C91.1564 6.69711 91.8344 6.91574 92.6855 7.14893C93.6663 7.42585 94.4597 7.70277 95.0655 7.97969C95.6714 8.24204 96.1835 8.65013 96.6018 9.20398C97.0201 9.75782 97.2293 10.5011 97.2293 11.4339C97.2293 12.1481 97.0417 12.8258 96.6667 13.4671C96.2916 14.1084 95.7363 14.6258 95.0006 15.0193C94.265 15.4128 93.3851 15.6096 92.3609 15.6096Z" fill="white"/>
<path d="M18.6131 31.8926H17.5756L11.8397 22.8941V31.8926H10.8022V21.1954H11.8397L17.5756 30.1786V21.1954H18.6131V31.8926Z" fill="white"/>
<path d="M21.9116 22.0677V26.0619H25.8392V26.9496H21.9116V31.005H26.2839V31.8926H20.8741V21.1801H26.2839V22.0677H21.9116Z" fill="white"/>
<path d="M29.2768 22.0677V26.0619H33.2044V26.9496H29.2768V31.005H33.6491V31.8926H28.2393V21.1801H33.6491V22.0677H29.2768Z" fill="white"/>
<path d="M38.6725 21.1954C39.8187 21.1954 40.8018 21.4097 41.6219 21.8382C42.442 22.2667 43.0695 22.8839 43.5042 23.6899C43.939 24.4959 44.1564 25.4549 44.1564 26.567C44.1564 27.6688 43.939 28.6227 43.5042 29.4287C43.0695 30.2245 42.442 30.8366 41.6219 31.2651C40.8018 31.6834 39.8187 31.8926 38.6725 31.8926H35.6044V21.1954H38.6725ZM38.6725 31.005C40.1151 31.005 41.2119 30.6173 41.9628 29.8419C42.7236 29.0563 43.1041 27.9647 43.1041 26.567C43.1041 25.159 42.7236 24.0623 41.9628 23.2767C41.2119 22.4809 40.1151 22.083 38.6725 22.083H36.6419V31.005H38.6725Z" fill="white"/>
<path d="M58.1102 24.3173C57.8138 23.6134 57.3593 23.0625 56.7467 22.6646C56.1439 22.2565 55.4325 22.0524 54.6124 22.0524C53.8417 22.0524 53.15 22.2361 52.5374 22.6033C51.9248 22.9706 51.4406 23.4961 51.0849 24.1796C50.7292 24.853 50.5513 25.6385 50.5513 26.5364C50.5513 27.4342 50.7292 28.2248 51.0849 28.9084C51.4406 29.592 51.9248 30.1174 52.5374 30.4847C53.15 30.8519 53.8417 31.0356 54.6124 31.0356C55.3337 31.0356 55.9809 30.8775 56.554 30.5612C57.137 30.2347 57.6014 29.7756 57.9472 29.1839C58.3029 28.5819 58.5055 27.8831 58.5549 27.0873H54.1974V26.215H59.6517V26.9955C59.6023 27.9341 59.3552 28.786 58.9106 29.5511C58.466 30.3061 57.8682 30.903 57.1172 31.3417C56.3761 31.7804 55.5412 31.9997 54.6124 31.9997C53.654 31.9997 52.7844 31.7702 52.0038 31.3111C51.2232 30.8417 50.6057 30.1939 50.1512 29.3675C49.7065 28.5309 49.4842 27.5872 49.4842 26.5364C49.4842 25.4855 49.7065 24.5469 50.1512 23.7205C50.6057 22.8839 51.2232 22.2361 52.0038 21.777C52.7844 21.3077 53.654 21.073 54.6124 21.073C55.7191 21.073 56.6874 21.3587 57.5174 21.93C58.3474 22.5013 58.9501 23.2971 59.3256 24.3173H58.1102Z" fill="white"/>
<path d="M66.9768 31.8926L64.4127 27.424H62.5007V31.8926H61.4632V21.1954H64.5757C65.7318 21.1954 66.6063 21.4811 67.1991 22.0524C67.8018 22.6238 68.1032 23.3736 68.1032 24.302C68.1032 25.0774 67.8858 25.7406 67.4511 26.2915C67.0262 26.8322 66.3938 27.1842 65.5539 27.3474L68.2218 31.8926H66.9768ZM62.5007 26.5517H64.5906C65.4008 26.5517 66.0085 26.3476 66.4136 25.9395C66.8286 25.5314 67.0361 24.9856 67.0361 24.302C67.0361 23.5981 66.8385 23.0574 66.4432 22.6799C66.048 22.2922 65.4255 22.0983 64.5757 22.0983H62.5007V26.5517Z" fill="white"/>
<path d="M74.7271 31.9997C73.7687 31.9997 72.8991 31.7702 72.1185 31.3111C71.338 30.8417 70.7204 30.1939 70.2659 29.3675C69.8212 28.5309 69.5989 27.5872 69.5989 26.5364C69.5989 25.4855 69.8212 24.5469 70.2659 23.7205C70.7204 22.8839 71.338 22.2361 72.1185 21.777C72.8991 21.3077 73.7687 21.073 74.7271 21.073C75.6954 21.073 76.5699 21.3077 77.3505 21.777C78.1311 22.2361 78.7437 22.8839 79.1883 23.7205C79.633 24.5469 79.8553 25.4855 79.8553 26.5364C79.8553 27.5872 79.633 28.5309 79.1883 29.3675C78.7437 30.1939 78.1311 30.8417 77.3505 31.3111C76.5699 31.7702 75.6954 31.9997 74.7271 31.9997ZM74.7271 31.0662C75.4978 31.0662 76.1895 30.8826 76.8021 30.5153C77.4147 30.148 77.8989 29.6226 78.2546 28.939C78.6103 28.2452 78.7882 27.4444 78.7882 26.5364C78.7882 25.6283 78.6103 24.8326 78.2546 24.149C77.8989 23.4654 77.4147 22.94 76.8021 22.5727C76.1895 22.2055 75.4978 22.0218 74.7271 22.0218C73.9564 22.0218 73.2647 22.2055 72.6521 22.5727C72.0395 22.94 71.5553 23.4654 71.1996 24.149C70.8439 24.8326 70.666 25.6283 70.666 26.5364C70.666 27.4444 70.8439 28.2452 71.1996 28.939C71.5553 29.6226 72.0395 30.148 72.6521 30.5153C73.2647 30.8826 73.9564 31.0662 74.7271 31.0662Z" fill="white"/>
<path d="M82.6578 21.1954V27.929C82.6578 28.99 82.8999 29.7756 83.3841 30.2857C83.8781 30.7958 84.55 31.0509 85.3998 31.0509C86.2495 31.0509 86.9116 30.8009 87.3858 30.301C87.87 29.7909 88.1121 29.0002 88.1121 27.929V21.1954H89.1496V27.9137C89.1496 29.2706 88.7988 30.2908 88.0973 30.9744C87.4056 31.6579 86.5015 31.9997 85.385 31.9997C84.2684 31.9997 83.3594 31.6579 82.6578 30.9744C81.9662 30.2908 81.6203 29.2706 81.6203 27.9137V21.1954H82.6578Z" fill="white"/>
<path d="M97.9999 24.2714C97.9999 25.1896 97.7084 25.9293 97.1255 26.4904C96.5425 27.0516 95.668 27.3321 94.5021 27.3321H92.4123V31.8926H91.3748V21.1954H94.5021C95.6581 21.1954 96.5277 21.476 97.1106 22.0371C97.7035 22.5982 97.9999 23.343 97.9999 24.2714ZM94.5021 26.4139C96.1225 26.4139 96.9328 25.6998 96.9328 24.2714C96.9328 23.5573 96.7401 23.0165 96.3547 22.6493C95.9694 22.282 95.3518 22.0983 94.5021 22.0983H92.4123V26.4139H94.5021Z" fill="white"/>
<path d="M0.611241 20.7218C0.9321 20.7218 1.19221 20.4508 1.19221 20.1166C1.19221 19.7823 0.9321 19.5113 0.611241 19.5113C0.290381 19.5113 0.0302734 19.7823 0.0302734 20.1166C0.0302734 20.4508 0.290381 20.7218 0.611241 20.7218Z" fill="#EF7D00"/>
<path d="M7.29728 20.7217C7.61814 20.7217 7.87825 20.4507 7.87825 20.1164C7.87825 19.7822 7.61814 19.5112 7.29728 19.5112C6.97642 19.5112 6.71631 19.7822 6.71631 20.1164C6.71631 20.4507 6.97642 20.7217 7.29728 20.7217Z" fill="#EF7D00"/>
<path d="M7.8677 24.4648C7.8677 24.1272 7.61065 23.8595 7.28656 23.8595C6.96246 23.8595 6.70542 24.1272 6.70542 24.4648L6.6719 27.7936C6.66072 28.457 6.33662 29.1205 5.8896 29.586C5.44257 30.04 4.81673 30.4008 3.96737 30.4241H3.9562C3.09567 30.3891 2.46983 30.0283 2.0228 29.5744C1.5646 29.1088 1.25168 28.4454 1.2405 27.7819L1.20698 24.4531C1.20698 24.1156 0.949935 23.8479 0.625839 23.8479C0.301744 23.8479 0.0447028 24.1156 0.0447028 24.4531L0 27.7819C0 28.9808 0.402325 29.9003 1.06169 30.587C1.70988 31.2621 2.61511 31.716 3.94502 31.7276H3.9562C5.27493 31.716 6.19134 31.2621 6.83953 30.587C7.4989 29.9003 7.90122 28.9808 7.90122 27.7819L7.8677 24.4648Z" fill="#EF7D00"/>
</svg>
