<svg xmlns="http://www.w3.org/2000/svg" width="86" height="25" viewBox="0 0 86 25" fill="none">
<path d="M2.288 1.144C2.672 1.144 3.008 1.256 3.296 1.48C3.584 1.704 3.728 2.08 3.728 2.608C3.728 3.12 3.584 3.496 3.296 3.736C3.008 3.96 2.672 4.072 2.288 4.072C1.872 4.072 1.52 3.96 1.232 3.736C0.96 3.496 0.824 3.12 0.824 2.608C0.824 2.08 0.96 1.704 1.232 1.48C1.52 1.256 1.872 1.144 2.288 1.144ZM3.536 6.064V19H0.992V6.064H3.536ZM14.0831 5.824C15.5871 5.824 16.7391 6.2 17.5391 6.952C18.3391 7.704 18.7391 8.912 18.7391 10.576V19H16.2191V10.936C16.2191 8.92 15.3311 7.912 13.5551 7.912C12.2271 7.912 11.3151 8.304 10.8191 9.088C10.3231 9.872 10.0751 11 10.0751 12.472V19H7.53106V6.064H9.54706L9.90706 7.792H10.0511C10.4671 7.12 11.0351 6.624 11.7551 6.304C12.4911 5.984 13.2671 5.824 14.0831 5.824ZM31.2403 15.352C31.2403 16.616 30.7763 17.584 29.8483 18.256C28.9203 18.912 27.6323 19.24 25.9843 19.24C25.0723 19.24 24.2883 19.168 23.6323 19.024C22.9923 18.896 22.4003 18.704 21.8563 18.448V16.216C22.4163 16.488 23.0723 16.736 23.8242 16.96C24.5923 17.168 25.3363 17.272 26.0563 17.272C27.0163 17.272 27.7043 17.12 28.1203 16.816C28.5523 16.512 28.7683 16.104 28.7683 15.592C28.7683 15.304 28.6883 15.048 28.5283 14.824C28.3683 14.584 28.0643 14.344 27.6163 14.104C27.1843 13.848 26.5443 13.56 25.6963 13.24C24.8643 12.904 24.1603 12.576 23.5843 12.256C23.0243 11.92 22.5923 11.528 22.2883 11.08C21.9843 10.616 21.8323 10.024 21.8323 9.304C21.8323 8.184 22.2803 7.328 23.1763 6.736C24.0883 6.128 25.2883 5.824 26.7763 5.824C27.5603 5.824 28.2963 5.904 28.9843 6.064C29.6883 6.224 30.3683 6.448 31.0243 6.736L30.1843 8.68C29.6243 8.44 29.0483 8.24 28.4563 8.08C27.8643 7.904 27.2643 7.816 26.6562 7.816C25.8883 7.816 25.3043 7.936 24.9043 8.176C24.5043 8.416 24.3043 8.752 24.3043 9.184C24.3043 9.488 24.4003 9.752 24.5923 9.976C24.7843 10.2 25.1043 10.424 25.5523 10.648C26.0163 10.872 26.6483 11.144 27.4483 11.464C28.2483 11.768 28.9283 12.08 29.4883 12.4C30.0643 12.72 30.4963 13.112 30.7843 13.576C31.0883 14.04 31.2403 14.632 31.2403 15.352ZM40.7293 5.824C42.2813 5.824 43.5293 6.384 44.4733 7.504C45.4333 8.624 45.9133 10.296 45.9133 12.52C45.9133 14.712 45.4333 16.384 44.4733 17.536C43.5133 18.672 42.2573 19.24 40.7053 19.24C39.7133 19.24 38.9053 19.064 38.2812 18.712C37.6733 18.344 37.1853 17.912 36.8173 17.416H36.6493C36.6973 17.704 36.7373 18.048 36.7693 18.448C36.8013 18.832 36.8173 19.176 36.8173 19.48V24.76H34.2733V6.064H36.3373L36.6973 7.792H36.8173C37.1853 7.248 37.6733 6.784 38.2812 6.4C38.9053 6.016 39.7213 5.824 40.7293 5.824ZM40.1293 7.912C38.9293 7.912 38.0813 8.264 37.5853 8.968C37.0893 9.656 36.8333 10.704 36.8173 12.112V12.496C36.8173 13.984 37.0573 15.136 37.5373 15.952C38.0173 16.752 38.8973 17.152 40.1773 17.152C41.2333 17.152 42.0173 16.72 42.5293 15.856C43.0413 14.992 43.2973 13.864 43.2973 12.472C43.2973 11.064 43.0413 9.952 42.5293 9.136C42.0173 8.32 41.2173 7.912 40.1293 7.912ZM50.4521 1.144C50.8361 1.144 51.1721 1.256 51.4601 1.48C51.7481 1.704 51.8921 2.08 51.8921 2.608C51.8921 3.12 51.7481 3.496 51.4601 3.736C51.1721 3.96 50.8361 4.072 50.4521 4.072C50.0361 4.072 49.6841 3.96 49.3961 3.736C49.1241 3.496 48.9881 3.12 48.9881 2.608C48.9881 2.08 49.1241 1.704 49.3961 1.48C49.6841 1.256 50.0361 1.144 50.4521 1.144ZM51.7001 6.064V19H49.1561V6.064H51.7001ZM62.0791 5.824C62.3031 5.824 62.5431 5.84 62.7991 5.872C63.0711 5.888 63.3031 5.912 63.4951 5.944L63.2311 8.32C62.8151 8.208 62.3831 8.152 61.9351 8.152C61.2951 8.152 60.6871 8.312 60.1111 8.632C59.5511 8.952 59.0951 9.416 58.7431 10.024C58.4071 10.616 58.2391 11.336 58.2391 12.184V19H55.6951V6.064H57.7111L58.0471 8.368H58.1431C58.5591 7.68 59.0951 7.088 59.7511 6.592C60.4071 6.08 61.1831 5.824 62.0791 5.824ZM72.2024 8.008H69.0104V19H66.4664V8.008H64.2824V6.808L66.4664 6.016V5.2C66.4664 3.552 66.8424 2.384 67.5944 1.696C68.3624 0.991999 69.4264 0.639999 70.7864 0.639999C71.3464 0.639999 71.8584 0.687999 72.3224 0.783998C72.7864 0.879999 73.1784 0.983999 73.4984 1.096L72.8504 3.04C72.5784 2.96 72.2744 2.888 71.9384 2.824C71.6184 2.744 71.2744 2.704 70.9064 2.704C69.6424 2.704 69.0104 3.544 69.0104 5.224V6.064H72.2024V8.008ZM72.5006 6.064H75.2366L77.9246 13.408C78.1326 13.968 78.3086 14.512 78.4526 15.04C78.6126 15.552 78.7326 16.056 78.8126 16.552H78.9086C78.9886 16.136 79.1086 15.648 79.2686 15.088C79.4446 14.528 79.6366 13.96 79.8446 13.384L82.3886 6.064H85.1246L79.5806 20.752C79.1166 22 78.4926 22.976 77.7086 23.68C76.9406 24.4 75.9326 24.76 74.6846 24.76C74.2846 24.76 73.9406 24.736 73.6526 24.688C73.3646 24.656 73.1166 24.616 72.9086 24.568V22.552C73.0686 22.584 73.2766 22.616 73.5326 22.648C73.7886 22.68 74.0526 22.696 74.3246 22.696C75.0606 22.696 75.6526 22.48 76.1006 22.048C76.5486 21.632 76.9006 21.08 77.1566 20.392L77.6846 19L72.5006 6.064Z" fill="black"></path>
</svg>