<svg width="40" height="40" viewBox="0 0 40 40" fill="none" xmlns="http://www.w3.org/2000/svg">
<path fill-rule="evenodd" clip-rule="evenodd" d="M7.21589 4.5752H32.7825C34.2415 4.5752 35.4242 5.75791 35.4242 7.21686V27.7835C35.4196 29.2392 34.2383 30.4169 32.7825 30.4169H26.0326L28.1909 32.5919C28.6587 33.0691 28.7963 33.7797 28.5402 34.397C28.2842 35.0144 27.6842 35.4191 27.0159 35.4252H12.9742C12.308 35.4192 11.7093 35.017 11.4519 34.4025C11.1945 33.788 11.3278 33.0792 11.7909 32.6002L13.9492 30.4169H7.21589C5.76018 30.4169 4.57881 29.2392 4.57422 27.7835V7.21686C4.57422 5.75791 5.75693 4.5752 7.21589 4.5752ZM32.7824 5.40853H7.21573C6.22543 5.42215 5.42851 6.22647 5.42406 7.21686V23.6169H34.5907V7.21686C34.5862 6.22004 33.7792 5.41309 32.7824 5.40853ZM27.5992 33.1835C27.827 33.4222 27.8924 33.7728 27.7662 34.0776C27.6399 34.3824 27.3457 34.584 27.0159 34.5918H12.9742C12.6429 34.5872 12.3457 34.3868 12.2174 34.0813C12.089 33.7758 12.1539 33.4233 12.3826 33.1835L15.1159 30.4168H24.8576L27.5992 33.1835ZM7.21589 29.5834H32.7826C33.7715 29.5743 34.5697 28.7724 34.5742 27.7834V24.4501H5.40755V27.7834C5.41214 28.7789 6.22042 29.5834 7.21589 29.5834Z" fill="#FF7777"/>
<path d="M35.4242 27.7835L35.9242 27.7851V27.7835H35.4242ZM32.7825 30.4169L32.7826 29.9169H32.7825V30.4169ZM26.0326 30.4169V29.9169H24.832L25.6776 30.7691L26.0326 30.4169ZM28.1909 32.5919L28.5479 32.2418L28.5458 32.2397L28.1909 32.5919ZM28.5402 34.397L29.0021 34.5886V34.5886L28.5402 34.397ZM27.0159 35.4252V35.9252L27.0204 35.9252L27.0159 35.4252ZM12.9742 35.4252L12.9697 35.9252H12.9742V35.4252ZM11.4519 34.4025L10.9907 34.5957L11.4519 34.4025ZM11.7909 32.6002L11.4353 32.2487L11.4314 32.2527L11.7909 32.6002ZM13.9492 30.4169L14.3048 30.7684L15.1466 29.9169H13.9492V30.4169ZM7.21589 30.4169V29.9169H7.21588L7.21589 30.4169ZM4.57422 27.7835H4.07422L4.07422 27.7851L4.57422 27.7835ZM7.21573 5.40853V4.90848L7.20885 4.90858L7.21573 5.40853ZM32.7824 5.40853L32.7847 4.90853H32.7824V5.40853ZM5.42406 7.21686L4.92406 7.21462V7.21686H5.42406ZM5.42406 23.6169H4.92406V24.1169H5.42406V23.6169ZM34.5907 23.6169V24.1169H35.0907V23.6169H34.5907ZM34.5907 7.21686H35.0907L35.0907 7.21457L34.5907 7.21686ZM27.5992 33.1835L27.9611 32.8383L27.9544 32.8315L27.5992 33.1835ZM27.0159 34.5918V35.0919L27.0277 35.0916L27.0159 34.5918ZM12.9742 34.5918L12.9674 35.0918H12.9742V34.5918ZM12.2174 34.0813L12.6784 33.8876H12.6784L12.2174 34.0813ZM12.3826 33.1835L12.0268 32.832L12.0207 32.8384L12.3826 33.1835ZM15.1159 30.4168V29.9168H14.907L14.7602 30.0654L15.1159 30.4168ZM24.8576 30.4168L25.2127 30.0648L25.066 29.9168H24.8576V30.4168ZM32.7826 29.5834V30.0834L32.7872 30.0834L32.7826 29.5834ZM7.21589 29.5834V29.0834H7.21588L7.21589 29.5834ZM34.5742 27.7834L35.0742 27.7857V27.7834H34.5742ZM34.5742 24.4501H35.0742V23.9501H34.5742V24.4501ZM5.40755 24.4501V23.9501H4.90755V24.4501H5.40755ZM5.40755 27.7834H4.90755L4.90756 27.7857L5.40755 27.7834ZM32.7825 4.0752H7.21589V5.0752H32.7825V4.0752ZM35.9242 7.21686C35.9242 5.48177 34.5176 4.0752 32.7825 4.0752V5.0752C33.9654 5.0752 34.9242 6.03405 34.9242 7.21686H35.9242ZM35.9242 27.7835V7.21686H34.9242V27.7835H35.9242ZM32.7825 30.9169C34.5138 30.9169 35.9188 29.5163 35.9242 27.7851L34.9242 27.7819C34.9205 28.9621 33.9627 29.9169 32.7826 29.9169L32.7825 30.9169ZM26.0326 30.9169H32.7825V29.9169H26.0326V30.9169ZM28.5458 32.2397L26.3875 30.0647L25.6776 30.7691L27.836 32.944L28.5458 32.2397ZM29.0021 34.5886C29.3349 33.786 29.1562 32.8623 28.5479 32.2418L27.8338 32.9419C28.1613 33.276 28.2576 33.7734 28.0784 34.2055L29.0021 34.5886ZM27.0204 35.9252C27.8892 35.9173 28.6693 35.3911 29.0021 34.5886L28.0784 34.2055C27.8992 34.6377 27.4791 34.921 27.0113 34.9252L27.0204 35.9252ZM12.9742 35.9252H27.0159V34.9252H12.9742V35.9252ZM10.9907 34.5957C11.3254 35.3946 12.1036 35.9174 12.9697 35.9252L12.9787 34.9252C12.5123 34.921 12.0933 34.6395 11.9131 34.2093L10.9907 34.5957ZM11.4314 32.2527C10.8294 32.8754 10.6561 33.7968 10.9907 34.5957L11.9131 34.2093C11.7329 33.7792 11.8262 33.283 12.1504 32.9477L11.4314 32.2527ZM13.5936 30.0653L11.4353 32.2487L12.1465 32.9517L14.3048 30.7684L13.5936 30.0653ZM7.21589 30.9169H13.9492V29.9169H7.21589V30.9169ZM4.07422 27.7851C4.07968 29.5163 5.48466 30.9169 7.21589 30.9169L7.21588 29.9169C6.03571 29.9169 5.07794 28.9621 5.07422 27.7819L4.07422 27.7851ZM4.07422 7.21686V27.7835H5.07422V7.21686H4.07422ZM7.21589 4.0752C5.48079 4.0752 4.07422 5.48177 4.07422 7.21686H5.07422C5.07422 6.03405 6.03308 5.0752 7.21589 5.0752V4.0752ZM7.21573 5.90853H32.7824V4.90853H7.21573V5.90853ZM5.92406 7.21911C5.92728 6.5013 6.50486 5.91835 7.22261 5.90848L7.20885 4.90858C5.94599 4.92594 4.92974 5.95164 4.92407 7.21462L5.92406 7.21911ZM5.92406 23.6169V7.21686H4.92406V23.6169H5.92406ZM34.5907 23.1169H5.42406V24.1169H34.5907V23.1169ZM34.0907 7.21686V23.6169H35.0907V7.21686H34.0907ZM32.7801 5.90852C33.5026 5.91183 34.0874 6.49668 34.0907 7.21915L35.0907 7.21457C35.0849 5.9434 34.0559 4.91435 32.7847 4.90853L32.7801 5.90852ZM28.2281 34.2689C28.4301 33.7812 28.3254 33.2203 27.961 32.8383L27.2375 33.5286C27.3286 33.6241 27.3547 33.7643 27.3042 33.8862L28.2281 34.2689ZM27.0277 35.0916C27.5554 35.0792 28.0261 34.7566 28.2281 34.2689L27.3042 33.8862C27.2537 34.0082 27.1361 34.0888 27.0041 34.0919L27.0277 35.0916ZM12.9742 35.0918H27.0159V34.0918H12.9742V35.0918ZM11.7564 34.275C11.9618 34.7638 12.4372 35.0845 12.9674 35.0917L12.9811 34.0918C12.8486 34.09 12.7297 34.0098 12.6784 33.8876L11.7564 34.275ZM12.0207 32.8384C11.6548 33.2221 11.5511 33.7862 11.7564 34.275L12.6784 33.8876C12.627 33.7654 12.653 33.6244 12.7444 33.5285L12.0207 32.8384ZM14.7602 30.0654L12.0269 32.832L12.7383 33.5349L15.4716 30.7682L14.7602 30.0654ZM24.8576 29.9168H15.1159V30.9168H24.8576V29.9168ZM27.9544 32.8315L25.2127 30.0648L24.5024 30.7687L27.2441 33.5354L27.9544 32.8315ZM32.7826 29.0834H7.21589V30.0834H32.7826V29.0834ZM34.0742 27.7811C34.071 28.4967 33.4935 29.0768 32.7779 29.0834L32.7872 30.0834C34.0496 30.0718 35.0684 29.0481 35.0742 27.7857L34.0742 27.7811ZM34.0742 24.4501V27.7834H35.0742V24.4501H34.0742ZM5.40755 24.9501H34.5742V23.9501H5.40755V24.9501ZM5.90755 27.7834V24.4501H4.90755V27.7834H5.90755ZM7.21588 29.0834C6.49565 29.0834 5.91087 28.5013 5.90755 27.7811L4.90756 27.7857C4.91341 29.0564 5.94518 30.0834 7.21589 30.0834L7.21588 29.0834Z" fill="#FF7777"/>
<path fill-rule="evenodd" clip-rule="evenodd" d="M18.1914 27.0166C18.1914 26.0179 19.001 25.2083 19.9997 25.2083C20.9985 25.2083 21.8081 26.0179 21.8081 27.0166C21.8081 28.0153 20.9985 28.8249 19.9997 28.8249C19.001 28.8249 18.1914 28.0153 18.1914 27.0166ZM19.0247 27.0166C19.0247 27.5551 19.4613 27.9916 19.9997 27.9916C20.5363 27.9871 20.9702 27.5532 20.9747 27.0166C20.9747 26.4781 20.5382 26.0416 19.9997 26.0416C19.4613 26.0416 19.0247 26.4781 19.0247 27.0166Z" fill="#FF7777"/>
<path fill-rule="evenodd" clip-rule="evenodd" d="M12.9399 20.8335H11.4233C10.9334 20.8313 10.4645 20.634 10.1205 20.2853C9.77641 19.9365 9.58548 19.4651 9.58992 18.9752V16.1669C9.58991 15.153 10.4094 14.3298 11.4233 14.3252H12.9399C13.4284 14.3252 13.8968 14.5192 14.2422 14.8646C14.5876 15.21 14.7816 15.6784 14.7816 16.1669V18.9919C14.7816 19.4803 14.5876 19.9487 14.2422 20.2941C13.8968 20.6395 13.4284 20.8335 12.9399 20.8335ZM11.4232 15.175C10.8696 15.1796 10.4232 15.6297 10.4232 16.1834V18.9917C10.4232 19.5454 10.8696 19.9955 11.4232 20H12.9399C13.2073 20 13.4638 19.8938 13.6529 19.7047C13.842 19.5156 13.9482 19.2591 13.9482 18.9917V16.1834C13.9482 15.6265 13.4968 15.175 12.9399 15.175H11.4232Z" fill="white"/>
<path fill-rule="evenodd" clip-rule="evenodd" d="M20.9234 20.8334H19.0651C18.1446 20.8334 17.3984 20.0872 17.3984 19.1667V10.3334C17.3984 9.41294 18.1446 8.66675 19.0651 8.66675H20.9234C21.8439 8.66675 22.5901 9.41294 22.5901 10.3334V19.1667C22.5901 20.0872 21.8439 20.8334 20.9234 20.8334ZM19.0651 9.51659C18.6049 9.51659 18.2318 9.88969 18.2318 10.3499V19.1666C18.2318 19.6268 18.6049 19.9999 19.0651 19.9999H20.9234C21.3837 19.9999 21.7568 19.6268 21.7568 19.1666V10.3499C21.7568 9.88969 21.3837 9.51659 20.9234 9.51659H19.0651Z" fill="white"/>
<path fill-rule="evenodd" clip-rule="evenodd" d="M28.7599 20.8331H26.8932C25.9728 20.8331 25.2266 20.0869 25.2266 19.1664V13.4164C25.2266 12.4959 25.9728 11.7498 26.8932 11.7498H28.7599C29.6804 11.7498 30.4266 12.4959 30.4266 13.4164V19.1664C30.4266 20.0869 29.6804 20.8331 28.7599 20.8331ZM26.8932 12.5831C26.433 12.5831 26.0599 12.9562 26.0599 13.4164V19.1664C26.0599 19.6267 26.433 19.9998 26.8932 19.9998H28.7599C29.2201 19.9998 29.5932 19.6267 29.5932 19.1664V13.4164C29.5932 12.9562 29.2201 12.5831 28.7599 12.5831H26.8932Z" fill="white"/>
</svg>
