<svg width="92" height="87" viewBox="0 0 92 87" fill="none" xmlns="http://www.w3.org/2000/svg">
<path d="M30.4782 69.5458C31.2501 68.0574 31.1495 66.7382 31.0152 65.9264C30.8809 65.0469 30.1425 62.4762 28.8335 60.8525C28.8335 60.8525 28.8335 62.0026 28.33 62.7806C27.8266 63.5586 26.6854 64.6749 26.2491 65.1484C25.8463 65.622 25.3428 66.3323 25.175 67.0088C25.0072 67.6177 25.0743 68.4972 25.175 68.9369C25.3428 69.5796 25.6785 70.2561 26.0141 70.5605C26.2826 70.7973 26.8532 71.2709 27.5245 71.2371C27.2224 70.7973 26.9875 70.3914 26.7525 69.7487C26.5511 69.106 26.5511 68.1589 26.8532 67.3471C27.1553 66.5353 28.028 65.2499 28.3636 64.7425C28.6993 64.2351 29.102 63.3895 29.102 63.3895C29.0349 64.2013 27.9944 65.8249 27.7594 66.3323C27.4909 66.8397 27.1553 67.7192 27.0882 68.5987C27.021 69.4781 27.6252 70.4929 27.793 70.7635C27.9273 71.0003 28.4307 71.7106 28.9342 72.4548C28.028 72.5563 27.1553 72.6577 26.8868 72.7254C26.5847 72.7931 25.3764 73.0298 24.7387 73.6725C24.0674 74.3152 23.5975 75.127 23.3961 75.6344C23.1611 76.1418 22.5905 77.9684 21.9864 78.5434C21.9864 78.5434 22.3891 77.6978 22.557 77.1228C22.7248 76.5477 23.1611 75.0594 23.5975 74.3152C24.0338 73.571 24.7722 72.9284 25.4099 72.6577C26.0477 72.3871 26.5176 72.2857 27.0882 72.218C26.6854 71.7106 25.947 71.5753 25.5778 71.5753C25.1079 71.5415 24.3359 71.7445 23.7317 72.0489C23.2954 72.2518 22.5905 72.7592 22.2213 73.3004C21.8186 73.8755 21.5836 74.6873 21.4829 75.33C21.3822 75.9388 21.2815 77.4948 20.9794 78.3743C20.7109 79.2538 19.8047 79.9979 19.8047 79.9979C21.9528 79.8965 24.4366 78.7126 25.2086 78.239C25.9134 77.7993 27.0546 77.0213 27.6923 75.4653C28.33 73.9431 27.6923 72.8607 27.6923 72.8607C27.6923 72.8607 29.5719 72.9622 29.6391 72.7592C29.7397 72.4886 28.4643 71.1694 28.4643 71.1694C28.4643 71.1694 29.7062 71.0003 30.4782 69.5458Z" fill="#E3BC30"/>
<path d="M23.6622 64.0665C24.6691 62.8488 24.8369 61.5973 24.8705 60.8193C24.9041 59.9736 24.7362 57.4367 23.83 55.6777C23.83 55.6777 23.6286 56.7263 22.9909 57.369C22.3532 57.9779 21.0777 58.7897 20.6078 59.1618C20.1379 59.5339 19.5338 60.0751 19.2317 60.684C18.9632 61.2252 18.8289 62.037 18.8625 62.4767C18.896 63.0856 19.0639 63.7959 19.3324 64.168C19.5338 64.4386 19.9701 64.9798 20.6078 65.0813C20.4064 64.6078 20.2722 64.168 20.205 63.5253C20.1379 62.8826 20.3393 62.0032 20.7421 61.3267C21.1784 60.6501 22.2525 59.6015 22.6552 59.2294C23.058 58.8235 23.595 58.1132 23.595 58.1132C23.3937 58.8574 22.0846 60.1427 21.749 60.5825C21.4134 60.9884 20.9099 61.7664 20.6749 62.5782C20.44 63.39 20.8092 64.4386 20.8763 64.7431C20.9435 64.9798 21.2791 65.7578 21.6147 66.5358C20.7421 66.4682 19.9365 66.3667 19.668 66.4005C19.3659 66.4005 18.2247 66.4005 17.4863 66.8403C16.7479 67.28 16.1438 67.9903 15.8417 68.3962C15.5396 68.836 14.6334 70.392 13.9621 70.8317C13.9621 70.8317 14.4991 70.1214 14.7676 69.6478C15.0361 69.1742 15.741 67.855 16.278 67.2462C16.8486 66.6373 17.6541 66.1976 18.2919 66.0961C18.9296 65.9608 19.3995 65.9608 19.9365 66.0284C19.668 65.4534 18.9967 65.2166 18.6611 65.1151C18.2247 64.9798 17.4863 65.0475 16.8486 65.1828C16.4123 65.2843 15.6403 65.6225 15.2039 66.0623C14.7005 66.5358 14.3313 67.2462 14.1299 67.7874C13.9285 68.3286 13.4922 69.7493 13.0894 70.5273C12.6531 71.3053 11.6797 71.8127 11.6797 71.8127C13.6936 72.1509 16.2444 71.542 17.05 71.2714C17.822 71.0008 18.9967 70.4934 19.903 69.2081C20.7756 67.9227 20.4064 66.8064 20.4064 66.8064C20.4064 66.8064 22.1182 67.28 22.2189 67.1109C22.3532 66.8741 21.4134 65.4196 21.4134 65.4196C21.4134 65.4196 22.6552 65.2504 23.6622 64.0665Z" fill="#E3BC30"/>
<path d="M18.3272 57.7403C19.502 56.7931 19.9048 55.6769 20.0726 54.9665C20.274 54.1885 20.6096 51.8207 20.1061 49.9941C20.1061 49.9941 19.7034 50.9413 18.9985 51.381C18.2937 51.8207 16.9511 52.3281 16.4476 52.5649C15.9442 52.8017 15.2729 53.2076 14.8701 53.715C14.5009 54.1547 14.2324 54.8989 14.1653 55.3048C14.0646 55.8798 14.0981 56.5902 14.2659 56.9623C14.4002 57.2667 14.7023 57.8417 15.2729 58.0785C15.1722 57.5711 15.1386 57.1652 15.2057 56.5564C15.2729 55.9475 15.6085 55.1695 16.1455 54.6283C16.6826 54.0871 17.8909 53.3429 18.3272 53.0385C18.7636 52.734 19.4013 52.1928 19.4013 52.1928C19.0657 52.8355 17.6224 53.7826 17.2196 54.1209C16.8168 54.4253 16.2127 55.0342 15.8435 55.7445C15.4743 56.4549 15.6085 57.5035 15.6085 57.8079C15.6421 58.0447 15.7763 58.8227 15.9442 59.6345C15.1386 59.3977 14.4002 59.1609 14.1653 59.0933C13.8632 59.0256 12.8227 58.7889 12.0507 59.0595C11.2787 59.3301 10.5739 59.8375 10.2047 60.2095C9.83545 60.5478 8.69426 61.8332 7.98941 62.07C7.98941 62.07 8.62713 61.5288 8.96278 61.1228C9.33198 60.7169 10.2047 59.6345 10.8424 59.1948C11.4801 58.755 12.3192 58.4844 12.9569 58.5183C13.5947 58.5183 13.9974 58.6197 14.5009 58.7889C14.3666 58.2138 13.796 57.8417 13.494 57.7064C13.1248 57.5035 12.4199 57.402 11.8157 57.402C11.413 57.402 10.6074 57.5711 10.104 57.8756C9.56693 58.2138 9.06347 58.7889 8.76139 59.2624C8.45931 59.736 7.78802 60.9537 7.25099 61.5964C6.71396 62.2053 5.70703 62.5097 5.70703 62.5097C7.51951 63.22 10.0033 63.1862 10.8088 63.0509C11.5472 62.9494 12.7555 62.7127 13.8632 61.6979C14.9372 60.6831 14.803 59.5668 14.803 59.5668C14.803 59.5668 16.3134 60.3448 16.4476 60.2095C16.6155 60.0404 16.0449 58.4844 16.0449 58.4844C16.0449 58.4844 17.1525 58.6536 18.3272 57.7403Z" fill="#E3BC30"/>
<path d="M14.4991 50.8735C15.7746 50.2308 16.3452 49.2498 16.6808 48.641C17.0164 47.9645 17.7884 45.7996 17.6877 44.0068C17.6877 44.0068 17.1171 44.8187 16.3787 45.0893C15.6403 45.3599 14.2977 45.5628 13.7607 45.6981C13.2237 45.8334 12.5524 46.0702 12.0825 46.4423C11.6461 46.7806 11.2769 47.4232 11.1427 47.7953C10.9413 48.3027 10.8406 48.9792 10.9077 49.3513C10.9749 49.6557 11.1427 50.2646 11.6126 50.569C11.6126 50.0955 11.6461 49.6896 11.8475 49.1484C12.0153 48.6072 12.4853 47.9306 13.123 47.5247C13.7271 47.1188 15.0026 46.6791 15.4725 46.4761C15.9424 46.307 16.6472 45.9011 16.6472 45.9011C16.2109 46.4423 14.6669 47.0173 14.2306 47.2541C13.7943 47.4571 13.123 47.8968 12.6195 48.5057C12.1496 49.0807 12.0489 50.0955 12.0153 50.3661C11.9818 50.6029 11.9818 51.347 11.9818 52.125C11.2769 51.753 10.6392 51.3809 10.4378 51.2794C10.1693 51.1779 9.22951 50.7382 8.45752 50.8397C7.68554 50.9411 6.94713 51.2794 6.54435 51.5162C6.14158 51.753 4.83257 52.7339 4.12772 52.8016C4.12772 52.8016 4.83257 52.4295 5.23534 52.125C5.63812 51.8206 6.67861 51.0088 7.3499 50.7044C8.02119 50.3999 8.8603 50.3323 9.43089 50.5014C10.0015 50.6367 10.4043 50.8058 10.807 51.0426C10.7735 50.4676 10.3371 50.0278 10.0686 49.8249C9.76654 49.5543 9.12881 49.3175 8.55822 49.216C8.15545 49.1484 7.41703 49.1484 6.88 49.3175C6.3094 49.5204 5.73881 49.9602 5.3696 50.3323C5.00039 50.7044 4.12772 51.7191 3.49 52.1927C2.85227 52.6663 1.87891 52.7339 1.87891 52.7339C3.42287 53.7487 5.73881 54.1884 6.51079 54.2561C7.21564 54.3237 8.3904 54.3575 9.59871 53.6134C10.7735 52.903 10.9077 51.8206 10.9077 51.8206C10.9077 51.8206 12.1496 52.8354 12.3174 52.7339C12.5188 52.5986 12.2839 51.0426 12.2839 51.0426C12.2839 51.0426 13.2237 51.4823 14.4991 50.8735Z" fill="#E3BC30"/>
<path d="M12.1496 43.8041C13.4586 43.4658 14.197 42.6878 14.5998 42.1466C15.0697 41.5716 16.2109 39.745 16.4458 38.0537C16.4458 38.0537 15.7745 38.6964 15.0361 38.7979C14.2977 38.8994 12.9887 38.8317 12.4852 38.8317C11.9818 38.8317 11.2769 38.9332 10.7734 39.2038C10.3035 39.4406 9.83364 39.948 9.63226 40.2524C9.36374 40.6921 9.12879 41.2672 9.09523 41.6731C9.09523 41.9775 9.12879 42.5525 9.53156 42.9585C9.63226 42.5187 9.73295 42.1466 10.035 41.6731C10.3035 41.1995 10.8741 40.6921 11.5119 40.4215C12.1496 40.1509 13.425 40.0156 13.8949 39.9141C14.3648 39.8465 15.1033 39.6097 15.1033 39.6097C14.5998 40.0156 13.0558 40.2524 12.6195 40.3877C12.1831 40.4892 11.4447 40.7598 10.8741 41.2333C10.3035 41.6731 10.035 42.5864 9.93434 42.857C9.86721 43.0599 9.73295 43.7703 9.56513 44.4806C8.99453 43.9732 8.4575 43.5335 8.28968 43.3982C8.08829 43.2291 7.28275 42.654 6.54433 42.5864C5.80592 42.5187 5.0675 42.6878 4.63116 42.857C4.19483 42.9923 2.78512 43.635 2.11383 43.6011C2.11383 43.6011 2.85225 43.3644 3.28859 43.1952C3.72492 42.9923 4.83255 42.4511 5.5374 42.3158C6.20869 42.1805 7.01423 42.2819 7.5177 42.5187C8.02117 42.7555 8.35681 42.9923 8.69245 43.2967C8.79315 42.7555 8.4575 42.2481 8.25612 42.0113C8.02117 41.7069 7.48414 41.3686 6.98067 41.1319C6.64503 40.9966 5.90661 40.8274 5.40314 40.8951C4.83255 40.9627 4.19483 41.2672 3.79205 41.5378C3.35572 41.8084 2.38235 42.5864 1.6775 42.8908C1.00621 43.1952 0.0664062 43.0599 0.0664062 43.0599C1.30829 44.3115 3.35572 45.191 4.06057 45.3939C4.73186 45.5969 5.80592 45.8336 7.08136 45.3939C8.32325 44.9542 8.65889 43.9732 8.65889 43.9732C8.65889 43.9732 9.59869 45.1571 9.76651 45.0895C9.9679 45.0218 10.0686 43.4997 10.0686 43.4997C10.0686 43.4997 10.8406 44.1085 12.1496 43.8041Z" fill="#E3BC30"/>
<path d="M11.1769 36.8022C12.4524 36.7684 13.2915 36.1595 13.795 35.7536C14.332 35.3139 15.7417 33.8255 16.3123 32.3034C16.3123 32.3034 15.5739 32.7431 14.8355 32.7093C14.1306 32.6755 12.9559 32.3372 12.4524 32.2357C11.9825 32.1342 11.3112 32.1004 10.8077 32.2357C10.3378 32.371 9.76723 32.7431 9.53228 32.9799C9.16308 33.352 8.861 33.8255 8.7603 34.1976C8.69318 34.4682 8.62605 35.0433 8.89456 35.483C9.06238 35.0771 9.26377 34.7727 9.59941 34.4006C9.93506 33.9947 10.5728 33.6564 11.2441 33.5211C11.8818 33.4196 13.0901 33.5211 13.56 33.5211C14.0299 33.5549 14.7348 33.4873 14.7348 33.4873C14.1642 33.7579 12.6873 33.6902 12.251 33.6902C11.8147 33.7241 11.1098 33.8255 10.4721 34.13C9.86793 34.4344 9.43159 35.2462 9.29733 35.4492C9.19664 35.6183 8.92813 36.2272 8.62605 36.8699C8.18971 36.2948 7.78694 35.7536 7.65268 35.5845C7.48486 35.4154 6.8807 34.705 6.17585 34.5021C5.50456 34.2991 4.76614 34.2991 4.32981 34.3668C3.89347 34.4006 2.4502 34.7388 1.84604 34.5359C1.84604 34.5359 2.55089 34.4682 3.02079 34.3668C3.45713 34.2653 4.63188 33.9947 5.26961 33.9947C5.9409 33.9947 6.64575 34.2653 7.08209 34.6035C7.51842 34.9418 7.75337 35.2124 8.02189 35.5507C8.22327 35.0771 7.98832 34.5359 7.85407 34.2653C7.68624 33.927 7.24991 33.4873 6.84713 33.2167C6.54505 33.0137 5.90733 32.7431 5.40387 32.6755C4.86684 32.6416 4.22911 32.7769 3.75921 32.9461C3.32287 33.1152 2.24881 33.6226 1.54396 33.7917C0.83911 33.9608 0 33.6226 0 33.6226C0.906238 35.0433 2.65159 36.261 3.25575 36.5993C3.82634 36.9037 4.76614 37.3773 6.04159 37.2081C7.28347 37.039 7.75337 36.2272 7.75337 36.2272C7.75337 36.2272 8.3911 37.5126 8.55892 37.5126C8.7603 37.4787 9.16308 36.0919 9.16308 36.0919C9.16308 36.0919 9.90149 36.836 11.1769 36.8022Z" fill="#E3BC30"/>
<path d="M11.4798 30.1382C12.6881 30.3412 13.5608 29.9691 14.0978 29.6985C14.6684 29.3941 16.2795 28.3116 17.1186 26.9924C17.1186 26.9924 16.3466 27.263 15.6753 27.0939C15.004 26.9248 13.9971 26.3497 13.5608 26.1806C13.1244 26.0115 12.5203 25.8085 12.0168 25.8424C11.5469 25.8762 10.9427 26.113 10.6742 26.2821C10.2714 26.5527 9.86868 26.9248 9.73442 27.263C9.63372 27.4998 9.43234 28.0072 9.63373 28.4808C9.86868 28.1425 10.1036 27.9057 10.5064 27.6013C10.9092 27.2969 11.5469 27.0939 12.1846 27.1277C12.8223 27.1616 13.8964 27.4998 14.3327 27.6013C14.7691 27.7028 15.4404 27.8043 15.4404 27.8043C14.8698 27.9396 13.4936 27.5675 13.0909 27.4998C12.6881 27.4322 11.9832 27.3984 11.3455 27.5675C10.7078 27.7366 10.1372 28.3793 10.0029 28.5484C9.86868 28.6837 9.49947 29.2249 9.0967 29.7323C8.79462 29.1235 8.55967 28.5484 8.42541 28.3455C8.29115 28.1425 7.85481 27.3645 7.28422 27.0263C6.68006 26.688 6.00877 26.5527 5.606 26.5189C5.20323 26.4851 3.79352 26.4851 3.25649 26.1806C3.25649 26.1806 3.92778 26.2821 4.36412 26.2483C4.80045 26.2483 5.90808 26.2144 6.5458 26.3497C7.14996 26.4851 7.75412 26.8571 8.08976 27.263C8.42541 27.669 8.59323 27.9734 8.79462 28.3455C9.06313 27.9396 8.96244 27.3983 8.89531 27.1277C8.79462 26.7895 8.49254 26.3159 8.15689 25.9438C7.92194 25.7071 7.38491 25.3011 6.94857 25.1658C6.44511 24.9967 5.84095 25.0305 5.37105 25.0982C4.93471 25.1658 3.82709 25.4365 3.1558 25.4365C2.48451 25.4365 1.74609 24.9629 1.74609 24.9629C2.31669 26.4512 3.69283 27.9396 4.19629 28.3793C4.6662 28.7852 5.47174 29.3941 6.68006 29.4955C7.85481 29.597 8.49254 28.9205 8.49254 28.9205C8.49254 28.9205 8.82818 30.2735 8.996 30.2735C9.19739 30.2735 9.83511 29.0896 9.83511 29.0896C9.83511 29.0896 10.2714 29.9353 11.4798 30.1382Z" fill="#E3BC30"/>
<path d="M12.8875 24.0841C13.9615 24.5239 14.8678 24.3548 15.4048 24.1856C16.009 24.0165 17.7208 23.34 18.7277 22.2914C18.7277 22.2914 17.9557 22.3929 17.3851 22.0884C16.8145 21.784 15.9754 21.0736 15.6062 20.803C15.237 20.5663 14.7335 20.2618 14.2301 20.1942C13.7937 20.1265 13.1896 20.228 12.921 20.3295C12.4847 20.4986 12.0484 20.7692 11.847 21.0398C11.7127 21.2428 11.4106 21.6825 11.5113 22.1561C11.8134 21.8855 12.0484 21.7163 12.4847 21.5134C12.921 21.3104 13.5588 21.2428 14.1294 21.4119C14.7 21.5472 15.6733 22.0884 16.009 22.2914C16.3782 22.4943 16.9823 22.6973 16.9823 22.6973C16.4117 22.7311 15.237 22.1223 14.8678 21.9531C14.4986 21.8178 13.8608 21.6149 13.2567 21.6487C12.6525 21.6825 11.9812 22.1561 11.8134 22.2914C11.6456 22.3929 11.2093 22.7988 10.7394 23.2047C10.6051 22.562 10.4708 21.9869 10.4037 21.784C10.3366 21.581 10.0681 20.7692 9.59817 20.3295C9.12827 19.9236 8.52411 19.653 8.12134 19.5177C7.75213 19.3824 6.44312 19.1118 6.00678 18.7397C6.00678 18.7397 6.61094 18.9426 7.01372 19.0441C7.41649 19.1456 8.45698 19.3147 9.02758 19.5515C9.56461 19.8221 10.0681 20.2618 10.303 20.7016C10.538 21.1413 10.6387 21.4457 10.7394 21.8516C11.075 21.5134 11.075 21.006 11.075 20.7354C11.075 20.3971 10.8736 19.8897 10.6051 19.4838C10.4373 19.2132 10.0345 18.7397 9.63174 18.5029C9.1954 18.2661 8.62481 18.1646 8.18847 18.1308C7.75213 18.097 6.67807 18.1308 6.04035 17.9955C5.40263 17.8602 4.83203 17.2852 4.83203 17.2852C5.06698 18.7735 6.04035 20.431 6.44312 20.9383C6.81233 21.4119 7.41649 22.1223 8.52411 22.4605C9.59817 22.7988 10.303 22.2914 10.303 22.2914C10.303 22.2914 10.3702 23.6106 10.5044 23.6444C10.7058 23.7121 11.5113 22.6973 11.5113 22.6973C11.5113 22.6973 11.847 23.6782 12.8875 24.0841Z" fill="#E3BC30"/>
<path d="M15.2711 18.8068C16.1774 19.4157 17.05 19.4495 17.5871 19.4157C18.1912 19.3819 19.903 19.0774 21.0442 18.2995C21.0442 18.2995 20.3058 18.2318 19.8359 17.8259C19.366 17.42 18.7283 16.6082 18.4262 16.3037C18.1241 15.9993 17.7213 15.6272 17.285 15.4581C16.8822 15.289 16.3116 15.289 16.0096 15.3228C15.5732 15.3904 15.1033 15.5596 14.8684 15.7625C14.7005 15.9316 14.3649 16.2699 14.3313 16.7096C14.667 16.5405 14.9355 16.4052 15.3718 16.3037C15.8082 16.2023 16.4123 16.2699 16.9494 16.5405C17.4528 16.7773 18.2248 17.4876 18.5269 17.7244C18.829 17.9612 19.366 18.2995 19.366 18.2995C18.829 18.198 17.8556 17.3862 17.5535 17.1832C17.2514 16.9802 16.6808 16.6758 16.1102 16.5743C15.5397 16.4729 14.8348 16.8111 14.6334 16.8788C14.4656 16.9464 13.9621 17.2509 13.4587 17.5215C13.4587 16.9126 13.4587 16.3376 13.4251 16.1346C13.3915 15.9316 13.3244 15.1198 12.9552 14.6124C12.586 14.1389 12.0825 13.7668 11.7469 13.5638C11.4112 13.3947 10.27 12.8535 9.9344 12.4138C9.9344 12.4138 10.4714 12.752 10.8071 12.8873C11.1763 13.0565 12.1161 13.4285 12.5524 13.7668C13.0223 14.1051 13.358 14.6463 13.4922 15.086C13.6265 15.5257 13.66 15.864 13.66 16.2361C14.0293 15.9993 14.1635 15.5257 14.1971 15.289C14.2642 14.9845 14.1635 14.4771 14.0293 14.0374C13.9286 13.733 13.6265 13.2256 13.2908 12.955C12.9216 12.6505 12.4182 12.4476 12.0154 12.3123C11.6126 12.2108 10.6057 12.0079 10.0687 11.7711C9.49806 11.5343 9.09529 10.8916 9.09529 10.8916C9.02816 12.3123 9.59875 14.0712 9.86727 14.6124C10.1022 15.1198 10.5386 15.9316 11.5119 16.439C12.4517 16.9464 13.1901 16.642 13.1901 16.642C13.1901 16.642 12.9888 17.8597 13.123 17.9274C13.2908 18.0288 14.2306 17.2509 14.2306 17.2509C14.2306 17.2509 14.3649 18.198 15.2711 18.8068Z" fill="#E3BC30"/>
<path d="M18.3578 14.409C19.0963 15.187 19.9018 15.3561 20.4053 15.4237C20.9759 15.5252 22.6205 15.559 23.8288 15.0855C23.8288 15.0855 23.1575 14.8825 22.7883 14.409C22.4191 13.9354 21.9828 13.0559 21.7814 12.6838C21.58 12.3456 21.2444 11.9058 20.8752 11.6691C20.5395 11.4323 20.0025 11.297 19.734 11.297C19.3312 11.2632 18.8613 11.3646 18.5928 11.4999C18.3914 11.6014 18.0222 11.872 17.9215 12.2779C18.2571 12.1765 18.5257 12.1088 18.962 12.1088C19.3983 12.1088 19.9354 12.3118 20.3717 12.6162C20.808 12.9544 21.3786 13.7324 21.6136 14.0369C21.8485 14.3413 22.2849 14.7472 22.2849 14.7472C21.815 14.5443 21.043 13.5971 20.808 13.3604C20.5731 13.1236 20.1032 12.7177 19.5662 12.5147C19.0627 12.3118 18.3243 12.4809 18.1229 12.5147C17.9551 12.5485 17.4516 12.7177 16.9146 12.8868C17.0153 12.3118 17.1495 11.7705 17.1495 11.6014C17.1831 11.3985 17.2502 10.6205 17.0153 10.1131C16.7803 9.60569 16.3775 9.13213 16.109 8.92918C15.8405 8.69239 14.8671 7.98205 14.6658 7.50849C14.6658 7.50849 15.1021 7.9144 15.4042 8.11735C15.7063 8.32031 16.5118 8.86152 16.881 9.30126C17.2502 9.70717 17.4852 10.2822 17.5187 10.7219C17.5523 11.1617 17.5187 11.4661 17.4516 11.8382C17.8544 11.7029 18.0558 11.2632 18.1229 11.0602C18.2236 10.7896 18.2571 10.2822 18.19 9.8763C18.1565 9.57187 17.9886 9.03065 17.7201 8.72622C17.4516 8.35414 17.0153 8.0497 16.6796 7.88057C16.344 7.71145 15.4377 7.33936 14.9678 7.0011C14.4979 6.66284 14.2294 5.98633 14.2294 5.98633C13.8602 7.30554 14.0952 9.03065 14.2294 9.60569C14.3637 10.1131 14.5986 10.9587 15.4042 11.6352C16.1762 12.3118 16.9481 12.1426 16.9481 12.1426C16.9481 12.1426 16.5118 13.2589 16.6125 13.3265C16.7467 13.428 17.7872 12.9206 17.7872 12.9206C17.7872 12.9206 17.653 13.6648 18.3578 14.409Z" fill="#E3BC30"/>
<path d="M21.9851 11.0269C22.5221 11.8725 23.2269 12.2108 23.6968 12.3799C24.2003 12.5829 25.7107 12.9549 26.9526 12.752C26.9526 12.752 26.3484 12.4137 26.1135 11.9063C25.8785 11.3989 25.6436 10.4857 25.5093 10.1136C25.3751 9.74148 25.1737 9.30175 24.8716 8.99731C24.6031 8.72671 24.1332 8.48993 23.8647 8.42228C23.4955 8.3208 23.0256 8.28697 22.757 8.38845C22.5557 8.4561 22.1529 8.62523 21.9515 8.99731C22.2871 8.96349 22.5557 8.96349 22.9584 9.06497C23.3612 9.13262 23.8311 9.43705 24.1667 9.84296C24.5024 10.2489 24.9052 11.0945 25.0394 11.3989C25.2072 11.7034 25.5093 12.1769 25.5093 12.1769C25.1065 11.9063 24.6031 10.8916 24.4017 10.5871C24.2339 10.3165 23.8647 9.84296 23.4283 9.57235C22.992 9.26792 22.2871 9.26792 22.0857 9.26792C21.9179 9.26792 21.4145 9.33557 20.8774 9.3694C21.0788 8.86201 21.3138 8.38845 21.3473 8.21932C21.4145 8.01637 21.6494 7.33985 21.5152 6.79864C21.3809 6.25742 21.1124 5.78386 20.911 5.51326C20.7096 5.24265 19.9376 4.397 19.8369 3.92344C19.8369 3.92344 20.139 4.39701 20.374 4.63379C20.6089 4.90439 21.2466 5.54708 21.5152 6.02064C21.7501 6.46038 21.8844 7.03542 21.8172 7.47515C21.7501 7.88106 21.683 8.15167 21.5487 8.48993C21.9515 8.42228 22.22 8.08402 22.3543 7.88106C22.5221 7.64428 22.6228 7.20455 22.6563 6.79864C22.6899 6.52803 22.6228 5.98682 22.455 5.61473C22.2871 5.20882 21.9179 4.87057 21.6494 4.63379C21.3809 4.39701 20.6089 3.85579 20.2397 3.44988C19.9041 2.97632 19.8034 2.2998 19.8034 2.2998C19.1992 3.44988 19.065 5.10735 19.0985 5.64856C19.0985 6.15595 19.1656 6.96777 19.7698 7.77959C20.374 8.55758 21.1124 8.55758 21.1124 8.55758C21.1124 8.55758 20.5082 9.5047 20.5754 9.60618C20.676 9.74148 21.7501 9.47088 21.7501 9.47088C21.7501 9.47088 21.4816 10.1812 21.9851 11.0269Z" fill="#E3BC30"/>
<path d="M25.9105 8.62531C26.2461 9.50478 26.8503 9.97835 27.2195 10.2151C27.6558 10.4857 28.9984 11.1622 30.1732 11.1961C30.1732 11.1961 29.7033 10.7563 29.569 10.249C29.4348 9.74156 29.4012 8.82827 29.3676 8.45618C29.3341 8.0841 29.1998 7.61054 28.9984 7.27228C28.797 6.96785 28.4278 6.66342 28.1929 6.52811C27.8572 6.35898 27.4545 6.25751 27.1859 6.25751C26.9846 6.29133 26.5818 6.32516 26.3468 6.66342C26.6489 6.69724 26.9174 6.76489 27.2531 6.9002C27.5887 7.06933 27.9915 7.40758 28.2264 7.84732C28.4614 8.28706 28.6628 9.1327 28.7299 9.47096C28.8306 9.80922 29.032 10.2828 29.032 10.2828C28.6963 9.94452 28.4278 8.89592 28.3271 8.59149C28.2264 8.28706 27.9915 7.81349 27.6223 7.44141C27.2866 7.06933 26.6153 6.93402 26.4475 6.9002C26.2797 6.86637 25.8098 6.79872 25.3063 6.76489C25.6084 6.32516 25.8769 5.91925 25.9776 5.78395C26.0783 5.61482 26.414 5.03978 26.414 4.49856C26.414 3.99118 26.2126 3.44996 26.1119 3.17936C25.9776 2.87493 25.4406 1.96163 25.4406 1.48807C25.4406 1.48807 25.642 1.96163 25.8098 2.26606C25.9776 2.57049 26.4475 3.31466 26.5818 3.78822C26.716 4.26178 26.716 4.803 26.5818 5.17508C26.4475 5.54716 26.3133 5.78395 26.1454 6.05455C26.5147 6.08838 26.8503 5.81777 26.9846 5.64864C27.1859 5.44569 27.3873 5.0736 27.488 4.70152C27.5552 4.46474 27.6223 3.92353 27.5216 3.58527C27.4209 3.17936 27.1859 2.77345 26.951 2.50284C26.716 2.23223 26.1119 1.58954 25.8434 1.11598C25.5413 0.743899 25.5749 0.0673828 25.5749 0.0673828C24.8029 1.01451 24.333 2.53667 24.2658 3.04405C24.1652 3.51762 24.0645 4.29561 24.4672 5.14125C24.87 5.9869 25.5413 6.1222 25.5413 6.1222C25.5413 6.1222 24.7693 6.86637 24.8364 7.00167C24.9036 7.13698 25.9441 7.10315 25.9441 7.10315C25.9441 7.10315 25.6084 7.74584 25.9105 8.62531Z" fill="#E3BC30"/>
<path d="M30.2425 3.04395C30.4103 2.84099 30.8131 2.60421 31.1823 2.50273C31.4508 2.40126 31.9543 2.3336 32.3571 2.40126C32.7934 2.46891 33.2297 2.70569 33.5654 2.90864C33.8675 3.1116 34.6394 3.72046 35.1429 3.95724C35.6464 4.19402 36.3177 4.1602 36.3177 4.1602C35.4114 4.97202 33.9346 5.51323 33.3976 5.64853C32.9277 5.75001 32.1221 5.88531 31.1823 5.51323C30.209 5.14115 29.974 4.46463 29.974 4.46463C29.974 4.46463 29.2692 5.2088 29.1685 5.2088C29.0678 5.2088 29.0342 4.97202 29.1013 4.90437C29.5712 4.53228 30.0747 4.12637 30.209 4.05872C30.3768 3.95724 30.9474 3.58516 31.4844 3.55133C32.0214 3.55133 32.592 3.68664 32.8941 3.82194C33.1962 3.95724 34.2702 4.46463 34.7401 4.4308C34.7401 4.4308 34.2031 4.22785 33.8675 4.09255C33.5318 3.92342 32.7263 3.48368 32.2228 3.34838C31.7194 3.21307 31.1488 3.2469 30.7795 3.41603C30.4103 3.55133 30.1754 3.72046 29.9069 3.92342C29.8733 3.55133 30.1083 3.21307 30.2425 3.04395Z" fill="#E3BC30"/>
<path d="M30.3438 3.00946C30.5116 2.84033 30.8472 2.63737 31.2164 2.5359C31.4514 2.46825 31.9548 2.36677 32.3576 2.43442C32.4247 2.43442 32.4583 2.46825 32.5254 2.46825C32.9618 2.56972 33.331 2.8065 33.5324 2.94181C33.6331 3.00946 33.7673 3.11094 33.9351 3.21241C34.2037 3.41537 34.5393 3.65215 34.8414 3.8551L34.8078 3.92275C34.5057 3.75363 34.1701 3.48302 33.9016 3.28006C33.7338 3.17859 33.5995 3.07711 33.4988 3.00946C33.2974 2.87416 32.8946 2.63737 32.4919 2.5359C32.4247 2.5359 32.3912 2.50207 32.324 2.50207C31.9548 2.43442 31.4178 2.50207 31.2164 2.60355C30.8808 2.70503 30.5451 2.90798 30.3773 3.07711L30.3438 3.00946Z" fill="#E3BC30"/>
<path d="M42.6248 78.1038C41.383 77.5964 39.1006 77.1905 37.221 76.2096C37.0532 76.0743 36.9189 76.0066 36.9189 76.0066C36.9189 76.0066 38.1608 75.4654 38.6307 73.8079C39.1006 72.1166 38.6978 70.7636 38.3957 69.9856C38.0601 69.1061 36.7511 66.6369 35.0393 65.25C35.0393 65.25 35.3078 66.4339 34.9386 67.3472C34.5694 68.2605 33.6296 69.6474 33.3275 70.2562C32.9919 70.8313 32.6562 71.6769 32.6227 72.4211C32.5891 73.0976 32.824 73.9771 33.059 74.4168C33.3611 75.0257 33.8645 75.6684 34.3009 75.9051C34.6365 76.1081 35.3078 76.4463 36.0127 76.2434C35.5763 75.8375 35.2742 75.4654 34.905 74.8565C34.5358 74.2477 34.3344 73.2667 34.4687 72.3534C34.6029 71.474 35.2407 69.9518 35.4421 69.3429C35.677 68.7679 35.912 67.7869 35.912 67.7869C36.0462 68.6326 35.3078 70.5268 35.14 71.1019C34.9722 71.6769 34.8043 72.6579 34.9386 73.605C35.0729 74.5183 35.912 75.4316 36.1133 75.7022C36.3147 75.9051 36.986 76.514 37.6573 77.1905C36.7511 77.495 35.8784 77.7994 35.6099 77.9347C35.3078 78.07 34.133 78.5774 33.596 79.3892C33.059 80.1672 32.7569 81.1481 32.6227 81.7232C32.522 82.2982 32.287 84.2939 31.8171 85.0381C31.8171 85.0381 32.0521 84.091 32.1192 83.4483C32.1863 82.8394 32.287 81.2158 32.5891 80.3363C32.8912 79.4907 33.4953 78.6789 34.0995 78.2391C34.7036 77.8332 35.1735 77.5964 35.7441 77.4273C35.2071 76.9876 34.4351 77.0214 34.0324 77.089C33.5289 77.1567 32.7905 77.5288 32.2534 77.9685C31.8507 78.2729 31.2465 78.9833 30.978 79.5922C30.6759 80.3025 30.6088 81.182 30.6424 81.8247C30.6759 82.4673 30.8773 84.091 30.8102 85.0719C30.7095 86.0529 29.9375 87 29.9375 87C32.1192 86.425 34.4351 84.666 35.14 83.9895C35.7777 83.3806 36.7846 82.332 37.0867 80.6069C37.4224 78.9156 36.5497 77.9347 36.5497 77.9347C36.5497 77.9347 37.1874 77.7994 37.6573 77.7656C39.9397 77.7317 41.8193 78.1715 43.4304 79.0509C45.7128 80.3025 47.2567 83.8542 49.1363 84.7675C50.8481 85.6131 54.708 85.3764 54.708 85.3764C51.6201 84.5645 46.2162 79.626 42.6248 78.1038Z" fill="#E3BC30"/>
<path d="M61.4892 69.5458C60.7172 68.0574 60.8179 66.7382 60.9522 65.9264C61.0864 65.0469 61.8249 62.4762 63.1339 60.8525C63.1339 60.8525 63.1339 62.0026 63.6373 62.7806C64.1408 63.5586 65.282 64.6749 65.7183 65.1484C66.1211 65.622 66.6246 66.3323 66.7924 67.0088C66.9602 67.6177 66.8931 68.4972 66.7924 68.9369C66.6246 69.5796 66.2889 70.2561 65.9533 70.5605C65.6848 70.7973 65.1142 71.2709 64.4429 71.2371C64.745 70.7973 64.9799 70.3914 65.2149 69.7487C65.4162 69.106 65.4162 68.1589 65.1142 67.3471C64.8121 66.5353 63.9394 65.2499 63.6038 64.7425C63.2681 64.2351 62.8653 63.3895 62.8653 63.3895C62.8989 64.2013 63.973 65.8249 64.2079 66.3323C64.4764 66.8397 64.8121 67.7192 64.8792 68.5987C64.9463 69.4781 64.3422 70.4929 64.1744 70.7635C64.0401 71.0003 63.5366 71.7106 63.0332 72.4548C63.9394 72.5563 64.8121 72.6578 65.0806 72.7254C65.3827 72.7931 66.591 73.0298 67.2623 73.6725C67.9336 74.3152 68.4035 75.127 68.6048 75.6344C68.8398 76.1418 69.4104 77.9684 70.0146 78.5434C70.0146 78.5434 69.6118 77.6978 69.444 77.1228C69.2761 76.5477 68.8398 75.0594 68.4035 74.3152C67.9671 73.571 67.2287 72.9284 66.591 72.6578C65.9533 72.3871 65.4834 72.2857 64.9128 72.218C65.3155 71.7106 66.054 71.5753 66.4232 71.5753C66.8931 71.5415 67.665 71.7445 68.2692 72.0489C68.672 72.2518 69.4104 72.7592 69.7796 73.3004C70.1824 73.8755 70.4173 74.6873 70.518 75.33C70.6187 75.9389 70.753 77.4948 71.0215 78.3743C71.29 79.2538 72.1962 79.998 72.1962 79.998C70.0481 79.8965 67.5644 78.7126 66.7924 78.239C66.0875 77.7993 64.9463 77.0213 64.3086 75.4653C63.6709 73.9431 64.3086 72.8607 64.3086 72.8607C64.3086 72.8607 62.429 72.9622 62.3619 72.7592C62.2612 72.4886 63.5366 71.1694 63.5366 71.1694C63.5366 71.1694 62.2612 71.0003 61.4892 69.5458Z" fill="#E3BC30"/>
<path d="M68.3021 64.0665C67.2952 62.8488 67.1273 61.5973 67.0938 60.8193C67.0602 59.9736 67.228 57.4367 68.1343 55.6777C68.1343 55.6777 68.3357 56.7263 68.9734 57.369C69.6111 57.9779 70.8865 58.7897 71.3564 59.1618C71.8264 59.5339 72.4305 60.0751 72.7326 60.684C73.0011 61.2252 73.1354 62.037 73.1018 62.4767C73.0682 63.0856 72.9004 63.7959 72.6319 64.168C72.4305 64.4386 71.9942 64.9798 71.3564 65.0813C71.5578 64.6078 71.6921 64.168 71.7592 63.5253C71.8263 62.8826 71.625 62.0032 71.2222 61.3267C70.7859 60.6501 69.7118 59.6015 69.309 59.2294C68.9062 58.8235 68.3692 58.1132 68.3692 58.1132C68.5706 58.8574 69.8796 60.1427 70.2153 60.5825C70.5509 60.9884 71.0544 61.7664 71.2893 62.5782C71.5243 63.39 71.1551 64.4386 71.0879 64.7431C71.0208 64.9798 70.6852 65.7578 70.3495 66.5358C71.2222 66.4682 72.0277 66.3667 72.2962 66.4005C72.5983 66.4005 73.7395 66.4005 74.4779 66.8403C75.2163 67.28 75.8205 67.9903 76.1226 68.3963C76.4247 68.836 77.3309 70.392 78.0022 70.8317C78.0022 70.8317 77.4652 70.1214 77.1966 69.6478C76.9281 69.1742 76.2233 67.855 75.6863 67.2462C75.1157 66.6373 74.3101 66.1976 73.6724 66.0961C73.0347 65.9608 72.5648 65.9608 72.0277 66.0284C72.2963 65.4534 72.9675 65.2166 73.3032 65.1151C73.7395 64.9798 74.4779 65.0475 75.1157 65.1828C75.552 65.2843 76.324 65.6225 76.7603 66.0623C77.2638 66.5358 77.633 67.2462 77.8344 67.7874C78.0693 68.3286 78.4721 69.7493 78.8749 70.5273C79.3112 71.3053 80.2846 71.8127 80.2846 71.8127C78.2707 72.1509 75.7198 71.5421 74.9143 71.2714C74.1423 71.0008 72.9675 70.4935 72.0613 69.2081C71.1886 67.9227 71.5578 66.8064 71.5578 66.8064C71.5578 66.8064 69.8461 67.28 69.7454 67.1109C69.6111 66.8741 70.5509 65.4196 70.5509 65.4196C70.5509 65.4196 69.309 65.2504 68.3021 64.0665Z" fill="#E3BC30"/>
<path d="M73.6405 57.7412C72.4657 56.7941 72.063 55.6779 71.8951 54.9675C71.6938 54.1895 71.3581 51.8217 71.8616 49.9951C71.8616 49.9951 72.2643 50.9422 72.9692 51.382C73.6741 51.8217 75.0166 52.3291 75.5201 52.5659C76.0236 52.8027 76.6948 53.2086 77.0976 53.716C77.4668 54.1557 77.7353 54.8999 77.8025 55.3058C77.9032 55.8808 77.8696 56.5912 77.7018 56.9632C77.5675 57.2677 77.2654 57.8427 76.6949 58.0795C76.7955 57.5721 76.8291 57.1662 76.762 56.5573C76.6948 55.9485 76.3592 55.1705 75.8222 54.6293C75.2851 54.088 74.0768 53.3439 73.6405 53.0394C73.2042 52.735 72.5664 52.1938 72.5664 52.1938C72.9021 52.8365 74.3453 53.7836 74.7481 54.1219C75.1509 54.4263 75.755 55.0352 76.1243 55.7455C76.4935 56.4559 76.3592 57.5045 76.3592 57.8089C76.3256 58.0457 76.1914 58.8237 76.0236 59.6355C76.8291 59.3987 77.5675 59.1619 77.8025 59.0943C78.1046 59.0266 79.1451 58.7898 79.917 59.0604C80.689 59.331 81.3939 59.8384 81.7631 60.2105C82.1323 60.5488 83.2735 61.8342 83.9783 62.0709C83.9783 62.0709 83.3406 61.5297 83.005 61.1238C82.6357 60.7179 81.7631 59.6355 81.1253 59.1957C80.4876 58.756 79.6485 58.4854 79.0108 58.5192C78.3731 58.5192 77.9703 58.6207 77.4668 58.7898C77.6011 58.2148 78.1717 57.8427 78.4738 57.7074C78.843 57.5045 79.5478 57.403 80.152 57.403C80.5883 57.403 81.3603 57.5721 81.8638 57.8765C82.4008 58.2148 82.9043 58.7898 83.2063 59.2634C83.5084 59.737 84.1797 60.9547 84.7167 61.5974C85.2538 62.2062 86.2607 62.5107 86.2607 62.5107C84.4482 63.221 81.9645 63.1872 81.1589 63.0519C80.4205 62.9504 79.2122 62.7136 78.1046 61.6989C77.0305 60.6841 77.1648 59.5678 77.1648 59.5678C77.1648 59.5678 75.6544 60.3458 75.5201 60.2105C75.3523 60.0414 75.9229 58.4854 75.9229 58.4854C75.9229 58.4854 74.7817 58.6545 73.6405 57.7412Z" fill="#E3BC30"/>
<path d="M77.4671 50.8735C76.1917 50.2308 75.6211 49.2498 75.2854 48.641C74.9498 47.9645 74.1778 45.7996 74.2785 44.0068C74.2785 44.0068 74.8491 44.8187 75.5875 45.0893C76.3259 45.3599 77.6685 45.5628 78.2055 45.6981C78.7426 45.8334 79.4139 46.0702 79.8838 46.4423C80.3201 46.7806 80.6893 47.4232 80.8571 47.7953C81.0585 48.3027 81.1592 48.9792 81.0921 49.3513C81.025 49.6558 80.8571 50.2646 80.3872 50.5691C80.3872 50.0955 80.3537 49.6896 80.1523 49.1484C79.9845 48.6072 79.5146 47.9306 78.8768 47.5247C78.2727 47.1188 76.9972 46.6791 76.5273 46.4761C76.0574 46.307 75.3526 45.9011 75.3526 45.9011C75.7889 46.4423 77.3329 47.0173 77.7692 47.2541C78.2055 47.4571 78.8768 47.8968 79.3803 48.5057C79.8502 49.0807 79.9509 50.0955 79.9845 50.3661C80.018 50.6029 80.018 51.347 80.018 52.125C80.7229 51.753 81.3606 51.3809 81.562 51.2794C81.8305 51.1779 82.7703 50.7382 83.5423 50.8397C84.3143 50.9411 85.0527 51.2794 85.4555 51.5162C85.8582 51.753 87.1672 52.7339 87.8721 52.8016C87.8721 52.8016 87.1672 52.4295 86.7645 52.125C86.3617 51.8206 85.3212 51.0088 84.6499 50.7044C83.9786 50.3999 83.1395 50.3323 82.5689 50.5014C81.9983 50.6367 81.5956 50.8058 81.1928 51.0426C81.2263 50.4676 81.6627 50.0278 81.9312 49.8249C82.2333 49.5543 82.871 49.3175 83.4416 49.216C83.8444 49.1484 84.5828 49.1484 85.1198 49.3175C85.6904 49.5205 86.261 49.9602 86.6302 50.3323C86.9994 50.7044 87.8721 51.7191 88.5098 52.1927C89.1475 52.6663 90.1209 52.7339 90.1209 52.7339C88.577 53.7487 86.261 54.1884 85.489 54.2561C84.7842 54.3237 83.6094 54.3575 82.3675 53.6134C81.1592 52.903 81.0585 51.8206 81.0585 51.8206C81.0585 51.8206 79.8166 52.8354 79.6488 52.7339C79.4474 52.5986 79.6824 51.0426 79.6824 51.0426C79.6824 51.0426 78.709 51.4823 77.4671 50.8735Z" fill="#E3BC30"/>
<path d="M79.8158 43.8051C78.5068 43.4668 77.7683 42.6888 77.3656 42.1476C76.8957 41.5726 75.7545 39.746 75.5195 38.0547C75.5195 38.0547 76.1908 38.6974 76.9292 38.7989C77.6677 38.9003 78.9767 38.8327 79.4801 38.8327C79.9836 38.8327 80.6884 38.9342 81.1919 39.2048C81.6618 39.4415 82.1317 39.9489 82.3331 40.2534C82.6016 40.6931 82.8366 41.2681 82.8366 41.6741C82.8366 41.9785 82.803 42.5535 82.4002 42.9594C82.2995 42.5197 82.1988 42.1476 81.8968 41.6741C81.6283 41.2005 81.0577 40.6931 80.4199 40.4225C79.7822 40.1519 78.5068 40.0166 78.0369 39.9151C77.567 39.8475 76.8285 39.6107 76.8285 39.6107C77.332 40.0166 78.876 40.2534 79.3123 40.3887C79.7486 40.4901 80.4871 40.7608 81.0577 41.2343C81.6283 41.6741 81.8968 42.5874 81.9975 42.858C82.0646 43.0609 82.1988 43.7713 82.3667 44.4816C82.9373 43.9742 83.4407 43.5345 83.6421 43.3992C83.8435 43.23 84.649 42.655 85.3875 42.5873C86.1259 42.5197 86.8979 42.6888 87.3006 42.858C87.737 42.9933 89.1467 43.636 89.818 43.6021C89.818 43.6021 89.0795 43.3653 88.6432 43.1962C88.2069 42.9933 87.0992 42.452 86.3944 42.3167C85.7231 42.1814 84.9176 42.2829 84.4141 42.5197C83.9106 42.7565 83.575 42.9933 83.2393 43.2977C83.1386 42.7565 83.4743 42.2491 83.6757 42.0123C83.9106 41.7079 84.4477 41.3696 84.9511 41.1328C85.2868 40.9975 86.0252 40.8284 86.5286 40.8961C87.0992 40.9637 87.7034 41.2681 88.1397 41.5387C88.5761 41.8094 89.5494 42.5873 90.2543 42.8918C90.9256 43.1962 91.8654 43.0609 91.8654 43.0609C90.6235 44.3125 88.5761 45.1919 87.8712 45.3949C87.1999 45.5979 86.1259 45.8346 84.8504 45.3949C83.6086 44.9552 83.2729 43.9742 83.2729 43.9742C83.2729 43.9742 82.3331 45.1581 82.1653 45.0905C81.9639 45.0228 81.8632 43.5006 81.8632 43.5006C81.8632 43.5006 81.1248 44.1095 79.8158 43.8051Z" fill="#E3BC30"/>
<path d="M80.7877 36.8032C79.5122 36.7694 78.6731 36.1605 78.1697 35.7546C77.6326 35.3149 76.2229 33.8265 75.6523 32.3044C75.6523 32.3044 76.3908 32.7441 77.1292 32.7103C77.834 32.6764 79.0088 32.3382 79.5122 32.2367C79.9821 32.1352 80.6534 32.1014 81.1569 32.2367C81.6268 32.372 82.1974 32.7441 82.4323 32.9809C82.8016 33.353 83.1036 33.8265 83.2043 34.1986C83.2715 34.4692 83.3386 35.0442 83.0701 35.484C82.9022 35.0781 82.7009 34.7736 82.3652 34.4016C82.0296 33.9956 81.3919 33.6574 80.7541 33.5221C80.1164 33.4206 78.9081 33.5221 78.4382 33.5221C77.9683 33.5559 77.2634 33.4883 77.2634 33.4883C77.834 33.7589 79.3109 33.6912 79.7472 33.6912C80.1835 33.725 80.8884 33.8265 81.5261 34.1309C82.1303 34.4354 82.6002 35.2472 82.7009 35.4502C82.8016 35.6193 83.0701 36.2281 83.3721 36.8708C83.8085 36.2958 84.2113 35.7546 84.3455 35.5855C84.5133 35.4163 85.1175 34.706 85.8223 34.503C86.4936 34.3001 87.2321 34.3001 87.6684 34.3677C88.1047 34.4016 89.548 34.7398 90.1522 34.5369C90.1522 34.5369 89.4473 34.4692 88.9774 34.3677C88.5411 34.2663 87.3663 33.9956 86.7286 33.9956C86.0573 33.9956 85.3524 34.2663 84.9161 34.6045C84.4798 34.9428 84.2448 35.2134 83.9763 35.5516C83.7749 35.0781 84.0099 34.5369 84.1441 34.2663C84.3119 33.928 84.7483 33.4883 85.1511 33.2177C85.4531 33.0147 86.0909 32.7441 86.5943 32.6764C87.1314 32.6426 87.7691 32.7779 88.239 32.947C88.6753 33.1162 89.7494 33.6236 90.4542 33.7927C91.1591 33.9618 91.9982 33.6236 91.9982 33.6236C91.092 35.0442 89.3466 36.262 88.7424 36.6002C88.1719 36.9047 87.2321 37.3782 85.9566 37.2091C84.7147 37.04 84.2448 36.2281 84.2448 36.2281C84.2448 36.2281 83.6071 37.5135 83.4393 37.5135C83.2379 37.4797 82.8351 36.0928 82.8351 36.0928C82.8351 36.0928 82.0631 36.837 80.7877 36.8032Z" fill="#E3BC30"/>
<path d="M80.4865 30.1382C79.2782 30.3412 78.4055 29.9691 77.8685 29.6985C77.2979 29.3941 75.6868 28.3116 74.8477 26.9924C74.8477 26.9924 75.6196 27.263 76.2909 27.0939C76.9622 26.9248 77.9691 26.3497 78.4055 26.1806C78.8418 26.0115 79.446 25.8085 79.9494 25.8424C80.4193 25.8762 81.0235 26.113 81.292 26.2821C81.6948 26.5527 82.0976 26.9248 82.2318 27.263C82.3325 27.4998 82.5339 28.0072 82.3325 28.4808C82.0976 28.1425 81.8626 27.9057 81.4598 27.6013C81.0571 27.2969 80.4193 27.0939 79.7816 27.1277C79.1439 27.1616 78.0698 27.4998 77.6335 27.6013C77.1972 27.7028 76.5259 27.8043 76.5259 27.8043C77.0965 27.9396 78.4726 27.5675 78.8754 27.4998C79.2782 27.4322 79.983 27.3984 80.6207 27.5675C81.2585 27.7366 81.8291 28.3793 81.9633 28.5484C82.0976 28.6837 82.4668 29.2249 82.8695 29.7323C83.1716 29.1235 83.4066 28.5484 83.5408 28.3455C83.6751 28.1425 84.1114 27.3645 84.682 27.0263C85.2526 26.688 85.9575 26.5527 86.3602 26.5189C86.763 26.4851 88.1727 26.4851 88.7098 26.1806C88.7098 26.1806 88.0385 26.2821 87.6021 26.2483C87.1658 26.2483 86.0246 26.2144 85.4204 26.3497C84.8163 26.4851 84.2121 26.8571 83.8765 27.263C83.5408 27.669 83.373 27.9734 83.2052 28.3455C82.9367 27.9396 83.0374 27.3983 83.1045 27.1277C83.2052 26.7895 83.5073 26.3159 83.8429 25.9438C84.0779 25.7071 84.6149 25.3011 85.0512 25.1658C85.5547 24.9967 86.1589 25.0305 86.6288 25.0982C87.0651 25.1658 88.1727 25.4365 88.844 25.4365C89.5153 25.4365 90.2202 24.9629 90.2202 24.9629C89.6496 26.4512 88.2734 27.9396 87.77 28.3793C87.3001 28.7852 86.4945 29.3941 85.2862 29.4955C84.1114 29.597 83.4737 28.9205 83.4737 28.9205C83.4737 28.9205 83.1381 30.2735 82.9702 30.2735C82.7689 30.2735 82.1311 29.0896 82.1311 29.0896C82.1311 29.0896 81.6612 29.9353 80.4865 30.1382Z" fill="#E3BC30"/>
<path d="M79.0785 24.0841C78.0044 24.5239 77.0982 24.3548 76.5612 24.1856C75.957 24.0165 74.2452 23.34 73.2383 22.2914C73.2383 22.2914 74.0103 22.3929 74.5809 22.0884C75.1514 21.784 75.9906 21.0736 76.3598 20.803C76.729 20.5663 77.2324 20.2618 77.7359 20.1942C78.1722 20.1265 78.7764 20.228 79.0785 20.3295C79.5148 20.4986 79.9512 20.7692 80.1525 21.0398C80.2868 21.2428 80.5889 21.6825 80.4882 22.1561C80.1861 21.8855 79.9512 21.7163 79.5148 21.5134C79.0785 21.3104 78.4408 21.2428 77.8702 21.4119C77.2996 21.5472 76.3598 22.0884 75.9906 22.2914C75.6213 22.4943 75.0172 22.6973 75.0172 22.6973C75.5878 22.7311 76.7625 22.1223 77.1317 21.9531C77.501 21.8178 78.1387 21.6149 78.7428 21.6487C79.347 21.6825 80.0183 22.1561 80.1861 22.2914C80.3539 22.3929 80.7903 22.7988 81.2602 23.2047C81.3944 22.562 81.5287 21.9869 81.5958 21.784C81.6629 21.581 81.9315 20.7692 82.4014 20.3295C82.8713 19.9236 83.509 19.653 83.8782 19.5177C84.2474 19.3824 85.5564 19.1118 85.9927 18.7397C85.9927 18.7397 85.3886 18.9426 84.9858 19.0441C84.583 19.1456 83.5425 19.3147 82.9719 19.5515C82.4349 19.8221 81.9314 20.2618 81.6965 20.7016C81.4615 21.1413 81.3609 21.4457 81.2602 21.8516C80.9245 21.5134 80.9245 21.006 80.9245 20.7354C80.9245 20.3971 81.1259 19.8897 81.3944 19.4838C81.5622 19.2132 81.965 18.7397 82.3678 18.5029C82.8041 18.2661 83.3747 18.1646 83.8111 18.1308C84.2474 18.097 85.3215 18.1308 85.9592 17.9955C86.5969 17.8602 87.1675 17.2852 87.1675 17.2852C86.9325 18.7735 85.9592 20.431 85.5564 20.9383C85.1872 21.4119 84.583 22.1223 83.4754 22.4605C82.4014 22.7988 81.6965 22.2914 81.6965 22.2914C81.6965 22.2914 81.6294 23.6106 81.4951 23.6444C81.2937 23.7121 80.4882 22.6973 80.4882 22.6973C80.4882 22.6973 80.119 23.6782 79.0785 24.0841Z" fill="#E3BC30"/>
<path d="M76.695 18.8078C75.7887 19.4167 74.916 19.4505 74.379 19.4167C73.7749 19.3829 72.0631 19.0784 70.9219 18.3004C70.9219 18.3004 71.6603 18.2328 72.1302 17.8269C72.6001 17.421 73.2378 16.6091 73.5399 16.3047C73.842 16.0003 74.2447 15.6282 74.6811 15.4591C75.0839 15.2899 75.6545 15.2899 75.9565 15.3238C76.3929 15.3914 76.8628 15.5605 77.0977 15.7635C77.2655 15.9326 77.6348 16.2709 77.6348 16.7106C77.2991 16.5415 77.0306 16.4062 76.5943 16.3047C76.1579 16.2032 75.5538 16.2709 75.0167 16.5415C74.5133 16.7783 73.7413 17.4886 73.4392 17.7254C73.1371 17.9622 72.6001 18.3004 72.6001 18.3004C73.1371 18.199 74.1105 17.3871 74.4126 17.1842C74.7147 16.9812 75.2852 16.6768 75.8558 16.5753C76.4264 16.4738 77.1313 16.8121 77.3327 16.8797C77.5005 16.9474 78.004 17.2518 78.5074 17.5224C78.5074 16.9136 78.5074 16.3385 78.541 16.1356C78.5746 15.9326 78.6417 15.1208 79.0109 14.6134C79.3801 14.1399 79.8836 13.7678 80.2192 13.5648C80.5549 13.3957 81.696 12.8545 82.0317 12.4147C82.0317 12.4147 81.4947 12.753 81.159 12.8883C80.7898 13.0574 79.85 13.4295 79.4137 13.7678C78.9438 14.106 78.6081 14.6472 78.4739 15.087C78.3396 15.5267 78.306 15.865 78.306 16.2371C77.9368 16.0003 77.8026 15.5267 77.769 15.2899C77.7019 14.9855 77.8026 14.4781 77.9368 14.0384C78.0375 13.7339 78.3396 13.2266 78.6752 12.956C79.0445 12.6515 79.5479 12.4486 79.9507 12.3133C80.3535 12.2118 81.3604 12.0088 81.8974 11.772C82.468 11.5353 82.8708 10.8926 82.8708 10.8926C82.9379 12.3133 82.3673 14.0722 82.0988 14.6134C81.8639 15.1208 81.4275 15.9326 80.4542 16.44C79.5144 16.9474 78.7424 16.643 78.7424 16.643C78.7424 16.643 78.9438 17.8607 78.8095 17.9283C78.6417 18.0298 77.7019 17.2518 77.7019 17.2518C77.7019 17.2518 77.6012 18.199 76.695 18.8078Z" fill="#E3BC30"/>
<path d="M73.6077 14.4099C72.8693 15.1879 72.0638 15.3571 71.5603 15.4247C71.0233 15.5262 69.345 15.56 68.1367 15.0864C68.1367 15.0864 68.808 14.8835 69.1772 14.4099C69.5464 13.9364 69.9828 13.0569 70.1842 12.6848C70.3855 12.3466 70.7212 11.9068 71.0904 11.67C71.426 11.4333 71.9631 11.298 72.2316 11.298C72.6343 11.2641 73.1043 11.3656 73.3728 11.5009C73.5742 11.6024 73.9434 11.873 74.0441 12.2789C73.7084 12.1774 73.4399 12.1098 73.0036 12.1098C72.5672 12.1098 72.0302 12.3127 71.5939 12.6172C71.1575 12.9554 70.5869 13.7334 70.352 14.0378C70.117 14.3423 69.6807 14.7482 69.6807 14.7482C70.1506 14.5452 70.9226 13.5981 71.1575 13.3613C71.3925 13.1245 71.8624 12.7186 72.3994 12.5157C72.9029 12.3127 73.6413 12.4819 73.8427 12.5157C74.0105 12.5495 74.514 12.7186 75.051 12.8878C74.9503 12.3127 74.8496 11.7715 74.816 11.6024C74.7825 11.3994 74.7153 10.6214 74.9503 10.1141C75.1852 9.60667 75.588 9.1331 75.8565 8.93015C76.1251 8.69337 77.0984 7.98303 77.2998 7.50947C77.2998 7.50947 76.8635 7.91538 76.5614 8.11833C76.2593 8.32129 75.4538 8.8625 75.0846 9.30223C74.7153 9.70814 74.4804 10.2832 74.4468 10.7229C74.4133 11.1627 74.4468 11.4671 74.514 11.8392C74.1112 11.7039 73.9098 11.2641 73.8427 11.0612C73.742 10.7906 73.7084 10.2832 73.7755 9.87727C73.8091 9.57284 73.9769 9.03163 74.2454 8.7272C74.514 8.35511 74.9503 8.05068 75.2859 7.88155C75.6216 7.71242 76.5278 7.34034 76.9977 7.00208C77.4676 6.66382 77.7361 5.9873 77.7361 5.9873C78.1054 7.30651 77.8704 9.03163 77.7361 9.60667C77.6019 10.1141 77.3669 10.9597 76.5614 11.6362C75.7894 12.3127 75.0174 12.1436 75.0174 12.1436C75.0174 12.1436 75.4538 13.2599 75.3531 13.3275C75.2188 13.429 74.1783 12.9216 74.1783 12.9216C74.1783 12.9216 74.3126 13.6658 73.6077 14.4099Z" fill="#E3BC30"/>
<path d="M69.9832 11.0272C69.4461 11.8729 68.7413 12.2111 68.2714 12.3803C67.7679 12.5832 66.2575 12.9553 65.0156 12.7523C65.0156 12.7523 65.6198 12.4141 65.8547 11.9067C66.0897 11.3993 66.3246 10.486 66.4589 10.1139C66.5932 9.74184 66.7945 9.3021 67.0966 8.99767C67.3651 8.72706 67.835 8.49028 68.1035 8.42263C68.4728 8.32115 68.9427 8.28733 69.2112 8.38881C69.4126 8.45646 69.8153 8.62559 70.0167 8.99767C69.6811 8.96385 69.4126 8.96385 69.0098 9.06532C68.607 9.13297 68.1371 9.43741 67.8015 9.84332C67.4658 10.2492 67.0966 11.0949 66.9288 11.3993C66.761 11.7037 66.4589 12.1773 66.4589 12.1773C66.8617 11.9067 67.3987 10.8919 67.5665 10.5875C67.7343 10.3169 68.1035 9.84332 68.5399 9.57271C68.9762 9.26828 69.6811 9.26828 69.8825 9.26828C70.0503 9.26828 70.5537 9.33593 71.0908 9.36975C70.8894 8.86237 70.6544 8.38881 70.6209 8.21968C70.5537 8.01672 70.3188 7.34021 70.4531 6.79899C70.5873 6.25778 70.8558 5.78422 71.0572 5.51361C71.2586 5.24301 72.0306 4.39736 72.1313 3.9238C72.1313 3.9238 71.8292 4.39736 71.5942 4.63414C71.3593 4.90475 70.7216 5.54744 70.4531 6.021C70.2181 6.46073 70.0838 7.03577 70.151 7.47551C70.2181 7.88142 70.2852 8.15203 70.4195 8.49028C70.0167 8.42263 69.7482 8.08437 69.6139 7.88142C69.4461 7.64464 69.3454 7.2049 69.3119 6.79899C69.2783 6.52839 69.3454 5.98717 69.5133 5.61509C69.6811 5.20918 70.0503 4.87092 70.3188 4.63414C70.5873 4.39736 71.3593 3.85615 71.7285 3.45024C72.0977 3.04433 72.1984 2.33398 72.1984 2.33398C72.8026 3.48406 72.9368 5.14153 72.9033 5.68274C72.9033 6.19013 72.8361 7.00195 72.232 7.81377C71.6278 8.59176 70.8894 8.59176 70.8894 8.59176C70.8894 8.59176 71.4935 9.53888 71.4264 9.64036C71.3257 9.77566 70.2517 9.50506 70.2517 9.50506C70.2517 9.50506 70.4866 10.1816 69.9832 11.0272Z" fill="#E3BC30"/>
<path d="M66.0556 8.62558C65.72 9.50505 65.1158 9.97862 64.7466 10.2154C64.3103 10.486 62.9677 11.1625 61.793 11.1963C61.793 11.1963 62.2629 10.7566 62.3971 10.2492C62.5314 9.74184 62.5649 8.82854 62.5985 8.45645C62.6321 8.08437 62.7663 7.61081 62.9677 7.27255C63.1691 6.96812 63.5383 6.66369 63.7733 6.52838C64.1089 6.35925 64.5117 6.25778 64.7802 6.25778C64.9816 6.2916 65.3843 6.32543 65.6193 6.66369C65.3172 6.69751 65.0487 6.76516 64.7131 6.90047C64.3774 7.0696 63.9746 7.40785 63.7397 7.84759C63.5047 8.28733 63.3034 9.13297 63.2362 9.47123C63.1355 9.80949 62.9342 10.283 62.9342 10.283C63.2698 9.94479 63.5383 8.89619 63.639 8.59176C63.7397 8.28733 63.9746 7.81376 64.3439 7.44168C64.6795 7.0696 65.3508 6.93429 65.5186 6.90047C65.6864 6.86664 66.1563 6.79899 66.6598 6.76516C66.3577 6.32543 66.0892 5.91952 65.9885 5.78421C65.8878 5.61509 65.5522 5.04005 65.5522 4.49883C65.5522 3.99145 65.7536 3.45023 65.8542 3.17963C65.9885 2.87519 66.5255 1.9619 66.5255 1.48834C66.5255 1.48834 66.3241 1.9619 66.1563 2.26633C65.9885 2.57076 65.5186 3.31493 65.3843 3.78849C65.2501 4.26205 65.2501 4.80327 65.3843 5.17535C65.5186 5.54743 65.6529 5.78422 65.8542 6.05482C65.485 6.08865 65.1494 5.81804 65.0151 5.64891C64.8138 5.44596 64.6124 5.07387 64.5117 4.70179C64.4445 4.46501 64.3774 3.92379 64.4781 3.58554C64.5788 3.17963 64.8138 2.77372 65.0487 2.50311C65.2501 2.2325 65.8878 1.58981 66.1563 1.11625C66.4248 0.676516 66.3913 0 66.3913 0C67.1633 0.947123 67.6332 2.46928 67.7003 2.97667C67.801 3.45023 67.9017 4.22823 67.4989 5.07387C67.0961 5.91952 66.4248 6.05482 66.4248 6.05482C66.4248 6.05482 67.1968 6.79899 67.1297 6.93429C67.0626 7.0696 66.0221 7.03577 66.0221 7.03577C66.0221 7.03577 66.3577 7.74611 66.0556 8.62558Z" fill="#E3BC30"/>
<path d="M61.7252 3.04492C61.5574 2.84197 61.1546 2.60519 60.7854 2.50371C60.5169 2.40223 60.0134 2.33458 59.6106 2.40223C59.1743 2.46988 58.738 2.70666 58.4023 2.90962C58.1002 3.11257 57.3283 3.72144 56.8583 3.95822C56.3549 4.195 55.6836 4.16117 55.6836 4.16117C56.5898 4.97299 58.0667 5.51421 58.6037 5.64951C59.0736 5.75099 59.8791 5.88629 60.819 5.51421C61.7588 5.14212 61.9937 4.46561 61.9937 4.46561C61.9937 4.46561 62.6986 5.20977 62.7993 5.20977C62.8999 5.20977 62.9335 4.97299 62.8664 4.90534C62.3965 4.53326 61.893 4.12735 61.7588 4.0597C61.5909 3.95822 61.0203 3.58614 60.4833 3.55231C59.9463 3.55231 59.3757 3.68761 59.0736 3.82292C58.7715 3.95822 57.6975 4.46561 57.2276 4.43178C57.2276 4.43178 57.7646 4.22883 58.0667 4.09352C58.4023 3.92439 59.2079 3.48466 59.7449 3.34935C60.2484 3.21405 60.819 3.24788 61.1882 3.41701C61.5574 3.55231 61.7923 3.72144 62.0608 3.92439C62.0944 3.55231 61.8594 3.21405 61.7252 3.04492Z" fill="#E3BC30"/>
<path d="M61.6265 3.01043C61.4251 2.84131 61.1231 2.63835 60.7539 2.53687C60.5189 2.46922 60.0154 2.36774 59.6127 2.4354C59.5455 2.4354 59.512 2.46922 59.4449 2.46922C59.0085 2.5707 58.6057 2.80748 58.4379 2.94278C58.3372 3.01043 58.203 3.11191 58.0351 3.21339C57.7666 3.41634 57.431 3.65313 57.1289 3.85608L57.1625 3.92373C57.4646 3.7546 57.8002 3.484 58.0687 3.28104C58.2365 3.17956 58.3708 3.07809 58.4715 3.01043C58.6729 2.87513 59.0756 2.63835 59.4784 2.53687C59.5455 2.53687 59.5791 2.50305 59.6462 2.50305C60.0154 2.4354 60.5525 2.50305 60.7539 2.60453C61.0895 2.706 61.4251 2.90896 61.593 3.07809L61.6265 3.01043Z" fill="#E3BC30"/>
<path d="M49.3394 78.1038C50.5813 77.5964 52.8637 77.1905 54.7433 76.2096C54.9111 76.0743 55.0453 76.0066 55.0453 76.0066C55.0453 76.0066 53.8035 75.4654 53.3336 73.8079C52.8637 72.1166 53.2664 70.7636 53.5685 69.9856C53.9042 69.1061 55.2132 66.6369 56.9249 65.25C56.9249 65.25 56.6564 66.4339 57.0256 67.3472C57.3948 68.2605 58.3346 69.6474 58.6367 70.2562C58.9388 70.8313 59.308 71.6769 59.3416 72.4211C59.3751 73.0976 59.1402 73.9771 58.9052 74.4168C58.6032 75.0257 58.0997 75.6684 57.6634 75.9051C57.3277 76.1081 56.6564 76.4463 55.9516 76.2434C56.3879 75.8375 56.69 75.4654 57.0592 74.8565C57.4284 74.2477 57.6298 73.2667 57.4955 72.3534C57.3613 71.474 56.7236 69.9518 56.5222 69.3429C56.2872 68.7679 56.0523 67.7869 56.0523 67.7869C55.918 68.6326 56.6564 70.5268 56.8243 71.1019C56.9921 71.6769 57.1599 72.6579 57.0256 73.605C56.8914 74.5183 56.0523 75.4316 55.8509 75.7022C55.6495 75.9051 54.9782 76.514 54.3069 77.1905C55.2132 77.495 56.0858 77.7994 56.3543 77.9347C56.6564 78.07 57.8312 78.5774 58.3682 79.3892C58.9052 80.1672 59.2073 81.1481 59.3416 81.7232C59.4758 82.2982 59.6772 84.2939 60.1471 85.0381C60.1471 85.0381 59.9122 84.091 59.845 83.4483C59.7779 82.8394 59.6772 81.2158 59.3751 80.3363C59.0731 79.4907 58.4689 78.6789 57.8647 78.2391C57.2606 77.8332 56.7907 77.5964 56.2201 77.4273C56.7571 76.9876 57.5291 77.0214 57.9319 77.089C58.4353 77.1567 59.1738 77.5288 59.7108 77.9685C60.1136 78.2729 60.7177 78.9833 60.9862 79.5922C61.2883 80.3025 61.3554 81.182 61.3219 81.8247C61.2883 82.4673 61.0869 84.091 61.1541 85.0719C61.2547 86.0529 61.9932 87 61.9932 87C59.8115 86.425 57.4955 84.666 56.7907 83.9895C56.153 83.3806 55.1796 82.332 54.844 80.6069C54.5083 78.9156 55.381 77.9347 55.381 77.9347C55.381 77.9347 54.7433 77.7994 54.2734 77.7656C51.991 77.7317 50.1114 78.1715 48.5003 79.0509C46.2179 80.3025 44.6739 83.8542 42.7943 84.7675C41.0826 85.6131 37.2227 85.3764 37.2227 85.3764C40.3441 84.5645 45.7144 79.626 49.3394 78.1038Z" fill="#E3BC30"/>
</svg>
