<svg width="261" height="258" viewBox="0 0 261 258" fill="none" xmlns="http://www.w3.org/2000/svg">
<path d="M147.554 257.999C147.554 257.999 133.541 240.794 100.789 235.172C68.8815 227.677 30.3051 196.247 20.4288 152.21C8.94875 108.43 28.2792 62.7755 52.9276 41.4815C77.4072 19.0801 100.367 15.5879 99.9453 15.2472C100.536 15.9286 77.7448 19.9319 53.8561 42.4184C29.7986 63.8828 11.4811 108.941 23.0456 151.444C33.1751 194.373 70.9074 224.44 101.718 231.424C109.146 232.532 115.73 234.32 121.47 236.45C143.249 244.201 151.606 254.252 151.606 254.252L147.554 257.999Z" fill="#C0C0C0"/>
<path d="M113.282 258C113.282 258 127.295 240.794 160.047 235.173C191.955 227.677 230.531 196.247 240.407 152.211C251.887 108.516 232.557 62.8613 207.909 41.5673C183.429 19.166 160.469 15.6737 160.891 15.333C160.3 16.0144 183.091 20.0177 206.98 42.5042C231.037 63.9686 249.355 109.027 237.79 151.53C227.661 194.459 189.929 224.526 159.118 231.51C151.69 232.617 145.106 234.406 139.366 236.536C117.587 244.287 109.23 254.337 109.23 254.337L113.282 258Z" fill="#C0C0C0"/>
<path d="M91.3342 207.83C91.3342 207.83 100.282 210.896 103.236 218.136C106.951 227.08 105.347 234.66 105.347 234.66C105.347 234.66 96.399 229.976 93.4445 225.12C89.2239 218.221 91.3342 207.83 91.3342 207.83Z" fill="#C0C0C0"/>
<path d="M75.7178 247.266C75.7178 247.266 84.7499 250.077 91.3341 245.988C99.5221 240.963 102.645 233.893 102.645 233.893C102.645 233.893 92.6847 232.36 87.4511 234.575C80.0228 237.641 75.7178 247.266 75.7178 247.266Z" fill="#C0C0C0"/>
<path d="M77.4908 200.077C77.4908 200.077 85.5944 204.592 87.1982 212.002C89.2241 221.286 86.4385 228.271 86.4385 228.271C86.4385 228.271 78.5881 222.223 76.5622 217.027C73.6078 209.702 77.4908 200.077 77.4908 200.077Z" fill="#C0C0C0"/>
<path d="M55.7119 235.514C55.7119 235.514 63.9843 239.773 70.9905 236.962C79.7694 233.47 83.9056 227.252 83.9056 227.252C83.9056 227.252 74.5359 224.1 69.1335 225.293C61.452 226.911 55.7119 235.514 55.7119 235.514Z" fill="#C0C0C0"/>
<path d="M64.9945 190.027C64.9945 190.027 72.0008 195.819 72.3384 203.229C72.7605 212.599 68.8775 218.817 68.8775 218.817C68.8775 218.817 62.2933 211.577 61.196 206.21C59.5922 198.715 64.9945 190.027 64.9945 190.027Z" fill="#C0C0C0"/>
<path d="M37.9844 220.437C37.9844 220.437 45.2438 225.974 52.5033 224.441C61.5354 222.567 66.6846 217.286 66.6846 217.286C66.6846 217.286 58.1589 212.601 52.7565 212.857C44.9906 213.197 37.9844 220.437 37.9844 220.437Z" fill="#C0C0C0"/>
<path d="M54.3619 177.847C54.3619 177.847 60.1863 184.576 59.2578 191.902C58.076 201.015 53.2645 206.381 53.2645 206.381C53.2645 206.381 48.1998 198.29 47.9466 192.924C47.7777 185.343 54.3619 177.847 54.3619 177.847Z" fill="#C0C0C0"/>
<path d="M23.2129 202.549C23.2129 202.549 29.2906 209.107 36.55 208.937C45.5822 208.681 51.4066 204.423 51.4066 204.423C51.4066 204.423 43.9783 198.46 38.6604 197.694C31.2321 196.757 23.2129 202.549 23.2129 202.549Z" fill="#C0C0C0"/>
<path d="M46.0059 164.048C46.0059 164.048 50.4797 171.544 48.3694 178.443C45.6682 186.961 40.1814 191.39 40.1814 191.39C40.1814 191.39 36.6361 182.702 37.3958 177.506C38.3243 170.096 46.0059 164.048 46.0059 164.048Z" fill="#C0C0C0"/>
<path d="M11.7344 182.532C11.7344 182.532 16.4615 189.942 23.4677 190.964C32.2466 192.327 38.5775 189.176 38.5775 189.176C38.5775 189.176 32.4154 182.106 27.4351 180.488C20.4288 178.273 11.7344 182.532 11.7344 182.532Z" fill="#C0C0C0"/>
<path d="M40.1812 149.059C40.1812 149.059 43.22 157.065 40.0123 163.368C36.045 171.204 29.8829 174.441 29.8829 174.441C29.8829 174.441 27.9414 165.498 29.4608 160.557C31.8243 153.573 40.1812 149.059 40.1812 149.059Z" fill="#C0C0C0"/>
<path d="M4.05273 160.983C4.05273 160.983 7.34482 168.905 14.0134 171.119C22.2858 173.93 28.87 171.971 28.87 171.971C28.87 171.971 24.1429 164.135 19.5846 161.665C13.1693 158.428 4.05273 160.983 4.05273 160.983Z" fill="#C0C0C0"/>
<path d="M36.9751 133.302C36.9751 133.302 38.579 141.564 34.4428 147.015C29.2936 153.829 22.7939 155.959 22.7939 155.959C22.7939 155.959 22.3718 146.93 24.7354 142.501C28.1119 136.198 36.9751 133.302 36.9751 133.302Z" fill="#C0C0C0"/>
<path d="M0.0859375 138.667C0.0859375 138.667 1.94301 146.929 7.93629 150.166C15.449 154.254 22.1176 153.573 22.1176 153.573C22.1176 153.573 18.8255 145.225 14.8581 142.074C9.28688 137.73 0.0859375 138.667 0.0859375 138.667Z" fill="#C0C0C0"/>
<path d="M36.5509 117.116C36.5509 117.116 36.7198 125.378 31.7394 129.978C25.5773 135.684 18.9932 136.621 18.9932 136.621C18.9932 136.621 20.1749 127.848 23.2138 123.93C27.5188 118.479 36.5509 117.116 36.5509 117.116Z" fill="#C0C0C0"/>
<path d="M0 116.009C0 116.009 0.422062 124.271 5.65563 128.529C12.1554 133.81 18.824 134.236 18.824 134.236C18.824 134.236 17.0513 125.548 13.7592 121.886C9.11653 116.605 0 116.009 0 116.009Z" fill="#C0C0C0"/>
<path d="M38.8298 100.678C38.8298 100.678 37.5636 108.685 32.0768 112.262C25.155 116.691 18.6553 116.436 18.6553 116.436C18.6553 116.436 21.1876 108.174 24.8174 104.937C29.8821 100.338 38.8298 100.678 38.8298 100.678Z" fill="#C0C0C0"/>
<path d="M3.80023 93.2664C3.80023 93.2664 2.78728 101.273 7.17673 106.298C12.5791 112.516 18.91 114.049 18.91 114.049C18.91 114.049 18.6568 105.361 16.1244 101.273C12.4103 95.481 3.80023 93.2664 3.80023 93.2664Z" fill="#C0C0C0"/>
<path d="M43.9774 84.5787C43.9774 84.5787 41.445 92.0742 35.4517 94.5443C28.0234 97.6958 21.8613 96.333 21.8613 96.333C21.8613 96.333 25.7443 88.8375 29.7961 86.2822C35.3673 82.7048 43.9774 84.5787 43.9774 84.5787Z" fill="#C0C0C0"/>
<path d="M11.3944 71.3771C11.3944 71.3771 9.11525 78.9577 12.4073 84.4942C16.6279 91.3935 22.368 94.0339 22.368 94.0339C22.368 94.0339 23.6342 85.6867 21.8615 81.2575C19.3291 75.0396 11.3944 71.3771 11.3944 71.3771Z" fill="#C0C0C0"/>
<path d="M51.832 69.6756C51.832 69.6756 48.1178 76.4897 41.9557 77.8525C34.2742 79.556 28.5342 77.2563 28.5342 77.2563C28.5342 77.2563 33.5145 70.6977 37.8195 68.909C43.8972 66.4389 51.832 69.6756 51.832 69.6756Z" fill="#C0C0C0"/>
<path d="M22.6241 51.2763C22.6241 51.2763 19.0788 58.1756 21.4424 64.1379C24.3124 71.5483 29.4615 75.0405 29.4615 75.0405C29.4615 75.0405 32.0783 67.1191 31.1498 62.6047C29.7148 56.2165 22.6241 51.2763 22.6241 51.2763Z" fill="#C0C0C0"/>
<path d="M62.2945 56.3011C62.2945 56.3011 57.5674 62.2634 51.4053 62.519C43.6394 62.9448 38.4902 59.623 38.4902 59.623C38.4902 59.623 44.4835 54.0865 48.873 53.1496C55.1195 51.8719 62.2945 56.3011 62.2945 56.3011Z" fill="#C0C0C0"/>
<path d="M37.2255 33.6452C37.2255 33.6452 32.6672 39.6927 33.849 45.8254C35.3684 53.4913 39.7578 57.7501 39.7578 57.7501C39.7578 57.7501 43.6408 50.5953 43.472 45.9958C43.2187 39.6076 37.2255 33.6452 37.2255 33.6452Z" fill="#C0C0C0"/>
<path d="M74.7913 45.2272C74.7913 45.2272 69.2201 50.1674 63.2268 49.3157C55.7141 48.2936 51.2402 44.2903 51.2402 44.2903C51.2402 44.2903 57.9088 40.0315 62.3827 39.8611C68.6292 39.6056 74.7913 45.2272 74.7913 45.2272Z" fill="#C0C0C0"/>
<path d="M54.3639 18.9933C54.3639 18.9933 48.9615 24.1038 49.0459 30.2365C49.2147 37.9024 52.76 42.7574 52.76 42.7574C52.76 42.7574 57.656 36.5395 58.3313 32.0252C59.1754 25.7222 54.3639 18.9933 54.3639 18.9933Z" fill="#C0C0C0"/>
<path d="M88.8877 36.4559C88.8877 36.4559 82.6412 40.2037 76.9856 38.415C69.9793 36.2004 66.3496 31.5157 66.3496 31.5157C66.3496 31.5157 73.5247 28.5345 77.8297 29.1308C83.9074 30.0677 88.8877 36.4559 88.8877 36.4559Z" fill="#C0C0C0"/>
<path d="M73.6091 7.6665C73.6091 7.6665 67.5314 11.6698 66.6029 17.5469C65.5055 24.9573 68.0379 30.2382 68.0379 30.2382C68.0379 30.2382 73.8623 25.0424 75.2129 20.8688C77.1544 14.9917 73.6091 7.6665 73.6091 7.6665Z" fill="#C0C0C0"/>
<path d="M104.082 30.407C104.082 30.407 97.4131 32.9622 92.264 30.2366C85.8487 26.8296 83.1475 21.719 83.1475 21.719C83.1475 21.719 90.5757 20.1006 94.6275 21.3783C100.283 23.4225 104.082 30.407 104.082 30.407Z" fill="#C0C0C0"/>
<path d="M94.2068 -3.05176e-05C94.2068 -3.05176e-05 87.6227 2.81078 85.7656 8.34724C83.4865 15.2465 85.0059 20.8681 85.0059 20.8681C85.0059 20.8681 91.5057 16.8649 93.5315 13.0319C96.3172 7.66583 94.2068 -3.05176e-05 94.2068 -3.05176e-05Z" fill="#C0C0C0"/>
<path d="M94.457 17.1219C94.457 17.1219 99.3529 19.9327 103.742 18.3995C109.145 16.5256 111.846 12.7779 111.846 12.7779C111.846 12.7779 106.19 10.6485 102.898 11.1595C98.1712 12.0965 94.457 17.1219 94.457 17.1219Z" fill="#C0C0C0"/>
<path d="M169.498 207.83C169.498 207.83 160.551 210.896 157.596 218.136C153.882 227.08 155.486 234.66 155.486 234.66C155.486 234.66 164.434 229.976 167.388 225.12C171.609 218.221 169.498 207.83 169.498 207.83Z" fill="#C0C0C0"/>
<path d="M185.115 247.266C185.115 247.266 176.083 250.077 169.499 245.988C161.311 240.963 158.188 233.893 158.188 233.893C158.188 233.893 168.148 232.36 173.382 234.575C180.81 237.641 185.115 247.266 185.115 247.266Z" fill="#C0C0C0"/>
<path d="M183.343 200.077C183.343 200.077 175.24 204.592 173.636 212.002C171.61 221.286 174.396 228.271 174.396 228.271C174.396 228.271 182.246 222.223 184.272 217.027C187.226 209.702 183.343 200.077 183.343 200.077Z" fill="#C0C0C0"/>
<path d="M205.121 235.511C205.121 235.511 196.849 239.77 189.842 236.959C181.063 233.467 176.843 227.249 176.843 227.249C176.843 227.249 186.213 224.098 191.615 225.29C199.381 226.908 205.121 235.511 205.121 235.511Z" fill="#C0C0C0"/>
<path d="M195.836 190.027C195.836 190.027 188.83 195.819 188.492 203.229C188.07 212.599 191.953 218.817 191.953 218.817C191.953 218.817 198.537 211.577 199.634 206.21C201.154 198.715 195.836 190.027 195.836 190.027Z" fill="#C0C0C0"/>
<path d="M222.847 220.437C222.847 220.437 215.587 225.974 208.328 224.441C199.296 222.567 194.146 217.286 194.146 217.286C194.146 217.286 202.672 212.601 208.075 212.857C215.756 213.197 222.847 220.437 222.847 220.437Z" fill="#C0C0C0"/>
<path d="M206.472 177.847C206.472 177.847 200.647 184.576 201.576 191.902C202.758 201.015 207.569 206.381 207.569 206.381C207.569 206.381 212.634 198.29 212.803 192.924C213.056 185.343 206.472 177.847 206.472 177.847Z" fill="#C0C0C0"/>
<path d="M237.619 202.549C237.619 202.549 231.541 209.107 224.281 208.937C215.249 208.681 209.425 204.423 209.425 204.423C209.425 204.423 216.853 198.46 222.171 197.694C229.599 196.757 237.619 202.549 237.619 202.549Z" fill="#C0C0C0"/>
<path d="M214.829 164.048C214.829 164.048 210.355 171.544 212.465 178.443C215.166 186.961 220.653 191.39 220.653 191.39C220.653 191.39 224.198 182.702 223.439 177.506C222.51 170.096 214.829 164.048 214.829 164.048Z" fill="#C0C0C0"/>
<path d="M249.101 182.532C249.101 182.532 244.374 189.942 237.368 190.964C228.589 192.327 222.258 189.176 222.258 189.176C222.258 189.176 228.42 182.106 233.4 180.488C240.406 178.273 249.101 182.532 249.101 182.532Z" fill="#C0C0C0"/>
<path d="M220.655 149.059C220.655 149.059 217.617 157.065 220.824 163.368C224.792 171.204 230.954 174.441 230.954 174.441C230.954 174.441 232.895 165.498 231.376 160.557C229.012 153.573 220.655 149.059 220.655 149.059Z" fill="#C0C0C0"/>
<path d="M256.782 160.983C256.782 160.983 253.49 168.905 246.821 171.119C238.549 173.93 231.965 171.971 231.965 171.971C231.965 171.971 236.692 164.135 241.25 161.665C247.666 158.428 256.782 160.983 256.782 160.983Z" fill="#C0C0C0"/>
<path d="M223.862 133.302C223.862 133.302 222.258 141.564 226.394 147.015C231.543 153.829 238.043 155.959 238.043 155.959C238.043 155.959 238.465 146.93 236.101 142.501C232.725 136.198 223.862 133.302 223.862 133.302Z" fill="#C0C0C0"/>
<path d="M260.749 138.667C260.749 138.667 258.892 146.929 252.899 150.166C245.386 154.254 238.718 153.573 238.718 153.573C238.718 153.573 242.01 145.225 245.977 142.074C251.464 137.73 260.749 138.667 260.749 138.667Z" fill="#C0C0C0"/>
<path d="M224.285 117.116C224.285 117.116 224.116 125.378 229.096 129.978C235.258 135.684 241.843 136.621 241.843 136.621C241.843 136.621 240.745 127.848 237.622 123.93C233.317 118.479 224.285 117.116 224.285 117.116Z" fill="#C0C0C0"/>
<path d="M260.836 116.009C260.836 116.009 260.414 124.271 255.18 128.529C248.68 133.81 242.012 134.236 242.012 134.236C242.012 134.236 243.784 125.548 247.076 121.886C251.719 116.605 260.836 116.009 260.836 116.009Z" fill="#C0C0C0"/>
<path d="M222.005 100.678C222.005 100.678 223.271 108.685 228.758 112.262C235.68 116.691 242.179 116.436 242.179 116.436C242.179 116.436 239.647 108.174 236.017 104.937C230.953 100.338 222.005 100.678 222.005 100.678Z" fill="#C0C0C0"/>
<path d="M257.036 93.2664C257.036 93.2664 258.049 101.273 253.659 106.298C248.257 112.516 241.926 114.049 241.926 114.049C241.926 114.049 242.179 105.361 244.711 101.273C248.426 95.481 257.036 93.2664 257.036 93.2664Z" fill="#C0C0C0"/>
<path d="M216.855 84.5787C216.855 84.5787 219.388 92.0742 225.381 94.5443C232.809 97.6958 238.972 96.333 238.972 96.333C238.972 96.333 235.089 88.8375 231.037 86.2822C225.466 82.7048 216.855 84.5787 216.855 84.5787Z" fill="#C0C0C0"/>
<path d="M249.439 71.3771C249.439 71.3771 251.718 78.9578 248.426 84.4942C244.205 91.3935 238.465 94.034 238.465 94.034C238.465 94.034 237.199 85.6867 238.972 81.2575C241.42 75.0397 249.439 71.3771 249.439 71.3771Z" fill="#C0C0C0"/>
<path d="M208.92 69.6756C208.92 69.6756 212.634 76.4897 218.796 77.8525C226.478 79.556 232.218 77.2563 232.218 77.2563C232.218 77.2563 227.237 70.6977 222.932 68.909C216.939 66.4389 208.92 69.6756 208.92 69.6756Z" fill="#C0C0C0"/>
<path d="M238.211 51.2763C238.211 51.2763 241.757 58.1756 239.393 64.138C236.523 71.5483 231.374 75.0405 231.374 75.0405C231.374 75.0405 228.757 67.1191 229.686 62.6048C231.121 56.2166 238.211 51.2763 238.211 51.2763Z" fill="#C0C0C0"/>
<path d="M198.538 56.3039C198.538 56.3039 203.265 62.2662 209.427 62.5217C217.109 62.8624 222.342 59.6257 222.342 59.6257C222.342 59.6257 216.349 54.0893 211.96 53.1524C205.629 51.8747 198.538 56.3039 198.538 56.3039Z" fill="#C0C0C0"/>
<path d="M223.609 33.6452C223.609 33.6452 228.168 39.6927 226.986 45.8254C225.466 53.4913 221.077 57.7501 221.077 57.7501C221.077 57.7501 217.194 50.5953 217.363 45.9958C217.616 39.6076 223.609 33.6452 223.609 33.6452Z" fill="#C0C0C0"/>
<path d="M186.045 45.2272C186.045 45.2272 191.616 50.1674 197.609 49.3157C205.122 48.2936 209.512 44.2903 209.512 44.2903C209.512 44.2903 202.843 40.0315 198.369 39.8611C192.207 39.6056 186.045 45.2272 186.045 45.2272Z" fill="#C0C0C0"/>
<path d="M206.475 18.9933C206.475 18.9933 211.877 24.1039 211.793 30.2365C211.624 37.9024 208.079 42.7574 208.079 42.7574C208.079 42.7574 203.183 36.5396 202.508 32.0252C201.663 25.7222 206.475 18.9933 206.475 18.9933Z" fill="#C0C0C0"/>
<path d="M171.947 36.4559C171.947 36.4559 178.194 40.2037 183.849 38.415C190.94 36.2004 194.485 31.5157 194.485 31.5157C194.485 31.5157 187.31 28.5345 183.005 29.1308C176.928 30.0677 171.947 36.4559 171.947 36.4559Z" fill="#C0C0C0"/>
<path d="M187.226 7.6665C187.226 7.6665 193.304 11.6698 194.232 17.5469C195.33 24.9573 192.797 30.2382 192.797 30.2382C192.797 30.2382 186.973 25.0424 185.622 20.8688C183.681 14.9917 187.226 7.6665 187.226 7.6665Z" fill="#C0C0C0"/>
<path d="M156.753 30.407C156.753 30.407 163.422 32.9622 168.571 30.2366C174.986 26.8296 177.687 21.719 177.687 21.719C177.687 21.719 170.259 20.1006 166.207 21.3783C160.551 23.4225 156.753 30.407 156.753 30.407Z" fill="#C0C0C0"/>
<path d="M166.628 -3.05176e-05C166.628 -3.05176e-05 173.212 2.81078 175.069 8.34724C177.348 15.2465 175.829 20.8681 175.829 20.8681C175.829 20.8681 169.329 16.8649 167.303 13.0319C164.518 7.66583 166.628 -3.05176e-05 166.628 -3.05176e-05Z" fill="#C0C0C0"/>
<path d="M166.378 17.1219C166.378 17.1219 161.482 19.9327 157.093 18.3995C151.69 16.5256 148.989 12.7779 148.989 12.7779C148.989 12.7779 154.645 10.6485 157.937 11.1595C162.664 12.0965 166.378 17.1219 166.378 17.1219Z" fill="#C0C0C0"/>
</svg>
