<svg width="93" height="86" viewBox="0 0 93 86" fill="none" xmlns="http://www.w3.org/2000/svg">
<path d="M32.9388 77.3415C33.0046 77.3415 33.136 77.3415 33.2017 77.3415C33.6617 77.3415 34.056 77.3415 34.516 77.407C35.5017 77.5379 36.2903 77.865 37.0131 78.2576C37.0131 78.1268 36.9474 78.0613 36.9474 77.9959C36.6845 76.6218 35.6988 74.2661 35.6988 74.2661C35.6988 74.2661 37.1445 75.6402 37.736 77.407C37.8674 77.865 38.0645 78.4539 38.196 79.1083C38.656 79.5009 38.9845 79.8935 39.2474 80.2861C39.3131 78.5848 39.116 76.1637 38.0645 73.4154C36.356 68.9659 31.9531 68.2461 31.9531 68.2461C31.9531 68.2461 32.8731 71.5833 32.9388 72.892C33.0046 74.0044 32.676 75.4439 32.9388 77.3415Z" fill="#99671C"/>
<path d="M33.2018 77.9307C33.5961 77.9307 34.0561 77.9307 34.4504 77.9961C37.8018 78.4541 39.2475 81.2678 39.3133 81.3987L39.4447 81.6605L39.1818 81.7259C39.0504 81.7259 36.2904 82.3802 34.5161 82.3148C33.9247 82.3148 32.6104 82.0531 31.8875 81.8568C32.2818 82.4457 33.4647 83.1 34.5818 83.1655C35.9618 83.2309 39.3133 82.9037 39.3133 82.9037H40.0361L39.379 83.2963C39.2475 83.3618 36.7504 85.0631 32.5447 85.0631C31.8218 85.0631 31.1647 84.9976 30.4418 84.9322C25.9075 84.3433 24.0018 79.8937 23.9361 79.8283L23.8047 79.5665L24.0675 79.5011C24.0675 79.5011 27.1561 79.1085 28.339 78.9122C28.6675 78.8468 28.9961 78.7159 29.4561 78.6504C30.5733 78.2578 31.7561 77.9307 33.2018 77.9307Z" fill="#99671C"/>
<path d="M39.6436 80.6787L40.6293 81.5948L39.1836 82.2491C39.1836 82.2491 42.995 82.2491 43.1922 81.7257C43.3236 81.2676 41.6807 81.6602 39.6436 80.6787Z" fill="#99671C"/>
<path d="M20.5195 69.6199C20.5852 69.6199 20.7167 69.6853 20.7824 69.6853C21.1767 69.8162 21.571 70.0125 21.9652 70.2088C22.8195 70.6668 23.4767 71.2557 23.9367 71.8446C23.9367 71.7792 23.9367 71.6483 24.0024 71.5829C24.1995 70.2088 24.0024 67.7222 24.0024 67.7222C24.0024 67.7222 24.9224 69.489 24.8567 71.3212C24.8567 71.7792 24.791 72.3681 24.7252 73.0225C24.9881 73.546 25.1852 74.0694 25.3167 74.462C25.9081 72.957 26.4995 70.6668 26.3681 67.7877C26.171 63.1418 22.3595 60.8516 22.3595 60.8516C22.3595 60.8516 22.1624 64.1887 21.8338 65.432C21.6367 66.5444 20.9138 67.7877 20.5195 69.6199Z" fill="#99671C"/>
<path d="M20.5849 70.2091C20.9792 70.34 21.3735 70.5363 21.702 70.7326C24.5935 72.303 25.0535 75.3785 25.0535 75.5094L25.1192 75.7711L24.8563 75.7057C24.7249 75.7057 22.0306 75.3131 20.3877 74.5933C19.862 74.3315 18.7449 73.6772 18.1535 73.2191C18.2849 73.8735 19.2049 74.9204 20.2563 75.3785C21.4392 75.902 24.6592 76.8181 24.6592 76.8181L25.3163 77.0798L24.5935 77.2107C24.462 77.2107 21.6363 77.865 17.8249 76.4255C17.1677 76.1637 16.5763 75.902 15.9192 75.5748C11.9763 73.4154 11.582 68.7041 11.582 68.6387V68.377L11.8449 68.4424C11.8449 68.4424 14.7363 69.1622 15.9192 69.3585C16.2477 69.4239 16.5763 69.4239 17.0363 69.4893C18.0877 69.5548 19.2706 69.6857 20.5849 70.2091Z" fill="#99671C"/>
<path d="M25.5809 74.9863L26.238 76.2296L24.7266 76.295C24.7266 76.295 28.2094 77.6037 28.538 77.2111C28.8009 76.8839 27.158 76.6222 25.5809 74.9863Z" fill="#99671C"/>
<path d="M11.3203 57.9078C11.386 57.9732 11.4517 58.0387 11.5175 58.1041C11.846 58.3659 12.1089 58.693 12.4375 59.0202C13.0946 59.74 13.4889 60.5252 13.7517 61.245C13.8175 61.1796 13.8175 61.0487 13.8832 60.9833C14.4746 59.8054 15.1317 57.5152 15.1317 57.5152C15.1317 57.5152 15.3946 59.4128 14.8032 61.1141C14.6717 61.5067 14.4089 62.0956 14.146 62.6191C14.2775 63.208 14.2775 63.7315 14.2775 64.1241C15.2632 62.9463 16.5117 61.0487 17.3003 58.4313C18.6146 54.1126 15.8546 50.71 15.8546 50.71C15.8546 50.71 14.606 53.6545 13.9489 54.7015C13.2917 55.5521 12.2403 56.4028 11.3203 57.9078Z" fill="#99671C"/>
<path d="M11.1892 58.4965C11.5178 58.7582 11.7806 59.0854 12.0435 59.3471C14.2121 61.8337 13.6864 64.7782 13.6206 64.9091L13.5549 65.1709L13.3578 65.04C13.2263 64.9745 10.8606 63.6658 9.61206 62.488C9.15206 62.0954 8.36349 61.0484 7.96921 60.4595C7.90349 61.1139 8.42921 62.3571 9.21778 63.1424C10.1378 64.0585 12.7663 65.9561 12.7663 66.0215L13.2921 66.4795L12.5692 66.3487C12.4378 66.3487 9.67778 65.8906 6.65492 63.2078C6.12921 62.7498 5.66921 62.2917 5.20921 61.7682C2.31778 58.4311 3.43492 53.9815 3.43492 53.916L3.63206 53.6543L3.82921 53.7852C3.82921 53.7852 6.26064 55.4865 7.24635 56.0754C7.50921 56.2717 7.83778 56.4026 8.16635 56.5989C9.08635 57.0569 10.1378 57.5804 11.1892 58.4965Z" fill="#99671C"/>
<path d="M14.2134 64.582L14.4106 65.8907L12.9648 65.4327C12.9648 65.4327 15.7248 67.8538 16.1191 67.6575C16.5791 67.4612 15.1991 66.6759 14.2134 64.582Z" fill="#99671C"/>
<path d="M6.98047 45.2133C7.04618 45.2787 7.04618 45.3442 7.1119 45.475C7.30904 45.8676 7.50618 46.1948 7.63761 46.5874C7.96618 47.4381 8.09761 48.2233 8.09761 49.0085C8.16333 48.9431 8.22904 48.8776 8.29475 48.8122C9.14904 47.9615 10.3976 46.1294 10.3976 46.1294C10.3976 46.1294 10.069 47.8961 9.01761 49.2048C8.75475 49.532 8.36047 49.9246 7.96618 50.3172C7.90047 50.8407 7.76904 51.3642 7.63761 51.6913C8.88618 50.9716 10.529 49.7283 12.0405 47.6998C14.4719 44.3626 13.0919 40.3711 13.0919 40.3711C13.0919 40.3711 11.1205 42.5959 10.2005 43.2502C9.47761 43.8391 8.22904 44.2318 6.98047 45.2133Z" fill="#99671C"/>
<path d="M6.71929 45.6705C6.91643 45.9976 7.04786 46.3903 7.245 46.7174C8.36214 49.662 7.04786 52.0831 6.98214 52.214L6.85071 52.4103L6.65357 52.214C6.58786 52.1485 4.87929 50.1855 4.15643 48.6805C3.89357 48.157 3.49929 46.9792 3.36786 46.3248C3.105 46.8483 3.17071 48.157 3.63071 49.1385C4.15643 50.2509 5.93071 52.8683 5.93071 52.8683L6.25929 53.4572L5.66786 53.1301C5.60214 53.0646 3.23643 51.7559 1.39643 48.3533C1.06786 47.7644 0.805 47.1755 0.542143 46.5866C-1.035 42.595 1.33071 39.0615 1.33071 39.0615L1.46214 38.8652L1.59357 39.0615C1.59357 39.0615 3.23643 41.4172 3.95929 42.2678C4.15643 42.5296 4.35357 42.7259 4.68214 43.0531C5.33929 43.7074 6.06214 44.4926 6.71929 45.6705Z" fill="#99671C"/>
<path d="M7.5721 52.1494L7.37496 53.3927L6.25781 52.4766C6.25781 52.4766 7.96638 55.552 8.36067 55.4866C8.75496 55.4866 7.76924 54.3088 7.5721 52.1494Z" fill="#99671C"/>
<path d="M7.1794 32.5187C7.1794 32.5842 7.1794 32.715 7.24511 32.7805C7.31083 33.1731 7.37654 33.5657 7.37654 33.9583C7.44225 34.8744 7.31083 35.6596 7.04797 36.314C7.11368 36.314 7.1794 36.2485 7.24511 36.2485C8.29654 35.7905 10.0051 34.5472 10.0051 34.5472C10.0051 34.5472 9.15083 36.0522 7.77083 36.8374C7.44225 37.0337 6.98225 37.2955 6.45654 37.4918C6.19368 37.9498 5.93083 38.3424 5.66797 38.6042C7.04797 38.4079 8.95368 37.8844 10.9251 36.5103C14.2108 34.3509 14.1451 30.2285 14.1451 30.2285C14.1451 30.2285 11.648 31.5372 10.5965 31.8644C9.87368 32.1261 8.69083 31.9953 7.1794 32.5187Z" fill="#99671C"/>
<path d="M6.7861 32.8454C6.85181 33.238 6.91752 33.6306 6.91752 34.0232C7.04895 37.0986 5.01181 38.8 4.9461 38.9308L4.74895 39.0617L4.68324 38.8C4.61752 38.6691 3.69753 36.3134 3.50038 34.6776C3.43467 34.0886 3.43467 32.9108 3.50038 32.2565C3.1061 32.6491 2.77752 33.8923 2.90895 34.8739C3.04038 36.1171 3.82895 39.0617 3.82895 39.1271L3.96038 39.7815L3.50038 39.258C3.43467 39.1926 1.7261 37.1641 1.06895 33.3689C0.937525 32.7145 0.871811 32.1256 0.871811 31.4712C0.674668 27.3488 3.96038 24.9277 3.96038 24.9277L4.15753 24.7969L4.22324 25.0586C4.22324 25.0586 5.01181 27.7414 5.34038 28.7884C5.47181 29.0501 5.60324 29.3773 5.73467 29.7045C6.12895 30.5552 6.58895 31.5367 6.7861 32.8454Z" fill="#99671C"/>
<path d="M5.53694 39.0615L4.94551 40.1085L4.22266 38.9307C4.22266 38.9307 4.81408 42.3333 5.20837 42.4642C5.60266 42.4642 5.07694 41.09 5.53694 39.0615Z" fill="#99671C"/>
<path d="M11.4512 21.3955C11.4512 21.4609 11.4512 21.5918 11.3854 21.6572C11.3197 22.0499 11.254 22.4425 11.1226 22.7696C10.8597 23.6203 10.5312 24.2746 10.1369 24.7981C10.2026 24.7981 10.2683 24.7981 10.3997 24.7981C11.5169 24.7327 13.4883 24.2092 13.4883 24.2092C13.4883 24.2092 12.2397 25.2562 10.7283 25.5179C10.334 25.5833 9.87402 25.6488 9.3483 25.6488C8.95402 25.976 8.62545 26.2377 8.29688 26.434C9.61116 26.7612 11.5169 26.892 13.7512 26.3686C17.4312 25.5179 18.6797 21.7881 18.6797 21.7881C18.6797 21.7881 15.9854 22.1153 14.934 21.9844C14.0797 21.9844 12.9626 21.4609 11.4512 21.3955Z" fill="#99671C"/>
<path d="M10.9919 21.5251C10.9262 21.9177 10.8605 22.2449 10.7291 22.6375C9.87477 25.4512 7.50906 26.3673 7.44334 26.3673L7.2462 26.4981V26.2364C7.2462 26.1055 7.11477 23.619 7.44334 22.0486C7.57477 21.5251 7.90334 20.4127 8.1662 19.8238C7.7062 20.0855 6.98334 21.0016 6.7862 21.9831C6.52334 23.161 6.3262 26.171 6.3262 26.171L6.26049 26.8253L5.99763 26.2364C5.93191 26.171 5.01191 23.6844 5.66906 20.0201C5.80049 19.4312 5.93191 18.7768 6.06334 18.1879C7.18048 14.3272 10.9262 13.2803 10.9262 13.2803L11.1233 13.2148V13.4766C11.1233 13.4766 10.9919 16.2249 10.9919 17.2718C10.9919 17.599 10.9919 17.8607 11.0576 18.2533C11.1233 19.1694 11.1891 20.2818 10.9919 21.5251Z" fill="#99671C"/>
<path d="M7.9021 26.7608L7.04781 27.4806L6.71924 26.1064C6.71924 26.1064 6.19352 29.4436 6.5221 29.6399C6.91638 29.9017 6.85067 28.3967 7.9021 26.7608Z" fill="#99671C"/>
<path d="M19.2698 11.6455C19.2041 11.7109 19.2041 11.7764 19.1384 11.8418C18.9412 12.169 18.7441 12.4962 18.5469 12.8233C18.0212 13.5431 17.4955 14.0012 16.9041 14.3938C16.9698 14.3938 17.0355 14.4592 17.1012 14.4592C18.1527 14.7864 20.1241 15.0481 20.1241 15.0481C20.1241 15.0481 18.6127 15.5716 17.1012 15.3099C16.7069 15.2444 16.2469 15.1136 15.7212 14.9173C15.2612 15.1136 14.8669 15.179 14.4727 15.2444C15.5898 16.0296 17.2984 16.8803 19.5984 17.2075C23.3441 17.731 25.7098 14.6555 25.7098 14.6555C25.7098 14.6555 23.0812 14.0012 22.1612 13.4777C21.5041 13.1505 20.6498 12.2999 19.2698 11.6455Z" fill="#99671C"/>
<path d="M18.7439 11.6452C18.5467 11.9724 18.3496 12.2996 18.1525 12.5613C16.4439 14.917 13.9467 14.917 13.8153 14.917H13.6182L13.6839 14.6552C13.6839 14.5244 14.4067 12.1687 15.1953 10.7946C15.4582 10.3365 16.181 9.42044 16.641 8.9624C16.1153 9.02783 15.1296 9.68218 14.6696 10.5328C14.0782 11.5144 12.8953 14.2626 12.8953 14.2626L12.5667 14.8515V14.1972C12.5667 14.0663 12.501 11.4489 14.2096 8.24262C14.4725 7.71914 14.801 7.19566 15.1953 6.67218C17.4953 3.5313 21.3067 3.92391 21.3067 3.92391H21.5696L21.5039 4.18565C21.5039 4.18565 20.5182 6.67218 20.1239 7.71914C20.0582 7.98088 19.9267 8.30805 19.861 8.70066C19.5982 9.48588 19.3353 10.5328 18.7439 11.6452Z" fill="#99671C"/>
<path d="M14.2091 15.4395L13.1577 15.8321L13.2891 14.458C13.2891 14.458 11.712 17.4026 11.9749 17.7298C12.2377 18.0569 12.632 16.6174 14.2091 15.4395Z" fill="#99671C"/>
<path d="M29.0644 6.99902C28.9986 7.06446 28.9329 7.12989 28.8672 7.12989C28.6044 7.39163 28.2758 7.58794 28.0129 7.78424C27.3558 8.24229 26.6986 8.50403 26.0415 8.6349C26.1072 8.70033 26.1729 8.76577 26.2386 8.76577C27.0929 9.48555 28.8672 10.4016 28.8672 10.4016C28.8672 10.4016 27.2901 10.4016 26.0415 9.55099C25.7129 9.35468 25.3186 9.02751 24.9244 8.76577C24.4644 8.76577 24.0044 8.70033 23.6758 8.6349C24.4644 9.74729 25.7786 11.1214 27.7501 12.2338C30.9701 14.066 34.1244 12.0375 34.1244 12.0375C34.1244 12.0375 31.9558 10.4671 31.2329 9.74729C30.6415 9.15838 30.1815 8.04598 29.0644 6.99902Z" fill="#99671C"/>
<path d="M28.6677 6.80286C28.4048 7.0646 28.142 7.26091 27.8791 7.45721C25.5791 9.02765 23.2791 8.11156 23.2134 8.04613L23.0163 7.98069L23.1477 7.78439C23.2134 7.71895 24.5934 5.7559 25.7763 4.83981C26.1706 4.51264 27.0906 3.92372 27.6163 3.66198C27.0906 3.53111 26.0391 3.79285 25.3163 4.38177C24.3306 5.10155 22.4248 7.19547 22.4248 7.19547L21.9648 7.58808L22.162 6.99917C22.162 6.8683 22.9506 4.4472 25.5134 2.15698C25.9734 1.76437 26.4334 1.43719 26.8934 1.04459C29.982 -1.04933 33.3991 0.651975 33.3991 0.651975L33.5963 0.782845L33.4648 0.97915C33.4648 0.97915 31.7563 2.87676 31.0991 3.72742C30.902 3.92372 30.7706 4.18546 30.5734 4.4472C30.1134 5.16699 29.522 6.01764 28.6677 6.80286Z" fill="#99671C"/>
<path d="M23.2809 8.63486H22.1638L22.7552 7.45703C22.7552 7.45703 20.3895 9.55095 20.5209 9.94356C20.718 10.3362 21.5066 9.22377 23.2809 8.63486Z" fill="#99671C"/>
<path d="M59.0934 77.3415C59.0276 77.3415 58.8962 77.3415 58.8305 77.3415C58.3705 77.3415 57.9762 77.3415 57.5162 77.407C56.5305 77.5379 55.7419 77.865 55.0191 78.2576C55.0191 78.1268 55.0848 78.0613 55.0848 77.9959C55.3476 76.6218 56.3334 74.2661 56.3334 74.2661C56.3334 74.2661 54.8876 75.6402 54.2962 77.407C54.1648 77.865 53.9677 78.4539 53.8362 79.1083C53.3762 79.5009 53.0477 79.8935 52.7848 80.2861C52.7191 78.5848 52.9162 76.1637 53.9676 73.4154C55.6762 68.9659 60.0791 68.2461 60.0791 68.2461C60.0791 68.2461 59.1591 71.5833 59.0934 72.892C59.0276 74.0044 59.3562 75.4439 59.0934 77.3415Z" fill="#99671C"/>
<path d="M58.8329 77.9307C60.2786 77.9307 61.4615 78.2578 62.4472 78.5196C62.8415 78.6505 63.2358 78.7159 63.5643 78.7813C64.8129 79.0431 67.8358 79.3702 67.8358 79.3702L68.0986 79.4357L67.9672 79.6974C67.9672 79.7629 65.9958 84.2124 61.4615 84.8013C60.7386 84.8668 60.0158 84.9322 59.3586 84.9322C55.2186 84.9322 52.6558 83.2309 52.5243 83.1655L51.8672 82.7729H52.59C52.59 82.7729 56.0072 83.1 57.3215 83.0346C58.4386 82.9692 59.6872 82.3148 60.0158 81.7259C59.2929 81.9222 57.9786 82.1839 57.3872 82.1839C55.6129 82.2494 52.8529 81.595 52.7215 81.595L52.4586 81.5296L52.59 81.2679C52.6558 81.137 54.1015 78.3233 57.4529 77.8652C57.9786 77.9307 58.4386 77.9307 58.8329 77.9307Z" fill="#99671C"/>
<path d="M52.3919 80.6787L51.4062 81.5948L52.8519 82.2491C52.8519 82.2491 49.0405 82.2491 48.8433 81.7257C48.7119 81.2676 50.3547 81.6602 52.3919 80.6787Z" fill="#99671C"/>
<path d="M71.5155 69.6199C71.4498 69.6199 71.3184 69.6853 71.2526 69.6853C70.8584 69.8162 70.4641 70.0125 70.0698 70.2088C69.2155 70.6668 68.5584 71.2557 68.0984 71.8446C68.0984 71.7792 68.0984 71.6483 68.0326 71.5829C67.8355 70.2088 68.0326 67.7222 68.0326 67.7222C68.0326 67.7222 67.1126 69.489 67.1784 71.3212C67.1784 71.7792 67.2441 72.3681 67.3098 73.0225C67.0469 73.546 66.8498 74.0694 66.7184 74.462C66.1269 72.957 65.5355 70.6668 65.6669 67.7877C65.8641 63.1418 69.6755 60.8516 69.6755 60.8516C69.6755 60.8516 69.8726 64.1887 70.2012 65.432C70.3984 66.5444 71.1212 67.7877 71.5155 69.6199Z" fill="#99671C"/>
<path d="M71.4495 70.2091C72.7638 69.6857 73.9466 69.6202 74.9323 69.4893C75.3266 69.4239 75.7209 69.4239 76.0495 69.3585C77.2323 69.1622 80.1238 68.4424 80.1238 68.4424L80.3866 68.377V68.6387C80.3866 68.7041 79.9923 73.4154 76.0495 75.5748C75.4581 75.902 74.8009 76.2291 74.1438 76.4255C70.3323 77.865 67.5066 77.2761 67.3752 77.2107L66.6523 77.0798L67.3095 76.8181C67.3095 76.8181 70.5295 75.902 71.7123 75.3785C72.7638 74.9204 73.6181 73.8735 73.8152 73.2191C73.2238 73.6772 72.1066 74.3315 71.5809 74.5933C70.0038 75.3131 67.2438 75.6402 67.1123 75.7057L66.8495 75.7711L66.9152 75.5094C66.9152 75.3785 67.3752 72.303 70.2666 70.7326C70.6609 70.5363 71.0552 70.34 71.4495 70.2091Z" fill="#99671C"/>
<path d="M66.4538 74.9863L65.7966 76.2296L67.308 76.295C67.308 76.295 63.8252 77.6037 63.4966 77.2111C63.2338 76.8839 64.8766 76.6222 66.4538 74.9863Z" fill="#99671C"/>
<path d="M80.7144 57.9078C80.6487 57.9732 80.583 58.0387 80.5173 58.1041C80.1887 58.3659 79.9258 58.693 79.5973 59.0202C78.9401 59.74 78.5458 60.5252 78.283 61.245C78.2173 61.1796 78.2173 61.0487 78.1516 60.9833C77.5601 59.8054 76.9687 57.5152 76.9687 57.5152C76.9687 57.5152 76.7058 59.4128 77.2973 61.1141C77.4287 61.5067 77.6916 62.0956 77.9544 62.6191C77.823 63.208 77.823 63.7315 77.823 64.1241C76.8373 62.9463 75.5887 61.0487 74.8001 58.4313C73.4858 54.1126 76.2458 50.71 76.2458 50.71C76.2458 50.71 77.4944 53.6545 78.1516 54.7015C78.743 55.5521 79.7944 56.4028 80.7144 57.9078Z" fill="#99671C"/>
<path d="M80.8464 58.4965C81.8979 57.5804 82.9493 57.0569 83.8036 56.5989C84.1979 56.4026 84.4607 56.2717 84.7236 56.0754C85.7093 55.4865 88.1407 53.7852 88.1407 53.7852L88.3379 53.6543L88.4036 53.916C88.4036 53.9815 89.5865 58.3656 86.6293 61.7682C86.1693 62.2917 85.7093 62.8152 85.1836 63.2078C82.1607 65.8906 79.4007 66.3487 79.2693 66.3487L78.5464 66.4795L79.0722 66.0215C79.0722 66.0215 81.7007 64.0585 82.6207 63.1424C83.4093 62.3571 83.935 61.1139 83.8693 60.4595C83.475 61.0484 82.6864 62.0954 82.2264 62.488C80.9779 63.6658 78.6122 64.9745 78.4807 65.04L78.2179 65.1709L78.1522 64.9091C78.1522 64.7782 77.6264 61.8337 79.7293 59.3471C80.255 59.02 80.5179 58.7582 80.8464 58.4965Z" fill="#99671C"/>
<path d="M77.8211 64.582L77.624 65.8907L79.0697 65.4327C79.0697 65.4327 76.3097 67.8538 75.9154 67.6575C75.4554 67.4612 76.8354 66.6759 77.8211 64.582Z" fill="#99671C"/>
<path d="M85.0523 45.2133C84.9865 45.2787 84.9865 45.3441 84.9208 45.475C84.7237 45.8676 84.5265 46.1948 84.3951 46.5874C84.0665 47.4381 83.9351 48.2233 83.9351 49.0085C83.8694 48.9431 83.8037 48.8776 83.738 48.8122C82.8837 47.9615 81.6351 46.1294 81.6351 46.1294C81.6351 46.1294 81.9637 47.8961 83.0151 49.2048C83.278 49.532 83.6723 49.9246 84.0665 50.3172C84.1323 50.8407 84.2637 51.3642 84.3951 51.6913C83.1465 50.9715 81.5037 49.7283 79.9923 47.6998C77.5608 44.3626 78.9408 40.3711 78.9408 40.3711C78.9408 40.3711 80.9123 42.5959 81.8323 43.2502C82.5551 43.8391 83.8037 44.2318 85.0523 45.2133Z" fill="#99671C"/>
<path d="M85.3155 45.6715C85.9727 44.4936 86.7612 43.643 87.3526 42.9886C87.6155 42.7269 87.8784 42.4651 88.0755 42.2034C88.7984 41.2873 90.3755 38.9971 90.4412 38.9971L90.5726 38.8008L90.7041 38.9971C90.7041 39.0625 93.0698 42.596 91.4926 46.5221C91.2298 47.111 90.9669 47.7654 90.6384 48.2889C88.7984 51.6915 86.4327 53.0002 86.3669 53.0656L85.7755 53.3928L86.1041 52.8039C86.1041 52.8039 87.8784 50.1865 88.4041 49.0741C88.8641 48.158 88.9298 46.8493 88.6669 46.2604C88.5355 46.9147 88.0755 48.0925 87.8784 48.616C87.1555 50.121 85.4469 52.0841 85.3812 52.1495L85.1841 52.3458L85.0527 52.1495C84.9869 52.0186 83.6069 49.5976 84.7898 46.653C84.9869 46.3912 85.1184 46.0641 85.3155 45.6715Z" fill="#99671C"/>
<path d="M84.4589 52.1494L84.6561 53.3927L85.7732 52.4766C85.7732 52.4766 84.0646 55.552 83.6703 55.4866C83.276 55.4866 84.2618 54.3088 84.4589 52.1494Z" fill="#99671C"/>
<path d="M84.8519 32.5187C84.8519 32.5842 84.8519 32.715 84.7861 32.7805C84.7204 33.1731 84.6547 33.5657 84.6547 33.9583C84.589 34.8744 84.7204 35.6596 84.9833 36.314C84.9176 36.314 84.8519 36.2485 84.7861 36.2485C83.7347 35.7905 82.0261 34.5472 82.0261 34.5472C82.0261 34.5472 82.8804 36.0522 84.2604 36.8374C84.589 37.0337 85.049 37.2955 85.5747 37.4918C85.8376 37.9498 86.1004 38.3424 86.2976 38.6042C84.9176 38.4079 83.0118 37.8844 81.0404 36.5103C77.7547 34.3509 77.8204 30.2285 77.8204 30.2285C77.8204 30.2285 80.3176 31.5372 81.369 31.8644C82.1576 32.1261 83.3404 31.9953 84.8519 32.5187Z" fill="#99671C"/>
<path d="M85.2469 32.8454C85.444 31.5367 85.904 30.5552 86.2983 29.7045C86.4298 29.3773 86.5612 29.0501 86.6926 28.7884C87.0869 27.7414 87.8098 25.0586 87.8098 25.0586L87.8755 24.7969L88.0726 24.9277C88.0726 24.9277 91.3583 27.3488 91.1612 31.5367C91.1612 32.191 91.0955 32.8454 90.964 33.4343C90.3726 37.1641 88.664 39.1926 88.5326 39.3234L88.0726 39.8469L88.204 39.1926C88.204 39.1926 88.9926 36.1826 89.124 34.9393C89.2555 33.8923 88.9269 32.7145 88.5326 32.3219C88.5983 32.9762 88.5983 34.2195 88.5326 34.743C88.3355 36.3789 87.4155 38.7345 87.3498 38.8654L87.284 39.1271L87.0869 38.9963C87.0212 38.9308 84.984 37.1641 85.1155 34.0886C85.1155 33.6306 85.1812 33.238 85.2469 32.8454Z" fill="#99671C"/>
<path d="M86.4961 39.0615L87.0875 40.1085L87.8104 38.9307C87.8104 38.9307 87.219 42.3333 86.8247 42.4642C86.4304 42.4642 86.9561 41.09 86.4961 39.0615Z" fill="#99671C"/>
<path d="M80.5801 21.3945C80.5801 21.46 80.5801 21.5908 80.6458 21.6563C80.7116 22.0489 80.7773 22.4415 80.9087 22.7687C81.1716 23.6193 81.5001 24.2737 81.8944 24.7971C81.8287 24.7971 81.763 24.7971 81.6316 24.7971C80.5144 24.7317 78.543 24.2082 78.543 24.2082C78.543 24.2082 79.7916 25.2552 81.303 25.5169C81.6973 25.5824 82.1573 25.6478 82.683 25.6478C83.0773 25.975 83.4058 26.2367 83.7344 26.433C82.4201 26.7602 80.5144 26.8911 78.2801 26.3676C74.6001 25.5169 73.3516 21.7871 73.3516 21.7871C73.3516 21.7871 76.0459 22.1143 77.0973 21.9834C77.9516 21.9834 79.0687 21.46 80.5801 21.3945Z" fill="#99671C"/>
<path d="M81.0416 21.5261C80.8444 20.2828 80.9102 19.1704 80.9759 18.3197C81.0416 17.9271 81.0416 17.6 81.0416 17.3382C81.0416 16.2258 80.9102 13.543 80.9102 13.543V13.2812L81.1073 13.3467C81.173 13.3467 84.853 14.3936 85.9702 18.2543C86.1673 18.8432 86.2987 19.4976 86.3644 20.0865C86.9559 23.7508 86.0359 26.1719 86.0359 26.3028L85.773 26.8917L85.7073 26.2374C85.7073 26.2374 85.5102 23.2274 85.2473 22.0495C85.0502 21.068 84.3273 20.0865 83.8673 19.8902C84.1302 20.4791 84.5244 21.5915 84.5902 22.115C84.9187 23.6854 84.7873 26.1719 84.7873 26.3028V26.5645L84.5902 26.4991C84.4587 26.4337 82.093 25.583 81.3044 22.7693C81.173 22.2458 81.1073 21.9187 81.0416 21.5261Z" fill="#99671C"/>
<path d="M84.1289 26.7598L84.9832 27.4796L85.3118 26.1055C85.3118 26.1055 85.8375 29.4426 85.5089 29.639C85.1146 29.9007 85.1803 28.3957 84.1289 26.7598Z" fill="#99671C"/>
<path d="M72.7603 11.6445C72.826 11.71 72.826 11.7754 72.8917 11.8408C73.0889 12.168 73.286 12.4952 73.4832 12.8224C74.0089 13.5421 74.5346 14.0002 75.126 14.3928C75.0603 14.3928 74.9946 14.4582 74.9289 14.4582C73.8775 14.7854 71.906 15.0471 71.906 15.0471C71.906 15.0471 73.4175 15.5706 74.9289 15.3089C75.3232 15.2435 75.7832 15.1126 76.3089 14.9163C76.7689 15.1126 77.1632 15.178 77.5575 15.2435C76.4403 16.0287 74.7317 16.8793 72.4317 17.2065C68.686 17.73 66.3203 14.6545 66.3203 14.6545C66.3203 14.6545 68.9489 14.0002 69.8689 13.4767C70.526 13.1495 71.446 12.2989 72.7603 11.6445Z" fill="#99671C"/>
<path d="M73.2867 11.6447C72.6952 10.5323 72.4324 9.48537 72.2352 8.63471C72.1695 8.2421 72.0381 7.98036 71.9724 7.65319C71.6438 6.60623 70.5924 4.1197 70.5924 4.1197L70.4609 3.9234H70.7238C70.7895 3.9234 74.6009 3.53079 76.9009 6.7371C77.2295 7.26058 77.5581 7.78406 77.8866 8.30754C79.5952 11.5139 79.5295 14.1312 79.5295 14.2621V14.9165L79.2009 14.3276C79.2009 14.3276 78.0181 11.5793 77.4266 10.5978C76.9009 9.74711 75.9809 9.09276 75.4552 9.02732C75.9152 9.48537 76.5724 10.4015 76.9009 10.8595C77.6895 12.1682 78.4124 14.5893 78.4124 14.7202L78.4781 14.9819H78.2809C78.1495 14.9819 75.6524 15.0473 73.9438 12.6262C73.6809 12.2991 73.4838 11.9719 73.2867 11.6447Z" fill="#99671C"/>
<path d="M77.8203 15.4405L78.8717 15.8331L78.7403 14.459C78.7403 14.459 80.3175 17.4036 80.0546 17.7307C79.7917 18.0579 79.3975 16.6183 77.8203 15.4405Z" fill="#99671C"/>
<path d="M62.9702 6.99902C63.0359 7.06446 63.1016 7.12989 63.1673 7.12989C63.4302 7.39163 63.7587 7.58794 64.0216 7.78424C64.6787 8.24229 65.3359 8.50403 65.993 8.6349C65.9273 8.70033 65.8616 8.76577 65.7959 8.76577C64.9416 9.48555 63.1673 10.4016 63.1673 10.4016C63.1673 10.4016 64.7444 10.4016 65.993 9.55099C66.3216 9.35468 66.7159 9.02751 67.1102 8.76577C67.5702 8.76577 68.0302 8.70033 68.3587 8.6349C67.5702 9.74729 66.2559 11.1214 64.2845 12.2338C61.0644 14.066 57.9102 12.0375 57.9102 12.0375C57.9102 12.0375 60.0787 10.4671 60.8016 9.74729C61.393 9.15838 61.853 8.04598 62.9702 6.99902Z" fill="#99671C"/>
<path d="M63.3661 6.80286C62.4461 6.01764 61.9204 5.16699 61.4604 4.4472C61.2632 4.18546 61.1318 3.92372 60.9346 3.66198C60.2775 2.81133 58.5689 0.913715 58.5689 0.913715L58.4375 0.71741L58.6346 0.651975C58.6346 0.651975 62.0518 -1.04933 65.1404 1.04459C65.6004 1.37176 66.0604 1.76437 66.5204 2.15698C69.0832 4.4472 69.8718 6.8683 69.8718 6.99917L70.0689 7.58808L69.6089 7.19547C69.6089 7.19547 67.7032 5.10155 66.7832 4.38177C66.0604 3.79285 64.9432 3.53111 64.4832 3.66198C65.0089 3.92372 65.9289 4.51264 66.3232 4.83981C67.4404 5.7559 68.8861 7.71895 68.9518 7.78439L69.0832 7.98069L68.8861 8.04613C68.8204 8.11156 66.5204 9.02765 64.2204 7.45721C63.9575 7.26091 63.6289 7.0646 63.3661 6.80286Z" fill="#99671C"/>
<path d="M68.7539 8.63486H69.8711L69.2796 7.45703C69.2796 7.45703 71.6454 9.55095 71.5139 9.94356C71.3168 10.3362 70.5282 9.22377 68.7539 8.63486Z" fill="#99671C"/>
</svg>
