<svg width="40" height="40" viewBox="0 0 40 40" fill="none" xmlns="http://www.w3.org/2000/svg">
<path d="M10.4158 24.6835C10.5183 24.6856 10.6173 24.6466 10.6908 24.5752L17.9825 17.2835C18.0372 17.2268 18.112 17.1938 18.1908 17.1918C18.274 17.1927 18.3528 17.2291 18.4075 17.2918L21.1575 20.2168C21.3558 20.4263 21.6315 20.545 21.92 20.545C22.2084 20.545 22.4842 20.4263 22.6825 20.2168L29.1658 13.7335V16.0668C29.1658 16.2785 29.3374 16.4502 29.5491 16.4502C29.7608 16.4502 29.9325 16.2785 29.9325 16.0668V12.8085C29.9412 12.7589 29.9412 12.7081 29.9325 12.6585C29.9099 12.5953 29.8656 12.5421 29.8075 12.5085C29.7491 12.4753 29.683 12.4581 29.6158 12.4585H26.3908C26.1791 12.4585 26.0075 12.6301 26.0075 12.8418C26.0119 13.0517 26.1809 13.2208 26.3908 13.2252H28.6575L22.1408 19.7335C22.0872 19.7918 22.0117 19.8251 21.9325 19.8252C21.8497 19.8223 21.7717 19.7862 21.7158 19.7252L18.9741 16.8002C18.7754 16.5871 18.4988 16.4638 18.2075 16.4585C17.9207 16.4617 17.6462 16.5751 17.4408 16.7752L10.1408 24.0668C9.99994 24.2199 9.99994 24.4554 10.1408 24.6085C10.2194 24.6679 10.3179 24.6948 10.4158 24.6835Z" fill="white"/>
<path fill-rule="evenodd" clip-rule="evenodd" d="M33.4186 4.33353H6.58531C5.82933 4.28506 5.10907 4.66086 4.71639 5.30868C4.3237 5.95649 4.3237 6.7689 4.71639 7.41671C5.10907 8.06453 5.82933 8.44033 6.58531 8.39186H7.06865C7.06503 8.40833 7.06503 8.42539 7.06865 8.44186V26.6669C7.06865 27.9831 8.1357 29.0502 9.45198 29.0502H19.1186L14.052 34.5419C13.9508 34.652 13.916 34.8078 13.9608 34.9506C14.0056 35.0933 14.1231 35.2013 14.2691 35.2339C14.4151 35.2665 14.5674 35.2187 14.6686 35.1085L20.0686 29.2752L25.4686 35.1085C25.5482 35.1943 25.66 35.2427 25.777 35.2419C25.882 35.2444 25.9838 35.2054 26.0603 35.1335C26.1392 35.0553 26.1836 34.9488 26.1836 34.8377C26.1836 34.7266 26.1392 34.6201 26.0603 34.5419L21.002 29.0835H30.5686C31.2066 29.0836 31.8179 28.8279 32.2658 28.3737C32.7137 27.9195 32.9609 27.3047 32.952 26.6669V8.44186C32.9556 8.42539 32.9556 8.40833 32.952 8.39186H33.4353C34.1913 8.44033 34.9116 8.06453 35.3042 7.41671C35.6969 6.7689 35.6969 5.95649 35.3042 5.30868C34.9116 4.66086 34.1913 4.28506 33.4353 4.33353H33.4186ZM32.1187 8.44185V26.6669C32.1187 27.5229 31.4247 28.2169 30.5687 28.2169H9.43535C8.57931 28.2169 7.88535 27.5229 7.88535 26.6669V8.44185V8.39185H32.1354C32.1354 8.39185 32.1187 8.42519 32.1187 8.44185ZM6.58561 7.55853H33.4189C33.87 7.59621 34.3039 7.37689 34.541 6.99133C34.7781 6.60578 34.7781 6.11961 34.541 5.73405C34.3039 5.3485 33.87 5.12917 33.4189 5.16686H6.58561C6.13454 5.12917 5.70065 5.3485 5.46353 5.73405C5.22641 6.11961 5.22641 6.60578 5.46353 6.99133C5.70065 7.37689 6.13454 7.59621 6.58561 7.55853Z" fill="white"/>
<path d="M6.58531 4.33353L6.55332 4.8325L6.5693 4.83353H6.58531V4.33353ZM4.71639 5.30868L4.28881 5.04949H4.28881L4.71639 5.30868ZM4.71639 7.41671L4.28881 7.67589L4.71639 7.41671ZM6.58531 8.39186V7.89186H6.5693L6.55332 7.89289L6.58531 8.39186ZM7.06865 8.39186L7.55703 8.499L7.69022 7.89186H7.06865V8.39186ZM7.06865 8.44186H7.56865V8.38766L7.55703 8.33472L7.06865 8.44186ZM19.1186 29.0502L19.4861 29.3892L20.2602 28.5502H19.1186V29.0502ZM14.052 34.5419L13.6845 34.2028L13.6838 34.2036L14.052 34.5419ZM13.9608 34.9506L14.4378 34.8009L14.4378 34.8009L13.9608 34.9506ZM14.6686 35.1085L14.3017 34.7689L14.3005 34.7702L14.6686 35.1085ZM20.0686 29.2752L20.4356 28.9355L20.0686 28.5392L19.7017 28.9355L20.0686 29.2752ZM25.4686 35.1085L25.1017 35.4482L25.102 35.4485L25.4686 35.1085ZM25.777 35.2419L25.7888 34.742L25.7812 34.7418L25.7736 34.7419L25.777 35.2419ZM26.0603 35.1335L26.4028 35.4981L26.4124 35.4885L26.0603 35.1335ZM26.0603 34.5419L25.6936 34.8817L25.7007 34.8895L25.7082 34.8969L26.0603 34.5419ZM21.002 29.0835V28.5835H19.8569L20.6352 29.4234L21.002 29.0835ZM30.5686 29.0835L30.5687 28.5835H30.5686V29.0835ZM32.2658 28.3737L31.9098 28.0226H31.9098L32.2658 28.3737ZM32.952 26.6669H32.4519L32.452 26.6739L32.952 26.6669ZM32.952 8.44186L32.4636 8.33469L32.452 8.38764V8.44186H32.952ZM32.952 8.39186V7.89186H32.3304L32.4636 8.49903L32.952 8.39186ZM33.4353 8.39186L33.4673 7.89289L33.4513 7.89186H33.4353V8.39186ZM35.3042 7.41671L34.8767 7.15753L34.8767 7.15753L35.3042 7.41671ZM35.3042 5.30868L34.8767 5.56786L34.8767 5.56786L35.3042 5.30868ZM33.4353 4.33353V4.83353H33.4513L33.4673 4.8325L33.4353 4.33353ZM7.88535 8.39185V7.89185H7.38535V8.39185H7.88535ZM32.1354 8.39185L32.5826 8.61546L32.9444 7.89185H32.1354V8.39185ZM33.4189 7.55853L33.4606 7.06026L33.4398 7.05853H33.4189V7.55853ZM6.58561 7.55853V7.05853H6.56475L6.54398 7.06026L6.58561 7.55853ZM34.541 6.99133L34.1151 6.7294V6.7294L34.541 6.99133ZM34.541 5.73405L34.1151 5.99599V5.99599L34.541 5.73405ZM33.4189 5.16686V5.66686H33.4398L33.4606 5.66512L33.4189 5.16686ZM6.58561 5.16686L6.54398 5.66512L6.56475 5.66686H6.58561V5.16686ZM5.46353 5.73405L5.03763 5.47212H5.03763L5.46353 5.73405ZM5.46353 6.99133L5.03763 7.25327H5.03763L5.46353 6.99133ZM6.58531 4.83353H33.4186V3.83353H6.58531V4.83353ZM5.14397 5.56786C5.44009 5.07935 5.98323 4.79595 6.55332 4.8325L6.61731 3.83455C5.67542 3.77416 4.77806 4.24238 4.28881 5.04949L5.14397 5.56786ZM5.14397 7.15753C4.84784 6.66901 4.84784 6.05638 5.14397 5.56786L4.28881 5.04949C3.79956 5.85661 3.79956 6.86878 4.28881 7.67589L5.14397 7.15753ZM6.55332 7.89289C5.98323 7.92944 5.44009 7.64604 5.14397 7.15753L4.28881 7.67589C4.77806 8.48301 5.67542 8.95123 6.61731 8.89084L6.55332 7.89289ZM7.06865 7.89186H6.58531V8.89186H7.06865V7.89186ZM7.55703 8.33472C7.5689 8.38884 7.5689 8.44489 7.55703 8.499L6.58026 8.28472C6.56116 8.37178 6.56116 8.46194 6.58026 8.549L7.55703 8.33472ZM7.56865 26.6669V8.44186H6.56865V26.6669H7.56865ZM9.45198 28.5502C8.41184 28.5502 7.56865 27.707 7.56865 26.6669H6.56865C6.56865 28.2593 7.85956 29.5502 9.45198 29.5502V28.5502ZM19.1186 28.5502H9.45198V29.5502H19.1186V28.5502ZM14.4195 34.8809L19.4861 29.3892L18.7512 28.7111L13.6845 34.2028L14.4195 34.8809ZM14.4378 34.8009C14.4465 34.8286 14.4398 34.8588 14.4201 34.8802L13.6838 34.2036C13.4617 34.4452 13.3854 34.7871 13.4837 35.1002L14.4378 34.8009ZM14.378 34.7459C14.4063 34.7522 14.4292 34.7732 14.4378 34.8009L13.4837 35.1002C13.582 35.4134 13.8398 35.6504 14.1602 35.7219L14.378 34.7459ZM14.3005 34.7702C14.3201 34.7488 14.3497 34.7396 14.378 34.7459L14.1602 35.7219C14.4806 35.7934 14.8147 35.6885 15.0368 35.4468L14.3005 34.7702ZM19.7017 28.9355L14.3017 34.7689L15.0356 35.4482L20.4356 29.6149L19.7017 28.9355ZM25.8356 34.7689L20.4356 28.9355L19.7017 29.6149L25.1017 35.4482L25.8356 34.7689ZM25.7736 34.7419C25.797 34.7417 25.8194 34.7514 25.8353 34.7685L25.102 35.4485C25.277 35.6372 25.5231 35.7436 25.7804 35.7419L25.7736 34.7419ZM25.718 34.7691C25.7371 34.7511 25.7626 34.7414 25.7888 34.742L25.7651 35.7417C26.0014 35.7473 26.2304 35.6598 26.4026 35.498L25.718 34.7691ZM25.6836 34.8377C25.6836 34.8155 25.6924 34.7942 25.7082 34.7785L26.4124 35.4885C26.586 35.3164 26.6836 35.0821 26.6836 34.8377H25.6836ZM25.7082 34.8969C25.6924 34.8812 25.6836 34.8599 25.6836 34.8377H26.6836C26.6836 34.5933 26.586 34.359 26.4124 34.1869L25.7082 34.8969ZM20.6352 29.4234L25.6936 34.8817L26.427 34.202L21.3687 28.7437L20.6352 29.4234ZM30.5686 28.5835H21.002V29.5835H30.5686V28.5835ZM31.9098 28.0226C31.5559 28.3815 31.0728 28.5836 30.5687 28.5835L30.5686 29.5835C31.3403 29.5836 32.0799 29.2743 32.6218 28.7248L31.9098 28.0226ZM32.452 26.6739C32.4591 27.1779 32.2638 27.6637 31.9098 28.0226L32.6218 28.7248C33.1637 28.1753 33.4627 27.4315 33.4519 26.6599L32.452 26.6739ZM32.452 8.44186V26.6669H33.452V8.44186H32.452ZM32.4636 8.49903C32.4517 8.4449 32.4517 8.38883 32.4636 8.33469L33.4404 8.54904C33.4595 8.46195 33.4595 8.37177 33.4404 8.28469L32.4636 8.49903ZM33.4353 7.89186H32.952V8.89186H33.4353V7.89186ZM34.8767 7.15753C34.5805 7.64604 34.0374 7.92944 33.4673 7.89289L33.4033 8.89084C34.3452 8.95123 35.2426 8.48301 35.7318 7.67589L34.8767 7.15753ZM34.8767 5.56786C35.1728 6.05638 35.1728 6.66901 34.8767 7.15753L35.7318 7.67589C36.2211 6.86878 36.2211 5.85661 35.7318 5.04949L34.8767 5.56786ZM33.4673 4.8325C34.0374 4.79595 34.5805 5.07935 34.8767 5.56786L35.7318 5.0495C35.2426 4.24238 34.3452 3.77416 33.4033 3.83455L33.4673 4.8325ZM33.4186 4.83353H33.4353V3.83353H33.4186V4.83353ZM32.6187 26.6669V8.44185H31.6187V26.6669H32.6187ZM30.5687 28.7169C31.7009 28.7169 32.6187 27.799 32.6187 26.6669H31.6187C31.6187 27.2468 31.1486 27.7169 30.5687 27.7169V28.7169ZM9.43535 28.7169H30.5687V27.7169H9.43535V28.7169ZM7.38535 26.6669C7.38535 27.799 8.30317 28.7169 9.43535 28.7169V27.7169C8.85545 27.7169 8.38535 27.2468 8.38535 26.6669H7.38535ZM7.38535 8.44185V26.6669H8.38535V8.44185H7.38535ZM7.38535 8.39185V8.44185H8.38535V8.39185H7.38535ZM32.1354 7.89185H7.88535V8.89185H32.1354V7.89185ZM32.6187 8.44185C32.6187 8.50756 32.6046 8.55533 32.6021 8.56437C32.5973 8.58102 32.5928 8.59241 32.5913 8.5963C32.5893 8.60123 32.5877 8.60476 32.5867 8.60685C32.5862 8.60808 32.5856 8.60934 32.5849 8.61069C32.5846 8.61137 32.5842 8.6121 32.5838 8.61289C32.5837 8.61328 32.5834 8.61369 32.5832 8.61412C32.5831 8.61433 32.583 8.61455 32.5829 8.61477C32.5829 8.61489 32.5828 8.615 32.5827 8.61511C32.5827 8.61517 32.5827 8.61523 32.5827 8.61528C32.5826 8.61531 32.5826 8.61536 32.5826 8.61537C32.5826 8.61542 32.5826 8.61546 32.1354 8.39185C31.6881 8.16825 31.6881 8.16829 31.6881 8.16834C31.6881 8.16835 31.6881 8.1684 31.6881 8.16843C31.688 8.16849 31.688 8.16855 31.688 8.16861C31.6879 8.16873 31.6878 8.16885 31.6878 8.16898C31.6876 8.16924 31.6875 8.1695 31.6874 8.16978C31.6871 8.17033 31.6868 8.17093 31.6865 8.17158C31.6859 8.17286 31.6851 8.17432 31.6844 8.17595C31.6828 8.17918 31.6809 8.18318 31.6788 8.1878C31.6747 8.19666 31.6689 8.20956 31.6628 8.22491C31.6571 8.23922 31.6484 8.26207 31.6405 8.28965C31.6348 8.30963 31.6187 8.36782 31.6187 8.44185H32.6187ZM33.4189 7.05853H6.58561V8.05853H33.4189V7.05853ZM34.1151 6.7294C33.9768 6.95431 33.7237 7.08225 33.4606 7.06026L33.3773 8.05679C34.0163 8.11018 34.631 7.79947 34.9669 7.25327L34.1151 6.7294ZM34.1151 5.99599C34.2534 6.22089 34.2534 6.50449 34.1151 6.7294L34.9669 7.25327C35.3028 6.70707 35.3028 6.01832 34.9669 5.47212L34.1151 5.99599ZM33.4606 5.66512C33.7237 5.64314 33.9768 5.77108 34.1151 5.99599L34.9669 5.47212C34.631 4.92592 34.0163 4.61521 33.3773 4.6686L33.4606 5.66512ZM6.58561 5.66686H33.4189V4.66686H6.58561V5.66686ZM5.88943 5.99599C6.02775 5.77108 6.28086 5.64314 6.54398 5.66512L6.62724 4.6686C5.98823 4.61521 5.37355 4.92592 5.03763 5.47212L5.88943 5.99599ZM5.88943 6.7294C5.75111 6.50449 5.75111 6.22089 5.88943 5.99599L5.03763 5.47212C4.70171 6.01832 4.70171 6.70707 5.03763 7.25327L5.88943 6.7294ZM6.54398 7.06026C6.28086 7.08225 6.02775 6.95431 5.88943 6.7294L5.03763 7.25327C5.37355 7.79947 5.98823 8.11018 6.62724 8.05679L6.54398 7.06026Z" fill="#6096FF"/>
</svg>
