<svg width="40" height="40" viewBox="0 0 40 40" fill="none" xmlns="http://www.w3.org/2000/svg">
<path fill-rule="evenodd" clip-rule="evenodd" d="M8.84115 4.25854H31.1578C33.6872 4.26313 35.7366 6.31248 35.7411 8.84188V31.1585C35.7366 33.6879 33.6872 35.7373 31.1578 35.7419H8.84115C6.31174 35.7373 4.2624 33.6879 4.25781 31.1585V8.84188C4.2624 6.31248 6.31174 4.26313 8.84115 4.25854ZM31.1578 34.9085C33.227 34.904 34.9032 33.2277 34.9078 31.1585V8.84188C34.9032 6.77271 33.227 5.09646 31.1578 5.09188H8.84115C6.77198 5.09646 5.09573 6.77271 5.09115 8.84188V31.1585C5.09573 33.2277 6.77198 34.904 8.84115 34.9085H31.1578Z" fill="white"/>
<path d="M31.1578 4.25854L31.1587 3.75854H31.1578V4.25854ZM8.84115 4.25854V3.75854L8.84024 3.75855L8.84115 4.25854ZM35.7411 8.84188H36.2411V8.84097L35.7411 8.84188ZM35.7411 31.1585L36.2411 31.1595V31.1585H35.7411ZM31.1578 35.7419V36.2419H31.1587L31.1578 35.7419ZM8.84115 35.7419L8.84024 36.2419H8.84115V35.7419ZM4.25781 31.1585H3.75781L3.75781 31.1595L4.25781 31.1585ZM4.25781 8.84188L3.75781 8.84097V8.84188H4.25781ZM34.9078 31.1585L35.4078 31.1597V31.1585H34.9078ZM31.1578 34.9085V35.4085L31.1589 35.4085L31.1578 34.9085ZM34.9078 8.84188H35.4078L35.4078 8.84077L34.9078 8.84188ZM31.1578 5.09188L31.1589 4.59188H31.1578V5.09188ZM8.84115 5.09188V4.59188L8.84004 4.59188L8.84115 5.09188ZM5.09115 8.84188L4.59115 8.84077V8.84188H5.09115ZM5.09115 31.1585H4.59114L4.59115 31.1597L5.09115 31.1585ZM8.84115 34.9085L8.84004 35.4085H8.84115V34.9085ZM31.1578 3.75854H8.84115V4.75854H31.1578V3.75854ZM36.2411 8.84097C36.2361 6.03613 33.9636 3.76363 31.1587 3.75855L31.1569 4.75854C33.4109 4.76263 35.2371 6.58882 35.2411 8.84278L36.2411 8.84097ZM36.2411 31.1585V8.84188H35.2411V31.1585H36.2411ZM31.1587 36.2419C33.9636 36.2368 36.2361 33.9643 36.2411 31.1595L35.2411 31.1576C35.2371 33.4116 33.4109 35.2378 31.1569 35.2419L31.1587 36.2419ZM8.84115 36.2419H31.1578V35.2419H8.84115V36.2419ZM3.75781 31.1595C3.7629 33.9643 6.0354 36.2368 8.84024 36.2419L8.84205 35.2419C6.58808 35.2378 4.7619 33.4116 4.75781 31.1576L3.75781 31.1595ZM3.75781 8.84188V31.1585H4.75781V8.84188H3.75781ZM8.84024 3.75855C6.0354 3.76363 3.7629 6.03613 3.75781 8.84097L4.75781 8.84278C4.7619 6.58882 6.58808 4.76263 8.84205 4.75854L8.84024 3.75855ZM34.4078 31.1574C34.4038 32.9513 32.9506 34.4046 31.1567 34.4085L31.1589 35.4085C33.5034 35.4034 35.4026 33.5041 35.4078 31.1597L34.4078 31.1574ZM34.4078 8.84188V31.1585H35.4078V8.84188H34.4078ZM31.1567 5.59188C32.9506 5.59585 34.4038 7.0491 34.4078 8.84299L35.4078 8.84077C35.4026 6.49633 33.5034 4.59707 31.1589 4.59188L31.1567 5.59188ZM8.84115 5.59188H31.1578V4.59188H8.84115V5.59188ZM5.59114 8.84299C5.59512 7.0491 7.04836 5.59585 8.84225 5.59188L8.84004 4.59188C6.49559 4.59707 4.59634 6.49633 4.59115 8.84077L5.59114 8.84299ZM5.59115 31.1585V8.84188H4.59115V31.1585H5.59115ZM8.84225 34.4085C7.04836 34.4046 5.59512 32.9513 5.59114 31.1574L4.59115 31.1597C4.59634 33.5041 6.49559 35.4034 8.84004 35.4085L8.84225 34.4085ZM31.1578 34.4085H8.84115V35.4085H31.1578V34.4085Z" fill="#6096FF"/>
<path fill-rule="evenodd" clip-rule="evenodd" d="M11.4768 7.2168H28.5268C30.8786 7.2168 32.7852 9.12332 32.7852 11.4751V28.5001C32.7852 30.8519 30.8786 32.7585 28.5268 32.7585H11.4768C9.12501 32.7585 7.21849 30.8519 7.21849 28.5001V28.2001C6.52435 28.0129 6.04031 27.3857 6.03516 26.6668V23.7001C6.04031 22.9812 6.52435 22.354 7.21849 22.1668V17.2918C6.52435 17.1046 6.04031 16.4774 6.03516 15.7585V12.7668C6.03956 12.0376 6.53646 11.4036 7.24349 11.2251C7.3714 8.97921 9.22727 7.22198 11.4768 7.2168ZM6.86023 12.7668V15.7585C6.9011 16.1489 7.23022 16.4454 7.62273 16.4454C8.01525 16.4454 8.34437 16.1489 8.38523 15.7585V12.7668C8.34437 12.3765 8.01525 12.08 7.62273 12.08C7.23022 12.08 6.9011 12.3765 6.86023 12.7668ZM6.86849 26.6669V23.7002C6.90936 23.3098 7.23847 23.0134 7.63099 23.0134C8.02351 23.0134 8.35262 23.3098 8.39349 23.7002V26.6669C8.35262 27.0573 8.02351 27.3537 7.63099 27.3537C7.23847 27.3537 6.90936 27.0573 6.86849 26.6669ZM28.5268 31.9251C30.4165 31.9205 31.9472 30.3898 31.9518 28.5001V11.4751C31.9472 9.58546 30.4165 8.05471 28.5268 8.05013H11.4768C9.68235 8.05906 8.19903 9.4515 8.0768 11.2418C8.7581 11.4357 9.22774 12.0585 9.2268 12.7668V15.7585C9.22552 16.476 8.74431 17.104 8.0518 17.2918V22.1668C8.74431 22.3546 9.22552 22.9826 9.2268 23.7001V26.6668C9.22552 27.3843 8.74431 28.0123 8.0518 28.2001V28.5001C8.05638 30.3898 9.58712 31.9205 11.4768 31.9251H28.5268Z" fill="white"/>
<path fill-rule="evenodd" clip-rule="evenodd" d="M23.0758 18.6665L26.5924 17.9998C27.5398 17.8229 28.4871 18.3084 28.8968 19.1807C29.3065 20.0531 29.0752 21.092 28.3341 21.7082C27.9543 22.0064 27.4836 22.1653 27.0008 22.1582C26.8705 22.1705 26.7394 22.1705 26.6091 22.1582L23.0091 21.4748C22.6724 22.1659 22.1071 22.7194 21.4091 23.0415L22.0924 26.6665C22.2201 27.4878 21.8532 28.3075 21.1557 28.7595C20.4581 29.2115 19.5601 29.2115 18.8626 28.7595C18.165 28.3075 17.7982 27.4878 17.9258 26.6665L18.6424 23.0248C17.9444 22.7027 17.3792 22.1493 17.0424 21.4582L13.4424 22.1415C13.3122 22.1538 13.181 22.1538 13.0508 22.1415C12.2192 22.1893 11.4368 21.745 11.052 21.0063C10.6671 20.2675 10.7513 19.3718 11.2671 18.7177C11.7829 18.0636 12.6343 17.7728 13.4424 17.9748L16.9591 18.6415C17.2969 17.9041 17.8884 17.3126 18.6258 16.9748L17.9674 13.4915C17.8462 12.8728 18.0116 12.2324 18.4174 11.7498C18.8302 11.2859 19.4215 11.0205 20.0424 11.0205C20.6634 11.0205 21.2547 11.2859 21.6674 11.7498C22.0632 12.2469 22.2105 12.8974 22.0674 13.5165L21.4091 16.9998C22.1465 17.3376 22.7379 17.9291 23.0758 18.6665ZM19.0174 12.2831C18.7683 12.5718 18.6668 12.9594 18.7424 13.3331L19.3757 16.7081C19.5304 16.6856 19.6862 16.6717 19.8424 16.6664C19.9505 16.6581 20.0592 16.6581 20.1674 16.6664C20.3208 16.6717 20.4738 16.6856 20.6257 16.7081L21.259 13.3331C21.3346 12.9594 21.2331 12.5718 20.984 12.2831C20.7435 11.9869 20.3823 11.8149 20.0007 11.8149C19.6191 11.8149 19.2579 11.9869 19.0174 12.2831ZM13.259 21.3415C12.8825 21.4106 12.4948 21.3093 12.2003 21.0647C11.9059 20.8201 11.7351 20.4576 11.734 20.0748C11.7371 19.6943 11.9078 19.3345 12.2006 19.0915C12.4348 18.8981 12.7303 18.7947 13.034 18.7998H13.2756L16.7173 19.4498C16.6835 19.6312 16.6668 19.8153 16.6673 19.9998C16.668 20.2292 16.6903 20.458 16.734 20.6832L13.259 21.3415ZM20.984 27.875C21.2331 27.5863 21.3346 27.1987 21.259 26.825L20.5924 23.2916C20.5035 23.2961 20.4145 23.2961 20.3257 23.2916C20.0852 23.3249 19.8412 23.3249 19.6007 23.2916H19.409L18.7424 26.825C18.6668 27.1987 18.7683 27.5863 19.0174 27.875C19.2658 28.158 19.6241 28.3203 20.0007 28.3203C20.3773 28.3203 20.7356 28.158 20.984 27.875ZM20.8342 22.3749C20.7095 22.4189 20.5812 22.4523 20.4509 22.4749C20.3022 22.4987 20.1514 22.5071 20.0009 22.4999C19.861 22.4989 19.7215 22.485 19.5842 22.4583C19.4594 22.4356 19.3367 22.4021 19.2176 22.3583C18.4858 22.1195 17.9048 21.557 17.6426 20.8333C17.5932 20.6947 17.5542 20.5527 17.5259 20.4083C17.5067 20.2731 17.4983 20.1365 17.5009 19.9999C17.4923 19.8723 17.4923 19.7442 17.5009 19.6166C17.5246 19.4983 17.5553 19.3814 17.5926 19.2666C17.826 18.5016 18.4115 17.8944 19.1676 17.6333L19.5509 17.5333C19.8261 17.48 20.109 17.48 20.3842 17.5333L20.7676 17.6333C21.5217 17.8927 22.1068 18.4964 22.3426 19.2583C22.3799 19.3731 22.4105 19.4899 22.4342 19.6083C22.4655 19.7371 22.4878 19.868 22.5009 19.9999C22.4998 20.1481 22.4859 20.2959 22.4592 20.4416C22.431 20.586 22.392 20.728 22.3426 20.8666C22.0903 21.5694 21.537 22.1227 20.8342 22.3749ZM26.7841 21.3416C27.1601 21.4088 27.5467 21.3084 27.8424 21.0666H27.7841C28.0806 20.8245 28.2526 20.4619 28.2526 20.0791C28.2526 19.6963 28.0806 19.3338 27.7841 19.0916C27.4883 18.8499 27.1017 18.7494 26.7257 18.8166L23.2841 19.4666C23.3168 19.6425 23.3336 19.821 23.3341 20C23.3527 20.2275 23.3499 20.4563 23.3257 20.6833L26.7841 21.3416Z" fill="white"/>
</svg>
