<svg width="40" height="40" viewBox="0 0 40 40" fill="none" xmlns="http://www.w3.org/2000/svg">
<path d="M19.1167 13.7665H23.3333C23.5635 13.7665 23.75 13.58 23.75 13.3499C23.75 13.1197 23.5635 12.9332 23.3333 12.9332H20.4167V11.2665C20.4167 11.0364 20.2301 10.8499 20 10.8499C19.7699 10.8499 19.5833 11.0364 19.5833 11.2665V12.9332H19.1167C17.5335 12.9332 16.25 14.2166 16.25 15.7999C16.25 17.3831 17.5335 18.6665 19.1167 18.6665H20.8833C22.0063 18.6665 22.9167 19.5769 22.9167 20.6999C22.9167 21.8228 22.0063 22.7332 20.8833 22.7332H16.6667C16.4365 22.7332 16.25 22.9197 16.25 23.1499C16.25 23.38 16.4365 23.5665 16.6667 23.5665H19.5833V25.2332C19.5833 25.4633 19.7699 25.6499 20 25.6499C20.2301 25.6499 20.4167 25.4633 20.4167 25.2332V23.5665H20.8833C22.4665 23.5665 23.75 22.2831 23.75 20.6999C23.75 19.1166 22.4665 17.8332 20.8833 17.8332H19.1167C17.9937 17.8332 17.0833 16.9228 17.0833 15.7999C17.0833 14.6769 17.9937 13.7665 19.1167 13.7665Z" fill="white"/>
<path fill-rule="evenodd" clip-rule="evenodd" d="M8.60729 6.85833C15.7829 3.29136 24.215 3.29136 31.3906 6.85833C32.9717 7.65896 33.9629 9.28612 33.949 11.0583V18.925C33.9508 21.0082 33.546 23.0718 32.7573 25V25.0833C31.3239 28.5946 28.6935 31.4849 25.3323 33.2417L20.724 35.6583C20.4998 35.7739 20.2512 35.8339 19.999 35.8333C19.7412 35.8196 19.4914 35.7392 19.274 35.6L14.599 33.1417C9.32067 30.3677 6.01529 24.8962 6.01563 18.9333V11.025C6.02067 9.25736 7.024 7.64429 8.60729 6.85833ZM32.0156 24.6667C32.7651 22.8395 33.1501 20.8833 33.149 18.9083V11.0583C33.1564 9.59494 32.3282 8.25556 31.0156 7.60835C24.0777 4.15243 15.9202 4.15243 8.98231 7.60835C7.66977 8.25556 6.84156 9.59494 6.84898 11.0583V18.9667C6.86513 24.6069 9.99803 29.776 14.9906 32.4L19.6656 34.9C19.8747 35.0082 20.1233 35.0082 20.3323 34.9L24.949 32.5C28.1449 30.8311 30.648 28.086 32.0156 24.75V24.6667Z" fill="white"/>
<path d="M31.3906 6.85833L31.6165 6.41225L31.6132 6.4106L31.3906 6.85833ZM8.60729 6.85833L8.82961 7.30618L8.82986 7.30606L8.60729 6.85833ZM33.949 11.0583L33.449 11.0544V11.0583H33.949ZM33.949 18.925H33.449V18.9254L33.949 18.925ZM32.7573 25L32.2945 24.8107L32.2573 24.9017V25H32.7573ZM32.7573 25.0833L33.2202 25.2723L33.2573 25.1815V25.0833H32.7573ZM25.3323 33.2417L25.1007 32.7985L25.1001 32.7989L25.3323 33.2417ZM20.724 35.6583L20.953 36.1028L20.9562 36.1011L20.724 35.6583ZM19.999 35.8333L19.9724 36.3326L19.9851 36.3333L19.9979 36.3333L19.999 35.8333ZM19.274 35.6L19.5436 35.1789L19.5256 35.1674L19.5067 35.1574L19.274 35.6ZM14.599 33.1417L14.8317 32.6991L14.8316 32.6991L14.599 33.1417ZM6.01563 18.9333L6.51562 18.9334V18.9333H6.01563ZM6.01563 11.025L5.51563 11.0236V11.025H6.01563ZM33.149 18.9083H32.649V18.9086L33.149 18.9083ZM32.0156 24.6667L31.553 24.4769L31.5156 24.5681V24.6667H32.0156ZM33.149 11.0583L32.649 11.0558V11.0583H33.149ZM31.0156 7.60835L30.7927 8.0559L30.7945 8.0568L31.0156 7.60835ZM8.98231 7.60835L9.20344 8.0568L9.20525 8.0559L8.98231 7.60835ZM6.84898 11.0583H7.34898L7.34897 11.0558L6.84898 11.0583ZM6.84898 18.9667H6.34898L6.34898 18.9681L6.84898 18.9667ZM14.9906 32.4L15.2264 31.9591L15.2233 31.9574L14.9906 32.4ZM19.6656 34.9L19.4298 35.341L19.4358 35.344L19.6656 34.9ZM20.3323 34.9L20.5622 35.344L20.5629 35.3436L20.3323 34.9ZM24.949 32.5L25.1796 32.9437L25.1804 32.9432L24.949 32.5ZM32.0156 24.75L32.4783 24.9397L32.5156 24.8485V24.75H32.0156ZM31.6132 6.4106C24.2974 2.77394 15.7005 2.77394 8.38473 6.4106L8.82986 7.30606C15.8653 3.80879 24.1326 3.80879 31.1681 7.30606L31.6132 6.4106ZM34.4489 11.0623C34.4644 9.10017 33.367 7.29867 31.6165 6.41226L31.1647 7.3044C32.5765 8.01925 33.4614 9.47207 33.449 11.0544L34.4489 11.0623ZM34.449 18.925V11.0583H33.449V18.925H34.449ZM33.2201 25.1893C34.0334 23.2009 34.4509 21.0729 34.449 18.9246L33.449 18.9254C33.4508 20.9436 33.0586 22.9427 32.2945 24.8107L33.2201 25.1893ZM33.2573 25.0833V25H32.2573V25.0833H33.2573ZM25.5639 33.6848C29.0298 31.8733 31.7422 28.893 33.2202 25.2723L32.2944 24.8944C30.9057 28.2963 28.3571 31.0965 25.1007 32.7985L25.5639 33.6848ZM20.9562 36.1011L25.5645 33.6845L25.1001 32.7989L20.4917 35.2155L20.9562 36.1011ZM19.9979 36.3333C20.3301 36.3341 20.6577 36.255 20.953 36.1028L20.4949 35.2139C20.3419 35.2927 20.1722 35.3337 20.0001 35.3333L19.9979 36.3333ZM19.0043 36.0211C19.2946 36.2069 19.6282 36.3143 19.9724 36.3326L20.0256 35.334C19.8542 35.3249 19.6881 35.2715 19.5436 35.1789L19.0043 36.0211ZM14.3662 33.5842L19.0412 36.0425L19.5067 35.1574L14.8317 32.6991L14.3662 33.5842ZM5.51563 18.9333C5.51528 25.0819 8.92363 30.7239 14.3664 33.5843L14.8316 32.6991C9.71771 30.0115 6.5153 24.7104 6.51562 18.9334L5.51563 18.9333ZM5.51563 11.025V18.9333H6.51562V11.025H5.51563ZM8.38497 6.41047C6.63204 7.28065 5.52121 9.06654 5.51563 11.0236L6.51562 11.0264C6.52013 9.44818 7.41595 8.00794 8.82961 7.30618L8.38497 6.41047ZM32.649 18.9086C32.6501 20.8184 32.2778 22.71 31.553 24.4769L32.4782 24.8564C33.2525 22.9689 33.6502 20.9482 33.649 18.9081L32.649 18.9086ZM32.649 11.0583V18.9083H33.649V11.0583H32.649ZM30.7945 8.0568C31.9355 8.6194 32.6554 9.7837 32.649 11.0558L33.649 11.0609C33.6574 9.40618 32.7209 7.89171 31.2368 7.1599L30.7945 8.0568ZM9.20525 8.0559C16.0027 4.66991 23.9952 4.66991 30.7927 8.0559L31.2386 7.1608C24.1603 3.63494 15.8377 3.63494 8.75938 7.1608L9.20525 8.0559ZM7.34897 11.0558C7.34252 9.7837 8.06247 8.6194 9.20344 8.0568L8.76118 7.1599C7.27707 7.89171 6.34059 9.40618 6.34898 11.0609L7.34897 11.0558ZM7.34898 18.9667V11.0583H6.34898V18.9667H7.34898ZM15.2233 31.9574C10.3946 29.4196 7.3646 24.4202 7.34898 18.9653L6.34898 18.9681C6.36566 24.7935 9.60144 30.1324 14.758 32.8426L15.2233 31.9574ZM19.9014 34.4591L15.2264 31.9591L14.7549 32.8409L19.4299 35.3409L19.9014 34.4591ZM20.1024 34.456C20.0375 34.4896 19.9604 34.4896 19.8955 34.456L19.4358 35.344C19.789 35.5269 20.209 35.5269 20.5622 35.344L20.1024 34.456ZM24.7184 32.0564L20.1017 34.4564L20.5629 35.3436L25.1796 32.9436L24.7184 32.0564ZM31.553 24.5604C30.2301 27.7872 27.8089 30.4425 24.7175 32.0568L25.1804 32.9432C28.4809 31.2197 31.0659 28.3848 32.4783 24.9397L31.553 24.5604ZM31.5156 24.6667V24.75H32.5156V24.6667H31.5156Z" fill="#6096FF"/>
</svg>
