<svg width="24" height="24" viewBox="0 0 24 24" fill="none" xmlns="http://www.w3.org/2000/svg">
<path opacity="0.4" d="M2.80469 15.4771C2.80469 15.4771 2.94669 17.2151 2.97969 17.7631C3.02369 18.4981 3.30769 19.3191 3.78169 19.8891C4.45069 20.6971 5.23869 20.9821 6.29069 20.9841C7.52769 20.9861 16.5227 20.9861 17.7597 20.9841C18.8117 20.9821 19.5997 20.6971 20.2687 19.8891C20.7427 19.3191 21.0267 18.4981 21.0717 17.7631C21.1037 17.2151 21.2457 15.4771 21.2457 15.4771" stroke="white" stroke-width="1.5" stroke-linecap="round" stroke-linejoin="round"/>
<path d="M8.49609 5.32949V4.95849C8.49609 3.73849 9.48409 2.75049 10.7041 2.75049H13.2861C14.5051 2.75049 15.4941 3.73849 15.4941 4.95849L15.4951 5.32949" stroke="white" stroke-width="1.5" stroke-linecap="round" stroke-linejoin="round"/>
<path d="M11.9961 16.6783V15.3843" stroke="white" stroke-width="1.5" stroke-linecap="round" stroke-linejoin="round"/>
<path fill-rule="evenodd" clip-rule="evenodd" d="M2.75 8.38905V11.8561C4.668 13.1211 6.966 14.0071 9.488 14.3581C9.79 13.2571 10.783 12.4501 11.99 12.4501C13.178 12.4501 14.191 13.2571 14.473 14.3681C17.005 14.0171 19.312 13.1311 21.24 11.8561V8.38905C21.24 6.69505 19.877 5.33105 18.183 5.33105H5.817C4.123 5.33105 2.75 6.69505 2.75 8.38905Z" stroke="white" stroke-width="1.5" stroke-linecap="round" stroke-linejoin="round"/>
</svg>
