<svg width="10" height="10" viewBox="0 0 10 10" fill="none" xmlns="http://www.w3.org/2000/svg">
<path d="M6.41601 3.62533V1.79199C6.41601 1.42732 6.27115 1.07758 6.01329 0.81972C5.75542 0.561858 5.40569 0.416992 5.04102 0.416992L3.20768 4.54199V9.58366H8.37768C8.59875 9.58616 8.81327 9.50868 8.98172 9.36549C9.15017 9.22231 9.2612 9.02307 9.29435 8.80449L9.92685 4.67949C9.94679 4.54811 9.93793 4.41397 9.90088 4.28636C9.86383 4.15874 9.79948 4.04071 9.71228 3.94044C9.62509 3.84016 9.51713 3.76004 9.3959 3.70563C9.27467 3.65122 9.14306 3.62382 9.01018 3.62533H6.41601Z" fill="#CACACA"/>
<path fill-rule="evenodd" clip-rule="evenodd" d="M6.41601 1.79199V3.62533H9.01018C9.14306 3.62382 9.27467 3.65122 9.3959 3.70563C9.51713 3.76004 9.62509 3.84016 9.71228 3.94044C9.79948 4.04071 9.86383 4.15874 9.90088 4.28636C9.93793 4.41397 9.94679 4.54811 9.92685 4.67949L9.29435 8.80449C9.2612 9.02307 9.15017 9.22231 8.98172 9.36549C8.81327 9.50868 8.59875 9.58616 8.37768 9.58366H3.20768V4.54199L5.04102 0.416992C5.40569 0.416992 5.75542 0.561858 6.01329 0.81972C6.27115 1.07758 6.41601 1.42732 6.41601 1.79199Z" fill="#CACACA"/>
<path d="M3.20768 9.58366V4.54199H1.83268C1.58957 4.54199 1.35641 4.63857 1.1845 4.81048C1.01259 4.98239 0.916016 5.21554 0.916016 5.45866V8.66699C0.916016 8.91011 1.01259 9.14326 1.1845 9.31517C1.35641 9.48708 1.58957 9.58366 1.83268 9.58366H3.20768Z" fill="#CACACA"/>
</svg>
