<svg width="20" height="20" viewBox="0 0 20 20" fill="none" xmlns="http://www.w3.org/2000/svg">
<path d="M5.41732 19.1663H2.66732C2.18109 19.1663 1.71477 18.9732 1.37096 18.6294C1.02714 18.2856 0.833984 17.8192 0.833984 17.333V10.9163C0.833984 10.4301 1.02714 9.9638 1.37096 9.61998C1.71477 9.27616 2.18109 9.08301 2.66732 9.08301H5.41732M11.834 7.24967V3.58301C11.834 2.85366 11.5443 2.15419 11.0285 1.63846C10.5128 1.12274 9.81333 0.833008 9.08398 0.833008L5.41732 9.08301V19.1663H15.7573C16.1995 19.1713 16.6285 19.0164 16.9654 18.73C17.3023 18.4436 17.5244 18.0452 17.5906 17.608L18.8556 9.35801C18.8955 9.09525 18.8778 8.82697 18.8037 8.57174C18.7296 8.31651 18.6009 8.08044 18.4265 7.8799C18.2521 7.67935 18.0362 7.51911 17.7938 7.41029C17.5513 7.30147 17.2881 7.24667 17.0223 7.24967H11.834Z" stroke="white" stroke-width="1.5" stroke-linecap="round" stroke-linejoin="round"/>
</svg>
