<svg width="56" height="56" viewBox="0 0 56 56" fill="none" xmlns="http://www.w3.org/2000/svg">
<path d="M28 56C43.464 56 56 43.464 56 28C56 12.536 43.464 0 28 0C12.536 0 0 12.536 0 28C0 43.464 12.536 56 28 56Z" fill="#0C0D0F"/>
<path d="M20.6665 35.668C21.4247 35.6667 22.1752 35.5153 22.8746 35.2226C23.574 34.9298 24.2086 34.5015 24.7416 33.9623C25.2747 33.4231 25.6957 32.7837 25.9804 32.081C26.2652 31.3783 26.4079 30.6261 26.4005 29.868C26.3923 28.3262 25.7738 26.8504 24.6803 25.7634C23.5868 24.6765 22.1074 24.0669 20.5655 24.068C20.5335 24.068 20.4855 24.068 20.4535 24.068C21.7582 23.0212 23.3809 22.4508 25.0535 22.451C25.2437 22.4508 25.432 22.4132 25.6077 22.3402C25.7833 22.2673 25.9428 22.1604 26.0771 22.0257C26.2114 21.8911 26.3179 21.7312 26.3904 21.5554C26.4628 21.3796 26.4999 21.1912 26.4995 21.001C26.5143 20.818 26.4914 20.6339 26.4322 20.46C26.373 20.2862 26.2788 20.1264 26.1553 19.9905C26.0319 19.8546 25.8818 19.7455 25.7145 19.6699C25.5472 19.5943 25.3661 19.5538 25.1825 19.551C23.8356 19.5553 22.5028 19.8259 21.2609 20.3474C20.019 20.8689 18.8925 21.631 17.9463 22.5896C17.0001 23.5483 16.2529 24.6846 15.7477 25.9332C15.2424 27.1819 14.9892 28.5181 15.0025 29.865C14.987 30.6196 15.1219 31.3698 15.3993 32.0718C15.6767 32.7737 16.0911 33.4134 16.6183 33.9536C17.1455 34.4937 17.775 34.9235 18.47 35.2179C19.1651 35.5122 19.9117 35.6652 20.6665 35.668Z" fill="white"/>
<path d="M34.2549 35.668C35.0134 35.6668 35.7642 35.5155 36.4641 35.2228C37.1639 34.9301 37.7988 34.5018 38.3323 33.9625C38.8658 33.4233 39.2873 32.7837 39.5725 32.0808C39.8576 31.3779 40.0009 30.6255 39.9939 29.867C39.9862 28.3254 39.3681 26.8496 38.2749 25.7626C37.1818 24.6756 35.7025 24.0659 34.1609 24.067C34.1289 24.067 34.0819 24.067 34.0499 24.067C35.3546 23.0203 36.9772 22.4499 38.6499 22.45C39.0331 22.4492 39.4004 22.2964 39.6711 22.0251C39.9418 21.7538 40.0939 21.3862 40.0939 21.003C40.1077 20.8195 40.0838 20.6352 40.0237 20.4613C39.9636 20.2874 39.8686 20.1276 39.7445 19.9918C39.6204 19.856 39.4698 19.747 39.302 19.6715C39.1343 19.5961 38.9528 19.5557 38.7689 19.553C37.4215 19.5571 36.0883 19.8277 34.8458 20.349C33.6034 20.8704 32.4764 21.6323 31.5295 22.5908C30.5827 23.5494 29.8347 24.6857 29.3286 25.9345C28.8226 27.1832 28.5685 28.5197 28.5809 29.867C28.5665 30.622 28.7026 31.3724 28.9811 32.0744C29.2595 32.7763 29.6749 33.4159 30.203 33.9558C30.731 34.4956 31.3612 34.9251 32.0569 35.219C32.7525 35.513 33.4997 35.6656 34.2549 35.668Z" fill="white"/>
</svg>
