<svg width="36" height="36" viewBox="0 0 36 36" fill="none" xmlns="http://www.w3.org/2000/svg">
<g clip-path="url(#clip0)">
<path d="M18 36C27.9411 36 36 27.9411 36 18C36 8.05888 27.9411 0 18 0C8.05888 0 0 8.05888 0 18C0 27.9411 8.05888 36 18 36Z" fill="#20232C"/>
<path d="M35.8261 0H0.173913C0.0778635 0 0 0.0778635 0 0.173913V35.8261C0 35.9221 0.0778635 36 0.173913 36H35.8261C35.9221 36 36 35.9221 36 35.8261V0.173913C36 0.0778635 35.9221 0 35.8261 0Z" fill="black"/>
<path d="M11.2247 33.7383H7.54297V15.834H19.4204V19.2131H11.2247V22.9705H19.0421V26.3496H11.2247V33.7383ZM32.3871 15.834H36.6488L30.0418 27.4844V33.7383H26.3601V27.4844L19.7531 15.834H24.0149L28.1757 23.727H28.2262L32.3871 15.834Z" fill="white"/>
<path d="M9.56709 14.1732C11.44 14.1732 12.9584 12.6549 12.9584 10.7819C12.9584 8.90897 11.44 7.39062 9.56709 7.39062C7.69412 7.39062 6.17578 8.90897 6.17578 10.7819C6.17578 12.6549 7.69412 14.1732 9.56709 14.1732Z" fill="white"/>
</g>
<defs>
<clipPath id="clip0">
<rect width="36" height="36" rx="18" fill="white"/>
</clipPath>
</defs>
</svg>